<svg xmlns="http://www.w3.org/2000/svg" xmlns:xlink="http://www.w3.org/1999/xlink" width="108" height="108" viewBox="0 0 108 108">
  <defs>
    <filter id="Path_978624" x="0" y="0" width="108" height="108" filterUnits="userSpaceOnUse">
      <feOffset dy="3" input="SourceAlpha"/>
      <feGaussianBlur stdDeviation="3" result="blur"/>
      <feFlood flood-opacity="0.161"/>
      <feComposite operator="in" in2="blur"/>
      <feComposite in="SourceGraphic"/>
    </filter>
  </defs>
  <g id="Group_1157579" data-name="Group 1157579" transform="translate(-1166.5 -1665.668)">
    <g id="Group_1144531" data-name="Group 1144531" transform="translate(979.5 -187.332)">
      <g transform="matrix(1, 0, 0, 1, 187, 1853)" filter="url(#Path_978624)">
        <g id="Path_978624-2" data-name="Path 978624" transform="translate(9 6)" fill="#cfe3dc">
          <path d="M 45 88.5 C 39.12687683105469 88.5 33.43022537231445 87.35007476806641 28.06830024719238 85.08217620849609 C 22.88852500915527 82.89131164550781 18.23629951477051 79.75458526611328 14.2408504486084 75.75914764404297 C 10.24541282653809 71.76370239257812 7.108687400817871 67.11147308349609 4.917825222015381 61.93170166015625 C 2.649924993515015 56.56977462768555 1.5 50.87312316894531 1.5 45 C 1.5 39.12687683105469 2.649924993515015 33.43022537231445 4.917825222015381 28.06830024719238 C 7.108687400817871 22.88852500915527 10.24541282653809 18.23629951477051 14.2408504486084 14.2408504486084 C 18.23629951477051 10.24541282653809 22.88852500915527 7.108687400817871 28.06830024719238 4.917825222015381 C 33.43022537231445 2.649924993515015 39.12687683105469 1.5 45 1.5 C 50.87312316894531 1.5 56.56977462768555 2.649924993515015 61.93170166015625 4.917825222015381 C 67.11147308349609 7.108687400817871 71.76370239257812 10.24541282653809 75.75914764404297 14.2408504486084 C 79.75458526611328 18.23629951477051 82.89131164550781 22.88852500915527 85.08217620849609 28.06830024719238 C 87.35007476806641 33.43022537231445 88.5 39.12687683105469 88.5 45 C 88.5 50.87312316894531 87.35007476806641 56.56977462768555 85.08217620849609 61.93170166015625 C 82.89131164550781 67.11147308349609 79.75458526611328 71.76370239257812 75.75914764404297 75.75914764404297 C 71.76370239257812 79.75458526611328 67.11147308349609 82.89131164550781 61.93170166015625 85.08217620849609 C 56.56977462768555 87.35007476806641 50.87312316894531 88.5 45 88.5 Z" stroke="none"/>
          <path d="M 45 3 C 39.32871246337891 3 33.82865524291992 4.110054016113281 28.65262985229492 6.299339294433594 C 23.65165710449219 8.414573669433594 19.15968322753906 11.44334411621094 15.301513671875 15.301513671875 C 11.44334411621094 19.15968322753906 8.414573669433594 23.65165710449219 6.299339294433594 28.65262985229492 C 4.110054016113281 33.82865524291992 3 39.32871246337891 3 45 C 3 50.67128753662109 4.110054016113281 56.17134475708008 6.299339294433594 61.34737396240234 C 8.414573669433594 66.34834289550781 11.44334411621094 70.84031677246094 15.301513671875 74.698486328125 C 19.15968322753906 78.55665588378906 23.65165710449219 81.58542633056641 28.65262985229492 83.70066070556641 C 33.82865524291992 85.88994598388672 39.32871246337891 87 45 87 C 50.67128753662109 87 56.17134475708008 85.88994598388672 61.34737396240234 83.70066070556641 C 66.34834289550781 81.58542633056641 70.84031677246094 78.55665588378906 74.698486328125 74.698486328125 C 78.55665588378906 70.84031677246094 81.58542633056641 66.34834289550781 83.70066070556641 61.34737396240234 C 85.88994598388672 56.17134475708008 87 50.67128753662109 87 45 C 87 39.32871246337891 85.88994598388672 33.82865524291992 83.70066070556641 28.65262985229492 C 81.58542633056641 23.65165710449219 78.55665588378906 19.15968322753906 74.698486328125 15.301513671875 C 70.84031677246094 11.44334411621094 66.34834289550781 8.414573669433594 61.34737396240234 6.299339294433594 C 56.17134475708008 4.110054016113281 50.67128753662109 3 45 3 M 45 0 C 69.85281372070312 0 90 20.14718627929688 90 45 C 90 69.85281372070312 69.85281372070312 90 45 90 C 20.14718627929688 90 0 69.85281372070312 0 45 C 0 20.14718627929688 20.14718627929688 0 45 0 Z" stroke="none" fill="#88bba9"/>
        </g>
      </g>
      <g id="profesor_1_" data-name="profesor (1)" transform="translate(209.921 1871.992)">
        <path id="Path_904157" data-name="Path 904157" d="M44.786,11.393V15.9a2.8,2.8,0,0,0-1.89-.728c-12.283,0-12.283-4.724-12.283-4.724,0,4.724-4.724,4.724-4.724,4.724A2.8,2.8,0,0,0,24,15.9V11.393a10.393,10.393,0,0,1,20.786,0Z" transform="translate(-1.159 -0.055)" fill="#555a66"/>
        <path id="Path_904158" data-name="Path 904158" d="M34.393,1A10.387,10.387,0,0,0,24,11.393v3.779a10.393,10.393,0,0,1,20.786,0V11.393A10.387,10.387,0,0,0,34.393,1Z" transform="translate(-1.159 -0.055)" fill="#414952"/>
        <path id="Path_904159" data-name="Path 904159" d="M36.834,58.834h.945v3.779H35.89A1.9,1.9,0,0,1,34,60.724V56a2.834,2.834,0,0,0,2.834,2.834Z" transform="translate(-1.71 -3.09)" fill="#cfa388"/>
        <path id="Path_904160" data-name="Path 904160" d="M36.834,58.834A2.834,2.834,0,0,1,34,56v1.89a2.834,2.834,0,0,0,2.834,2.834h.945v-1.89Z" transform="translate(-1.71 -3.09)" fill="#b2876d"/>
        <path id="Path_904161" data-name="Path 904161" d="M37.779,47v5.669h-.945A2.834,2.834,0,0,0,34,55.5V48.89A1.9,1.9,0,0,1,35.89,47Z" transform="translate(-1.71 -2.593)" fill="#cfa388"/>
        <path id="Path_904162" data-name="Path 904162" d="M47.448,59v3.779H38V59h9.448Z" transform="translate(-1.931 -3.255)" fill="#966857"/>
        <path id="Path_904163" data-name="Path 904163" d="M47.448,59v1.89H38V59h9.448Z" transform="translate(-1.931 -3.255)" fill="#8d5c4d"/>
        <path id="Path_904164" data-name="Path 904164" d="M47.448,47v5.669H38V47Z" transform="translate(-1.931 -2.593)" fill="#966857"/>
        <path id="Path_904165" data-name="Path 904165" d="M34.614,35.834l-2.834,2.834L28,34.89v-.945L31.779,33Z" transform="translate(-1.379 -1.821)" fill="#bec3d2"/>
        <path id="Path_904166" data-name="Path 904166" d="M41.614,34.011v.879l-3.779,3.779L35,35.834,37.834,33Z" transform="translate(-1.766 -1.821)" fill="#bec3d2"/>
        <path id="Path_904167" data-name="Path 904167" d="M37.669,38.834l-1.89,1.89H33.89L32,38.834,34.834,36Z" transform="translate(-1.6 -1.986)" fill="#4ab8f7"/>
        <path id="Path_904168" data-name="Path 904168" d="M35.724,41l1.3,5.669h-1.3a1.9,1.9,0,0,0-1.89,1.89v6.614L31,53.283,33.834,41Z" transform="translate(-1.545 -2.262)" fill="#19cffc"/>
        <path id="Path_904169" data-name="Path 904169" d="M11.559,51a35.4,35.4,0,0,1-.945,7.559S4,58.559,4,51a3.779,3.779,0,0,0,7.559,0Z" transform="translate(-0.055 -2.814)" fill="#bec3d2"/>
        <path id="Path_904170" data-name="Path 904170" d="M53,51h6.056c.057.368.113.746.161,1.134a5.634,5.634,0,0,1-1.55,4.686C57.176,52.89,53,52.89,53,52.89Z" transform="translate(-2.759 -2.814)" fill="#bec3d2"/>
        <path id="Path_904171" data-name="Path 904171" d="M48,59h4.724v3.779H48Z" transform="translate(-2.483 -3.255)" fill="#f2f6fc"/>
        <path id="Path_904172" data-name="Path 904172" d="M34.621,61.4H19.5V47.228L11,57.621a35.4,35.4,0,0,0,.945-7.559l1.89-11.338,1.89-1.89L27.062,34v.945l3.779,3.779,1.89,1.89L29.9,52.9l2.834,1.89V59.51A1.9,1.9,0,0,0,34.621,61.4Z" transform="translate(-0.441 -1.876)" fill="#dce1eb"/>
        <path id="Path_904173" data-name="Path 904173" d="M52.062,50.066v1.89H47.338V46.287H37.3L36,40.618l1.89-1.89,3.779-3.779V34.07l10.393,2.768s4.469,3.194,6.056,13.228Z" transform="translate(-1.821 -1.88)" fill="#dce1eb"/>
        <path id="Path_904174" data-name="Path 904174" d="M14.834,26v6.614H12V26Z" transform="translate(-0.497 -1.435)" fill="#faa68e"/>
        <path id="Path_904175" data-name="Path 904175" d="M6,30h5.669v2.834H6Z" transform="translate(-0.166 -1.655)" fill="#ffcdbe"/>
        <path id="Path_904176" data-name="Path 904176" d="M13.559,35.834a2.776,2.776,0,0,0-2.834,2.834H7.89L6,36.779V33h4.724a2.776,2.776,0,0,0,2.834,2.834Z" transform="translate(-0.166 -1.821)" fill="#faa68e"/>
        <path id="Path_904177" data-name="Path 904177" d="M15.724,33v3.779l-1.89,1.89H11a2.776,2.776,0,0,1,2.834-2.834A2.776,2.776,0,0,1,11,33Z" transform="translate(-0.441 -1.821)" fill="#ffbeaa"/>
        <path id="Path_904178" data-name="Path 904178" d="M13.448,39l-1.89,11.338a3.779,3.779,0,0,1-7.559,0L7.779,39Z" transform="translate(-0.055 -2.152)" fill="#ffcdbe"/>
        <path id="Path_904179" data-name="Path 904179" d="M9.669,53.172A3.779,3.779,0,0,1,5.89,49.393L9.354,39H7.779L4,50.338a3.768,3.768,0,0,0,6.338,2.767,3.813,3.813,0,0,1-.669.067Z" transform="translate(-0.055 -2.152)" fill="#ffbeaa"/>
        <path id="Path_904180" data-name="Path 904180" d="M51.952,53s4.176,0,4.667,3.93a5.6,5.6,0,0,1-4.072,1.738H36.834a2.834,2.834,0,1,1,0-5.669Z" transform="translate(-1.71 -2.924)" fill="#ffcdbe"/>
        <path id="Path_904181" data-name="Path 904181" d="M52.547,56.89H36.835A2.8,2.8,0,0,1,34.174,55a2.826,2.826,0,0,0,2.661,3.779H52.547a5.6,5.6,0,0,0,4.072-1.738,4.614,4.614,0,0,0-.437-1.481,5.593,5.593,0,0,1-3.636,1.33Z" transform="translate(-1.711 -3.035)" fill="#ffbeaa"/>
        <g id="Group_1143324" data-name="Group 1143324" transform="translate(21.896 15.117)">
          <path id="Path_904182" data-name="Path 904182" d="M37.669,30.48v2.381L34.834,35.7,32,32.861V30.48a8.422,8.422,0,0,0,5.669,0Z" transform="translate(-23.497 -16.799)" fill="#faa68e"/>
          <path id="Path_904183" data-name="Path 904183" d="M23.945,16.728A2.8,2.8,0,0,1,25.834,16v5.669A2.834,2.834,0,0,1,23,18.834,2.778,2.778,0,0,1,23.945,16.728Z" transform="translate(-23 -16)" fill="#faa68e"/>
          <path id="Path_904184" data-name="Path 904184" d="M44,16a2.834,2.834,0,0,1,0,5.669Z" transform="translate(-24.159 -16)" fill="#faa68e"/>
        </g>
        <path id="Path_904185" data-name="Path 904185" d="M43.007,15.724v5.669a8.5,8.5,0,0,1-17.007,0V15.724s4.724,0,4.724-4.724C30.724,11,30.724,15.724,43.007,15.724Z" transform="translate(-1.269 -0.607)" fill="#ffcdbe"/>
        <path id="Path_904186" data-name="Path 904186" d="M30.724,11c0,4.724-4.724,4.724-4.724,4.724v1.89s4.724,0,4.724-4.724c0,0,0,4.724,12.283,4.724v-1.89C30.724,15.724,30.724,11,30.724,11Z" transform="translate(-1.269 -0.607)" fill="#ffbeaa"/>
        <path id="Path_904187" data-name="Path 904187" d="M34.448,30.786A9.459,9.459,0,0,1,25,21.338V15.669a.945.945,0,0,1,.945-.945,3.638,3.638,0,0,0,3.779-3.779.945.945,0,0,1,1.89,0c0,.008.388,3.779,11.338,3.779a.945.945,0,0,1,.945.945v5.669A9.459,9.459,0,0,1,34.448,30.786ZM26.89,16.533v4.8a7.559,7.559,0,0,0,15.117,0V16.6c-6.41-.13-9.477-1.591-10.944-3A5.5,5.5,0,0,1,26.89,16.533Z" transform="translate(-1.214 -0.552)"/>
        <path id="Path_904188" data-name="Path 904188" d="M44,22.559v-1.89a1.89,1.89,0,0,0,0-3.779V15a3.779,3.779,0,1,1,0,7.559Z" transform="translate(-2.262 -0.828)"/>
        <path id="Path_904189" data-name="Path 904189" d="M25.779,22.559a3.779,3.779,0,1,1,0-7.559v1.89a1.89,1.89,0,0,0,0,3.779Z" transform="translate(-1.048 -0.828)"/>
        <path id="Path_904190" data-name="Path 904190" d="M45.676,16.062h-1.89V11.338a9.448,9.448,0,0,0-18.9,0v4.724H23V11.338a11.338,11.338,0,1,1,22.676,0Z" transform="translate(-1.104)"/>
        <path id="Path_904191" data-name="Path 904191" d="M34.779,26.779A3.779,3.779,0,0,1,31,23h1.89a1.89,1.89,0,0,0,3.779,0h1.89A3.779,3.779,0,0,1,34.779,26.779Z" transform="translate(-1.545 -1.269)"/>
        <path id="Path_904192" data-name="Path 904192" d="M31,18h1.89v1.89H31Z" transform="translate(-1.545 -0.993)"/>
        <path id="Path_904193" data-name="Path 904193" d="M37,18h1.89v1.89H37Z" transform="translate(-1.876 -0.993)"/>
        <path id="Path_904194" data-name="Path 904194" d="M34.779,36.614a.945.945,0,0,1-.668-.277L31.277,33.5A.945.945,0,0,1,31,32.834V30h1.89v2.443l1.89,1.89,1.89-1.89V30h1.89v2.834a.945.945,0,0,1-.277.668l-2.835,2.835A.945.945,0,0,1,34.779,36.614Z" transform="translate(-1.545 -1.655)"/>
        <path id="Path_904195" data-name="Path 904195" d="M52.495,58.457H36.779a3.779,3.779,0,1,1,0-7.559H50.952V45.229h1.89v6.614a.945.945,0,0,1-.945.945H36.779a1.89,1.89,0,0,0,0,3.779H52.495a4.712,4.712,0,0,0,3.542-1.606,4.76,4.76,0,0,0,1.142-3.756c-1.22-9.362-5-13-5.719-13.618L37.477,33.859l.488-1.825,14.172,3.779a.945.945,0,0,1,.305.144c.21.15,5.146,3.793,6.607,15a6.627,6.627,0,0,1-6.554,7.5Z" transform="translate(-1.655 -1.768)"/>
        <path id="Path_904196" data-name="Path 904196" d="M47.172,63.007H35.834A2.834,2.834,0,0,1,33,60.172V48.834A2.834,2.834,0,0,1,35.834,46H47.172a.945.945,0,0,1,.945.945v5.669h-1.89V47.89H35.834a.945.945,0,0,0-.945.945V60.172a.945.945,0,0,0,.945.945H46.228V58.283h1.89v3.779A.945.945,0,0,1,47.172,63.007Z" transform="translate(-1.655 -2.538)"/>
        <path id="Path_904197" data-name="Path 904197" d="M37,47h1.89v5.669H37Z" transform="translate(-1.876 -2.593)"/>
        <path id="Path_904198" data-name="Path 904198" d="M37,59h1.89v3.779H37Z" transform="translate(-1.876 -3.255)"/>
        <path id="Path_904199" data-name="Path 904199" d="M52.724,63.724H48v-1.89h3.779V59h1.89v3.779A.945.945,0,0,1,52.724,63.724Z" transform="translate(-2.483 -3.255)"/>
        <path id="Path_904200" data-name="Path 904200" d="M7.724,55.007A4.73,4.73,0,0,1,3,50.283a.945.945,0,0,1,.048-.3L6.827,38.646a.945.945,0,0,1,.9-.646h5.669a.945.945,0,0,1,.932,1.1L12.448,50.365a4.729,4.729,0,0,1-4.724,4.642ZM4.89,50.425a2.835,2.835,0,1,0,5.669-.143.868.868,0,0,1,.013-.156L12.277,39.89H8.4Z" transform="translate(0 -2.097)"/>
        <path id="Path_904201" data-name="Path 904201" d="M14.447,39.282l-1.336-1.336,1.613-1.613v-.554a.945.945,0,0,1-.945.945,1.778,1.778,0,0,0-1.89,1.89H10a3.582,3.582,0,0,1,1.2-2.83A3.993,3.993,0,0,1,10,32.945.945.945,0,0,1,10.945,32h4.724a.945.945,0,0,1,.945.945v3.779a.945.945,0,0,1-.277.668ZM12.1,33.89a1.688,1.688,0,0,0,1.678.945.945.945,0,0,1,.945.945V33.89Z" transform="translate(-0.386 -1.766)"/>
        <path id="Path_904202" data-name="Path 904202" d="M15.724,32.559h-1.89V26.89H12.89v5.669H11V25.945A.945.945,0,0,1,11.945,25h2.834a.945.945,0,0,1,.945.945Z" transform="translate(-0.441 -1.379)"/>
        <path id="Path_904203" data-name="Path 904203" d="M10.669,33.724H5.945A.945.945,0,0,1,5,32.779V29.945A.945.945,0,0,1,5.945,29h5.669v1.89H6.89v.945h3.779Z" transform="translate(-0.11 -1.6)"/>
        <path id="Path_904204" data-name="Path 904204" d="M7.166,39.337l-1.89-1.89A.945.945,0,0,1,5,36.779V33H6.89v3.388L8.5,38Z" transform="translate(-0.11 -1.821)"/>
        <path id="Path_904205" data-name="Path 904205" d="M56.73,56.992c-.373-2.987-3.392-3.1-3.73-3.1V52a5.5,5.5,0,0,1,5.6,4.758Z" transform="translate(-2.759 -2.869)"/>
        <path id="Path_904206" data-name="Path 904206" d="M53,50h6.614v1.89H53Z" transform="translate(-2.759 -2.759)"/>
        <path id="Path_904207" data-name="Path 904207" d="M0,0H15.582V1.89H0Z" transform="translate(15.064 34.034) rotate(-14.064)"/>
        <path id="Path_904208" data-name="Path 904208" d="M34.179,63.062H19.062a.945.945,0,0,1-.945-.945V50.59L11.29,58.935a.945.945,0,0,1-.731.348c-.076,0-7.559-.094-7.559-8.5H4.89c0,5.509,3.918,6.43,5.247,6.584l8.194-10.015a.945.945,0,0,1,1.676.6V61.172H34.179Z" transform="translate(0 -2.593)"/>
        <path id="Path_904209" data-name="Path 904209" d="M11.863,58.788l-1.833-.459A34.756,34.756,0,0,0,10.946,51h1.89a36.051,36.051,0,0,1-.973,7.788Z" transform="translate(-0.388 -2.814)"/>
        <path id="Path_904210" data-name="Path 904210" d="M37.393,39.669a.945.945,0,0,1-.668-.277l-2.167-2.167-2.166,2.166a.945.945,0,0,1-1.336,0l-3.779-3.779A.945.945,0,0,1,27,34.945V34h1.89v.554l2.834,2.834,2.166-2.166a.945.945,0,0,1,1.336,0l2.166,2.166,2.834-2.834V34h1.89v.945a.945.945,0,0,1-.277.668l-3.779,3.779A.945.945,0,0,1,37.393,39.669Z" transform="translate(-1.324 -1.876)"/>
        <path id="Path_904211" data-name="Path 904211" d="M35.74,41.8h-1.89a.945.945,0,0,1-.668-.277l-1.89-1.89,1.336-1.336,1.613,1.613h1.107l1.613-1.613L38.3,39.629l-1.89,1.89A.945.945,0,0,1,35.74,41.8Z" transform="translate(-1.561 -2.113)"/>
        <path id="Path_904212" data-name="Path 904212" d="M33.255,55.946l-2.834-1.89a.945.945,0,0,1-.4-1l2.834-12.283L34.7,41.2,32.012,52.846,34.3,54.374Z" transform="translate(-1.49 -2.25)"/>
        <path id="Path_904213" data-name="Path 904213" d="M0,0H1.89V5.817H0Z" transform="translate(33.269 38.972) rotate(-12.939)"/>
        <path id="Path_904214" data-name="Path 904214" d="M13,17h1.89v5.669H13Z" transform="translate(-0.552 -0.938)"/>
        <path id="Path_904215" data-name="Path 904215" d="M0,0H5.345V1.89H0Z" transform="translate(14.612 21.062) rotate(-45)"/>
        <path id="Path_904216" data-name="Path 904216" d="M0,0H1.89V5.345H0Z" transform="translate(7.054 18.619) rotate(-45)"/>
      </g>
    </g>
  </g>
</svg>
