<svg xmlns="http://www.w3.org/2000/svg" xmlns:xlink="http://www.w3.org/1999/xlink" width="108" height="108" viewBox="0 0 108 108">
  <defs>
    <filter id="Path_978624" x="0" y="0" width="108" height="108" filterUnits="userSpaceOnUse">
      <feOffset dy="3" input="SourceAlpha"/>
      <feGaussianBlur stdDeviation="3" result="blur"/>
      <feFlood flood-opacity="0.161"/>
      <feComposite operator="in" in2="blur"/>
      <feComposite in="SourceGraphic"/>
    </filter>
  </defs>
  <g id="Group_1157283" data-name="Group 1157283" transform="translate(-316 -2057)">
    <g id="Group_1157140" data-name="Group 1157140" transform="translate(114 -900)">
      <g transform="matrix(1, 0, 0, 1, 202, 2957)" filter="url(#Path_978624)">
        <g id="Path_978624-2" data-name="Path 978624" transform="translate(9 6)" fill="#f5e9a1">
          <path d="M 45 88.5 C 39.12687683105469 88.5 33.43022537231445 87.35007476806641 28.06830024719238 85.08217620849609 C 22.88852500915527 82.89131164550781 18.23629951477051 79.75458526611328 14.2408504486084 75.75914764404297 C 10.24541282653809 71.76370239257812 7.108687400817871 67.11147308349609 4.917825222015381 61.93170166015625 C 2.649924993515015 56.56977462768555 1.5 50.87312316894531 1.5 45 C 1.5 39.12687683105469 2.649924993515015 33.43022537231445 4.917825222015381 28.06830024719238 C 7.108687400817871 22.88852500915527 10.24541282653809 18.23629951477051 14.2408504486084 14.2408504486084 C 18.23629951477051 10.24541282653809 22.88852500915527 7.108687400817871 28.06830024719238 4.917825222015381 C 33.43022537231445 2.649924993515015 39.12687683105469 1.5 45 1.5 C 50.87312316894531 1.5 56.56977462768555 2.649924993515015 61.93170166015625 4.917825222015381 C 67.11147308349609 7.108687400817871 71.76370239257812 10.24541282653809 75.75914764404297 14.2408504486084 C 79.75458526611328 18.23629951477051 82.89131164550781 22.88852500915527 85.08217620849609 28.06830024719238 C 87.35007476806641 33.43022537231445 88.5 39.12687683105469 88.5 45 C 88.5 50.87312316894531 87.35007476806641 56.56977462768555 85.08217620849609 61.93170166015625 C 82.89131164550781 67.11147308349609 79.75458526611328 71.76370239257812 75.75914764404297 75.75914764404297 C 71.76370239257812 79.75458526611328 67.11147308349609 82.89131164550781 61.93170166015625 85.08217620849609 C 56.56977462768555 87.35007476806641 50.87312316894531 88.5 45 88.5 Z" stroke="none"/>
          <path d="M 45 3 C 39.32871246337891 3 33.82865524291992 4.110054016113281 28.65262985229492 6.299339294433594 C 23.65165710449219 8.414573669433594 19.15968322753906 11.44334411621094 15.301513671875 15.301513671875 C 11.44334411621094 19.15968322753906 8.414573669433594 23.65165710449219 6.299339294433594 28.65262985229492 C 4.110054016113281 33.82865524291992 3 39.32871246337891 3 45 C 3 50.67128753662109 4.110054016113281 56.17134475708008 6.299339294433594 61.34737396240234 C 8.414573669433594 66.34834289550781 11.44334411621094 70.84031677246094 15.301513671875 74.698486328125 C 19.15968322753906 78.55665588378906 23.65165710449219 81.58542633056641 28.65262985229492 83.70066070556641 C 33.82865524291992 85.88994598388672 39.32871246337891 87 45 87 C 50.67128753662109 87 56.17134475708008 85.88994598388672 61.34737396240234 83.70066070556641 C 66.34834289550781 81.58542633056641 70.84031677246094 78.55665588378906 74.698486328125 74.698486328125 C 78.55665588378906 70.84031677246094 81.58542633056641 66.34834289550781 83.70066070556641 61.34737396240234 C 85.88994598388672 56.17134475708008 87 50.67128753662109 87 45 C 87 39.32871246337891 85.88994598388672 33.82865524291992 83.70066070556641 28.65262985229492 C 81.58542633056641 23.65165710449219 78.55665588378906 19.15968322753906 74.698486328125 15.301513671875 C 70.84031677246094 11.44334411621094 66.34834289550781 8.414573669433594 61.34737396240234 6.299339294433594 C 56.17134475708008 4.110054016113281 50.67128753662109 3 45 3 M 45 0 C 69.85281372070312 0 90 20.14718627929688 90 45 C 90 69.85281372070312 69.85281372070312 90 45 90 C 20.14718627929688 90 0 69.85281372070312 0 45 C 0 20.14718627929688 20.14718627929688 0 45 0 Z" stroke="none" fill="#bcac89"/>
        </g>
      </g>
      <g id="Group_1145584" data-name="Group 1145584" transform="translate(218.706 2983.122)">
        <g id="Group_1145585" data-name="Group 1145585" transform="translate(12.328)">
          <path id="Path_979780" data-name="Path 979780" d="M60.04,0V11.085a5.346,5.346,0,0,0,2.508,1.654,5.64,5.64,0,1,1,9.431,0l.97-.383c1.7-1.243,3.157-2.8,4.748-4.18V0H92.144V14.445H79.754l-6.022,5.214a3.1,3.1,0,0,0-.85,1.457V34.509h1.705A2.484,2.484,0,0,1,76.643,31.3c1.146-.124,2.49.1,3.658,0,.428-2.21.705-4.942,2.914-6.116.033-.14-.021-.165-.1-.251-.272-.309-.8-.618-1.109-1a4.817,4.817,0,1,1,7.61-.22c-.123.168-.894.85-.785.969a5.324,5.324,0,0,1,3.013,3.258c.47,1.429.42,5.322.3,6.929a6.411,6.411,0,0,1-1.609,3.657c1.783.044,1.756,2.021,1.605,3.362-.063.562-.671,1.454-1.254,1.454H88.934v4.815h1.605v1.605H43.987V48.152h1.605V43.337H43.636c-.583,0-1.192-.893-1.255-1.454-.15-1.341-.178-3.318,1.606-3.362a6.41,6.41,0,0,1-1.609-3.657c-.118-1.607-.169-5.5.3-6.929a5.323,5.323,0,0,1,3.013-3.258c.109-.119-.662-.8-.785-.969a4.827,4.827,0,1,1,6.405,1.321c2.122,1.469,2.506,3.887,2.912,6.265,1.168.1,2.512-.12,3.658,0a2.5,2.5,0,0,1,2.056,3.211h1.706V21.117a3.1,3.1,0,0,0-.85-1.457l-6.022-5.214H42.382V0ZM58.434,1.605H43.987V12.84h8.929C51.33,11.007,47.865,9.687,49.028,6.7a3.182,3.182,0,0,1,5.295-.828L58.434,9.63Zm32.1,0H79.3V6.621c.391-.1.647-.543.956-.8,3.583-2.976,7.475,1.363,4.263,4.463-.9.873-2.056,1.613-2.911,2.557h8.929Zm-23.8,4.041c-5.341.62-4.135,9.1,1.451,7.871,4.782-1.05,3.665-8.465-1.451-7.871m4.537,22.443V20.916c0-1.006,1.171-2.213,1.853-2.862,3.4-3.232,7.3-6.105,10.687-9.377,1.015-1.383-.694-2.971-2.2-1.9-2.885,2.06-6.251,6.81-9.618,7.737-.95.262-1.94.266-2.889.527l.557,6.873L67.227,24.37l-2.369-2.452.557-6.873c-.976-.265-1.992-.268-2.967-.549-3.133-.9-6.781-5.606-9.484-7.671-1.5-1.145-3.276.411-2.254,1.853C54.1,11.943,58,14.822,61.4,18.054c.749.712,1.853,1.843,1.853,2.962v7.072ZM67.565,15.248h-.6l-.5,5.968.767.847.84-.847ZM48.277,17.682c-3.989.579-3.319,6.892.966,6.383,4.1-.488,3.421-7.02-.966-6.383m36.92,0c-3.989.579-3.319,6.892.966,6.383,4.1-.488,3.421-7.02-.966-6.383m-41.21,11.56c-.193,1.624.143,3.6,0,5.267H49.4L48.1,29.244c.058-.381,1.132-.366,1.457-.556l1.456,5.472a.9.9,0,0,0,.75.353c1.927.177,4.146-.124,6.1-.026a.809.809,0,0,0-.177-1.586c-1.15-.133-3.6.328-4.463-.353-.816-.646-.907-3.675-1.629-4.892a4.136,4.136,0,0,0-7.6,1.585m46.552,5.267V29.242c0-2.4-3.041-3.984-5.219-3.413-3.261.854-2.636,3.8-3.56,6.071-.659,1.622-3.476.834-4.918,1a.809.809,0,0,0-.177,1.586c1.958-.1,4.177.2,6.1.026a.9.9,0,0,0,.75-.353l1.456-5.472c.325.19,1.4.174,1.457.556l-1.31,5.265ZM66.46,29.694H63.25v4.815h3.21Zm4.816,0h-3.21v4.815h3.21Zm-26.888,6.42c1.33,3.466,5.218,2.055,7.967,2.416a2.561,2.561,0,0,1,2.066,2.148c.211,1.953-.312,4.653.023,6.5a1.205,1.205,0,0,0,2.375-.086c-.162-2.386.26-5.145-.019-7.486-.182-1.527-1.826-3.489-3.433-3.489Zm33.309,0H56.829c.222.387.551.69.783,1.073.188.312.52,1.287.771,1.336l17.665,0a.322.322,0,0,0,.3-.105c.126-.152.394-.942.571-1.235.231-.384.561-.686.783-1.073m12.441,0H81.158a4.665,4.665,0,0,0-2.46,1.352c-1.869,2.162-.657,6.9-.992,9.623a1.205,1.205,0,0,0,2.375.086c.335-1.844-.188-4.544.023-6.5A2.561,2.561,0,0,1,82.17,38.53c2.759-.362,6.626,1.046,7.968-2.416M52.816,41.732c.072-.4.015-1.605-.552-1.605H43.987v1.605Zm12.039-1.605H58.434V47.4c0,.14-.268.526-.2.752h6.622Zm3.21,0H66.46v8.025h1.605Zm8.026,0H69.671v8.025h6.622c.067-.226-.2-.612-.2-.752Zm14.447,0H82.262c-.567,0-.624,1.2-.552,1.605h8.829ZM48.8,43.337H47.2v4.815H48.8Zm4.013,0H50.408v4.815h2.608c.067-.226-.2-.612-.2-.752Zm31.3,0H81.71V47.4c0,.14-.268.526-.2.752h2.608Zm3.21,0H85.723v4.815h1.605Z" transform="translate(-42.297)" fill="#010101"/>
          <path id="Path_979781" data-name="Path 979781" d="M103.52,53.637H95.494V46.565c0-1.119-1.1-2.25-1.853-2.962-3.4-3.232-7.3-6.111-10.687-9.378-1.022-1.442.755-3,2.254-1.853,2.7,2.065,6.351,6.769,9.484,7.671.975.281,1.991.284,2.967.549L97.1,47.466l2.369,2.452,2.441-2.452-.557-6.873c.948-.26,1.938-.265,2.889-.527,3.367-.928,6.734-5.678,9.618-7.737,1.5-1.074,3.213.514,2.2,1.9-3.384,3.273-7.287,6.146-10.687,9.378-.683.649-1.853,1.855-1.853,2.862Z" transform="translate(-74.541 -25.549)" fill="#fc816d"/>
          <path id="Path_979782" data-name="Path 979782" d="M65.152,7.986v8.025L61.04,12.248a3.182,3.182,0,0,0-5.295.828c-1.163,2.992,2.3,4.311,3.889,6.145H50.705V7.986Z" transform="translate(-49.015 -6.381)" fill="#e4e8eb"/>
          <path id="Path_979783" data-name="Path 979783" d="M237.659,7.986V19.221H228.73c.855-.944,2.006-1.684,2.911-2.557,3.212-3.1-.68-7.439-4.263-4.463-.309.257-.565.7-.956.8V7.986Zm-1.605,1.605h-1.605V11.2h1.605Zm0,3.21h-1.605v1.605h1.605Zm0,3.21h-3.21v1.605h3.21Z" transform="translate(-189.417 -6.381)" fill="#e4e8eb"/>
          <path id="Path_979784" data-name="Path 979784" d="M50.461,131.415a4.136,4.136,0,0,1,7.6-1.585c.723,1.216.813,4.245,1.629,4.891.86.681,3.313.219,4.463.353a.809.809,0,0,1,.177,1.586c-1.957-.1-4.177.2-6.1.026a.9.9,0,0,1-.75-.354l-1.456-5.472c-.325.19-1.4.174-1.457.556l1.31,5.265H50.461c.143-1.663-.193-3.642,0-5.267" transform="translate(-48.772 -102.172)" fill="#f9d56f"/>
          <path id="Path_979785" data-name="Path 979785" d="M224.835,136.734h-5.418l1.31-5.265c-.058-.381-1.132-.366-1.457-.556l-1.456,5.472a.9.9,0,0,1-.75.354c-1.927.177-4.146-.124-6.1-.026a.809.809,0,0,1,.177-1.586c1.441-.167,4.258.62,4.918-1,.924-2.273.3-5.216,3.56-6.071,2.178-.571,5.219,1.014,5.219,3.413Z" transform="translate(-176.593 -102.225)" fill="#fad56f"/>
          <path id="Path_979786" data-name="Path 979786" d="M150.267,27.957c5.117-.593,6.234,6.821,1.451,7.872-5.587,1.227-6.793-7.252-1.451-7.872" transform="translate(-125.825 -22.311)" fill="#eeceb2"/>
          <path id="Path_979787" data-name="Path 979787" d="M52.7,179.691h8.979c1.607,0,3.251,1.962,3.433,3.489.279,2.342-.142,5.1.019,7.487a1.205,1.205,0,0,1-2.375.086c-.335-1.844.188-4.544-.023-6.5a2.561,2.561,0,0,0-2.066-2.148c-2.749-.361-6.638,1.049-7.968-2.416" transform="translate(-50.611 -143.577)" fill="#828e9a"/>
          <path id="Path_979788" data-name="Path 979788" d="M230.586,179.691c-1.341,3.463-5.208,2.054-7.968,2.416a2.561,2.561,0,0,0-2.066,2.148c-.211,1.953.312,4.653-.023,6.5a1.205,1.205,0,0,1-2.375-.086c.334-2.721-.877-7.462.992-9.624a4.665,4.665,0,0,1,2.46-1.352Z" transform="translate(-182.746 -143.577)" fill="#828e9a"/>
          <path id="Path_979789" data-name="Path 979789" d="M135.47,179.691c-.222.387-.551.69-.783,1.073-.176.293-.445,1.083-.571,1.235a.322.322,0,0,1-.3.105l-17.665,0c-.251-.049-.583-1.024-.771-1.336-.231-.384-.561-.686-.783-1.073Z" transform="translate(-100.07 -143.577)" fill="#cd9d75"/>
          <path id="Path_979790" data-name="Path 979790" d="M61.516,87.805c4.387-.637,5.07,5.895.966,6.383-4.285.509-4.955-5.8-.966-6.383" transform="translate(-55.536 -70.123)" fill="#edcdb2"/>
          <path id="Path_979791" data-name="Path 979791" d="M245.22,87.805c4.387-.637,5.07,5.895.966,6.383-4.285.509-4.955-5.8-.966-6.383" transform="translate(-202.32 -70.123)" fill="#edcdb2"/>
          <rect id="Rectangle_405842" data-name="Rectangle 405842" width="3.21" height="4.815" transform="translate(20.953 29.694)" fill="#828e9a"/>
          <rect id="Rectangle_405843" data-name="Rectangle 405843" width="3.21" height="4.815" transform="translate(25.768 29.694)" fill="#828e9a"/>
          <path id="Path_979792" data-name="Path 979792" d="M59.534,201.262H50.705v-1.605h8.277c.567,0,.624,1.2.552,1.605" transform="translate(-49.015 -159.53)" fill="#cd9d75"/>
          <path id="Path_979793" data-name="Path 979793" d="M247.134,199.657v1.605h-8.829c-.072-.4-.015-1.605.552-1.605Z" transform="translate(-198.893 -159.53)" fill="#cd9d75"/>
          <rect id="Rectangle_405844" data-name="Rectangle 405844" width="1.605" height="8.025" transform="translate(24.163 40.127)" fill="#b17847"/>
          <rect id="Rectangle_405845" data-name="Rectangle 405845" width="1.605" height="4.815" transform="translate(4.9 43.337)" fill="#b17847"/>
          <rect id="Rectangle_405846" data-name="Rectangle 405846" width="1.605" height="4.815" transform="translate(43.426 43.337)" fill="#b17847"/>
          <path id="Path_979794" data-name="Path 979794" d="M163.627,75.867l.5,5.968-.84.847-.767-.847.5-5.968Z" transform="translate(-138.36 -60.619)" fill="#dee2e5"/>
          <rect id="Rectangle_405847" data-name="Rectangle 405847" width="3.21" height="1.605" transform="translate(43.426 9.63)"/>
          <rect id="Rectangle_405848" data-name="Rectangle 405848" width="1.605" height="1.605" transform="translate(45.031 3.21)"/>
          <rect id="Rectangle_405849" data-name="Rectangle 405849" width="1.605" height="1.605" transform="translate(45.031 6.42)"/>
        </g>
      </g>
    </g>
  </g>
</svg>
