<svg xmlns="http://www.w3.org/2000/svg" xmlns:xlink="http://www.w3.org/1999/xlink" width="108" height="108" viewBox="0 0 108 108">
  <defs>
    <filter id="Path_978624" x="0" y="0" width="108" height="108" filterUnits="userSpaceOnUse">
      <feOffset dy="3" input="SourceAlpha"/>
      <feGaussianBlur stdDeviation="3" result="blur"/>
      <feFlood flood-opacity="0.161"/>
      <feComposite operator="in" in2="blur"/>
      <feComposite in="SourceGraphic"/>
    </filter>
    <clipPath id="clip-path">
      <rect id="Rectangle_405856" data-name="Rectangle 405856" width="66.697" height="58.272" fill="none"/>
    </clipPath>
  </defs>
  <g id="Group_1157283" data-name="Group 1157283" transform="translate(-316 -4406)">
    <g id="Group_1157164" data-name="Group 1157164" transform="translate(114 1449)">
      <g transform="matrix(1, 0, 0, 1, 202, 2957)" filter="url(#Path_978624)">
        <g id="Path_978624-2" data-name="Path 978624" transform="translate(9 6)" fill="#fdf6ea">
          <path d="M 45 88.5 C 39.12687683105469 88.5 33.43022537231445 87.35007476806641 28.06830024719238 85.08217620849609 C 22.88852500915527 82.89131164550781 18.23629951477051 79.75458526611328 14.2408504486084 75.75914764404297 C 10.24541282653809 71.76370239257812 7.108687400817871 67.11147308349609 4.917825222015381 61.93170166015625 C 2.649924993515015 56.56977462768555 1.5 50.87312316894531 1.5 45 C 1.5 39.12687683105469 2.649924993515015 33.43022537231445 4.917825222015381 28.06830024719238 C 7.108687400817871 22.88852500915527 10.24541282653809 18.23629951477051 14.2408504486084 14.2408504486084 C 18.23629951477051 10.24541282653809 22.88852500915527 7.108687400817871 28.06830024719238 4.917825222015381 C 33.43022537231445 2.649924993515015 39.12687683105469 1.5 45 1.5 C 50.87312316894531 1.5 56.56977462768555 2.649924993515015 61.93170166015625 4.917825222015381 C 67.11147308349609 7.108687400817871 71.76370239257812 10.24541282653809 75.75914764404297 14.2408504486084 C 79.75458526611328 18.23629951477051 82.89131164550781 22.88852500915527 85.08217620849609 28.06830024719238 C 87.35007476806641 33.43022537231445 88.5 39.12687683105469 88.5 45 C 88.5 50.87312316894531 87.35007476806641 56.56977462768555 85.08217620849609 61.93170166015625 C 82.89131164550781 67.11147308349609 79.75458526611328 71.76370239257812 75.75914764404297 75.75914764404297 C 71.76370239257812 79.75458526611328 67.11147308349609 82.89131164550781 61.93170166015625 85.08217620849609 C 56.56977462768555 87.35007476806641 50.87312316894531 88.5 45 88.5 Z" stroke="none"/>
          <path d="M 45 3 C 39.32871246337891 3 33.82865524291992 4.110054016113281 28.65262985229492 6.299339294433594 C 23.65165710449219 8.414573669433594 19.15968322753906 11.44334411621094 15.301513671875 15.301513671875 C 11.44334411621094 19.15968322753906 8.414573669433594 23.65165710449219 6.299339294433594 28.65262985229492 C 4.110054016113281 33.82865524291992 3 39.32871246337891 3 45 C 3 50.67128753662109 4.110054016113281 56.17134475708008 6.299339294433594 61.34737396240234 C 8.414573669433594 66.34834289550781 11.44334411621094 70.84031677246094 15.301513671875 74.698486328125 C 19.15968322753906 78.55665588378906 23.65165710449219 81.58542633056641 28.65262985229492 83.70066070556641 C 33.82865524291992 85.88994598388672 39.32871246337891 87 45 87 C 50.67128753662109 87 56.17134475708008 85.88994598388672 61.34737396240234 83.70066070556641 C 66.34834289550781 81.58542633056641 70.84031677246094 78.55665588378906 74.698486328125 74.698486328125 C 78.55665588378906 70.84031677246094 81.58542633056641 66.34834289550781 83.70066070556641 61.34737396240234 C 85.88994598388672 56.17134475708008 87 50.67128753662109 87 45 C 87 39.32871246337891 85.88994598388672 33.82865524291992 83.70066070556641 28.65262985229492 C 81.58542633056641 23.65165710449219 78.55665588378906 19.15968322753906 74.698486328125 15.301513671875 C 70.84031677246094 11.44334411621094 66.34834289550781 8.414573669433594 61.34737396240234 6.299339294433594 C 56.17134475708008 4.110054016113281 50.67128753662109 3 45 3 M 45 0 C 69.85281372070312 0 90 20.14718627929688 90 45 C 90 69.85281372070312 69.85281372070312 90 45 90 C 20.14718627929688 90 0 69.85281372070312 0 45 C 0 20.14718627929688 20.14718627929688 0 45 0 Z" stroke="none" fill="#ecae3b"/>
        </g>
      </g>
      <g id="Group_1145596" data-name="Group 1145596" transform="translate(222.651 2976.061)">
        <path id="Path_979881" data-name="Path 979881" d="M0,0V.107L.106,0Z" transform="translate(0 0)" fill="#fefefe"/>
        <path id="Path_979882" data-name="Path 979882" d="M0,273.607H.106L0,273.5Z" transform="translate(0 -215.214)" fill="#fefefe"/>
        <path id="Path_979883" data-name="Path 979883" d="M311.5,273.607h.107V273.5Z" transform="translate(-245.116 -215.214)" fill="#fefefe"/>
        <g id="Group_1145595" data-name="Group 1145595" transform="translate(0 0.121)">
          <g id="Group_1145594" data-name="Group 1145594" clip-path="url(#clip-path)">
            <path id="Path_979884" data-name="Path 979884" d="M38.56,126.879a1.643,1.643,0,0,0,1.011.534c.459,0,1.92-.669,2.6-.8,2.745-.54,10.01-.518,12.687.194,9.948,2.646,11.607,16.35,2.6,21.367-3.111,1.733-5.855,1.427-9.282,1.569l-2.491,2.348c-.031-.692.165-1.681-.431-2.176-.53-.44-1.153-.2-1.749-.272a11.707,11.707,0,0,1-10.191-14.653c.2-.747.878-1.78.538-2.5a4.641,4.641,0,0,0-.4-.5,6.9,6.9,0,0,1,1.383-2.127c.964.889,2.5-.592,1.6-1.6a7.327,7.327,0,0,1,2.128-1.383m.5,8c-3.894.614-3.215,6.83,1.027,6.344,4.073-.467,3.406-7.043-1.027-6.344m8.511,0c-3.894.614-3.215,6.83,1.027,6.344,4.073-.467,3.406-7.043-1.027-6.344m8.511,0c-3.894.614-3.215,6.83,1.027,6.344,4.073-.467,3.406-7.043-1.027-6.344" transform="translate(-25.9 -99.452)" fill="#fdfdfd"/>
            <path id="Path_979885" data-name="Path 979885" d="M30.677,96.158c-.518-.972.49-1.528,1.221-1.811,3.975-1.536,8.874-.574,13.066-.846a13.984,13.984,0,0,1,11.294-6.175c7.3-.365,14.429-.451,18.868,6.247a13.792,13.792,0,0,1-10.406,21.3c-.146,1.154.64,4.431-1.431,4.037-.786-.15-3.258-3.281-4.1-3.875l-3.758-.15a14.248,14.248,0,0,1-9.3,6.02c-1.649.248-3.264.059-4.922.185l-4.219,3.972c-2,.457-1.295-2.954-1.414-4.018a13.828,13.828,0,0,1-12.225-17.277c.237-.923.817-3.253,2.226-2.507a4.707,4.707,0,0,1,.4.5c.34.719-.342,1.752-.538,2.5a11.707,11.707,0,0,0,10.191,14.653c.6.074,1.22-.167,1.749.272.6.5.4,1.483.431,2.176l2.491-2.348c3.426-.142,6.17.164,9.282-1.569,9.006-5.017,7.346-18.721-2.6-21.367-2.676-.712-9.942-.734-12.687-.194-.683.134-2.143.8-2.6.8a1.643,1.643,0,0,1-1.011-.533m25.852,16.7h3.458l2.5,2.34c.016-1.327-.247-2.25,1.344-2.433,2.321-.267,3.577-.339,5.67-1.564,8.993-5.262,6.943-19.012-3.183-21.371-2.38-.555-8.306-.434-10.91-.271-2.51.157-6.53,1.927-7.926,4.095a.451.451,0,0,0-.1.377c8.131,1.9,12.524,11.213,9.15,18.827" transform="translate(-18.018 -68.731)" fill="#030303"/>
            <path id="Path_979886" data-name="Path 979886" d="M73.64,58.318a11.1,11.1,0,0,1,7.611,1.9,10.192,10.192,0,0,1,1.566,1.412,1.1,1.1,0,0,1-1.1,1.636c-.4-.066-1.43-1.1-1.9-1.408a8.786,8.786,0,0,0-10.239.381c-.614.447-1.08,1.373-2.015.914-.775-.38-.716-1.177-.24-1.785,1.177-1.5,4.439-2.871,6.31-3.051" transform="translate(-52.704 -45.964)" fill="#030303"/>
            <path id="Path_979887" data-name="Path 979887" d="M166.565,29.431a11.059,11.059,0,0,1,7.227,1.858c.76.523,2.2,1.47,1.706,2.5-.754,1.574-2.147-.182-2.876-.692a8.771,8.771,0,0,0-9.773-.148c-.574.367-1.584,1.47-2.163,1.454a1.071,1.071,0,0,1-.967-1.5,6.144,6.144,0,0,1,1.451-1.421,11.229,11.229,0,0,1,5.4-2.051" transform="translate(-125.628 -23.245)" fill="#030303"/>
            <path id="Path_979888" data-name="Path 979888" d="M184.068,53.781c-.971.98-1.866-.439-2.762-.835a4.209,4.209,0,0,0-4.258.464c-.612.387-1.147,1.256-1.989.356-1.336-1.428,2-2.959,3.084-3.2a6.446,6.446,0,0,1,3.832.325c.9.351,3.216,1.752,2.093,2.886" transform="translate(-137.508 -39.792)" fill="#040404"/>
            <path id="Path_979889" data-name="Path 979889" d="M86.263,79.331a6.466,6.466,0,0,1,4.919,1.405c.572.507,1.043,1.037.514,1.793-.756,1.08-1.67-.057-2.288-.445a4.228,4.228,0,0,0-4.795.171c-.263.167-.508.533-.767.615a1.052,1.052,0,0,1-1.232-1.656,6.173,6.173,0,0,1,3.649-1.883" transform="translate(-64.797 -62.511)" fill="#030303"/>
            <path id="Path_979890" data-name="Path 979890" d="M42.318,134.532c.9,1-.632,2.484-1.6,1.6a2.167,2.167,0,0,1-.327-.8,1.128,1.128,0,0,1,1.923-.8" transform="translate(-31.785 -105.722)" fill="#070707"/>
            <path id="Path_979891" data-name="Path 979891" d="M52.278,166.624c4.433-.7,5.1,5.877,1.027,6.344-4.242.486-4.921-5.73-1.027-6.344m.316,2.124a1.07,1.07,0,0,0,.482,2.082,1.07,1.07,0,1,0-.482-2.082" transform="translate(-39.114 -131.194)" fill="#020303"/>
            <path id="Path_979892" data-name="Path 979892" d="M92.214,166.624c4.433-.7,5.1,5.877,1.027,6.344-4.242.486-4.921-5.73-1.027-6.344m.316,2.124a1.07,1.07,0,0,0,.482,2.082,1.07,1.07,0,1,0-.482-2.082" transform="translate(-70.539 -131.194)" fill="#020303"/>
            <path id="Path_979893" data-name="Path 979893" d="M132.15,166.624c4.433-.7,5.1,5.877,1.027,6.344-4.242.486-4.921-5.73-1.027-6.344m.316,2.124a1.07,1.07,0,0,0,.483,2.082,1.07,1.07,0,1,0-.483-2.082" transform="translate(-101.964 -131.194)" fill="#020303"/>
            <path id="Path_979894" data-name="Path 979894" d="M146.894,121.09c3.374-7.613-1.019-16.929-9.15-18.827a.45.45,0,0,1,.1-.377c1.4-2.168,5.415-3.938,7.926-4.095,2.6-.163,8.53-.284,10.91.271,10.126,2.359,12.175,16.109,3.183,21.371-2.092,1.225-3.349,1.3-5.67,1.564-1.591.183-1.328,1.106-1.344,2.433l-2.5-2.34Z" transform="translate(-108.382 -76.964)" fill="#fdcc68"/>
            <path id="Path_979895" data-name="Path 979895" d="M60.372,176.649a1.069,1.069,0,1,1,.482,2.082,1.069,1.069,0,0,1-.482-2.082" transform="translate(-46.892 -139.096)" fill="#32d0ee"/>
            <path id="Path_979896" data-name="Path 979896" d="M100.308,176.649a1.069,1.069,0,1,1,.482,2.082,1.069,1.069,0,0,1-.482-2.082" transform="translate(-78.317 -139.096)" fill="#32d0ee"/>
            <path id="Path_979897" data-name="Path 979897" d="M140.244,176.649a1.069,1.069,0,1,1,.482,2.082,1.069,1.069,0,0,1-.482-2.082" transform="translate(-109.742 -139.096)" fill="#32d0ee"/>
          </g>
        </g>
      </g>
    </g>
  </g>
</svg>
