<svg xmlns="http://www.w3.org/2000/svg" xmlns:xlink="http://www.w3.org/1999/xlink" width="108" height="108" viewBox="0 0 108 108">
  <defs>
    <filter id="Path_978624" x="0" y="0" width="108" height="108" filterUnits="userSpaceOnUse">
      <feOffset dy="3" input="SourceAlpha"/>
      <feGaussianBlur stdDeviation="3" result="blur"/>
      <feFlood flood-opacity="0.161"/>
      <feComposite operator="in" in2="blur"/>
      <feComposite in="SourceGraphic"/>
    </filter>
  </defs>
  <g id="Group_1157281" data-name="Group 1157281" transform="translate(-316 -4106)">
    <g id="Group_1157162" data-name="Group 1157162" transform="translate(114 1149)">
      <g transform="matrix(1, 0, 0, 1, 202, 2957)" filter="url(#Path_978624)">
        <g id="Path_978624-2" data-name="Path 978624" transform="translate(9 6)" fill="#fdf6ea">
          <path d="M 45 88.5 C 39.12687683105469 88.5 33.43022537231445 87.35007476806641 28.06830024719238 85.08217620849609 C 22.88852500915527 82.89131164550781 18.23629951477051 79.75458526611328 14.2408504486084 75.75914764404297 C 10.24541282653809 71.76370239257812 7.108687400817871 67.11147308349609 4.917825222015381 61.93170166015625 C 2.649924993515015 56.56977462768555 1.5 50.87312316894531 1.5 45 C 1.5 39.12687683105469 2.649924993515015 33.43022537231445 4.917825222015381 28.06830024719238 C 7.108687400817871 22.88852500915527 10.24541282653809 18.23629951477051 14.2408504486084 14.2408504486084 C 18.23629951477051 10.24541282653809 22.88852500915527 7.108687400817871 28.06830024719238 4.917825222015381 C 33.43022537231445 2.649924993515015 39.12687683105469 1.5 45 1.5 C 50.87312316894531 1.5 56.56977462768555 2.649924993515015 61.93170166015625 4.917825222015381 C 67.11147308349609 7.108687400817871 71.76370239257812 10.24541282653809 75.75914764404297 14.2408504486084 C 79.75458526611328 18.23629951477051 82.89131164550781 22.88852500915527 85.08217620849609 28.06830024719238 C 87.35007476806641 33.43022537231445 88.5 39.12687683105469 88.5 45 C 88.5 50.87312316894531 87.35007476806641 56.56977462768555 85.08217620849609 61.93170166015625 C 82.89131164550781 67.11147308349609 79.75458526611328 71.76370239257812 75.75914764404297 75.75914764404297 C 71.76370239257812 79.75458526611328 67.11147308349609 82.89131164550781 61.93170166015625 85.08217620849609 C 56.56977462768555 87.35007476806641 50.87312316894531 88.5 45 88.5 Z" stroke="none"/>
          <path d="M 45 3 C 39.32871246337891 3 33.82865524291992 4.110054016113281 28.65262985229492 6.299339294433594 C 23.65165710449219 8.414573669433594 19.15968322753906 11.44334411621094 15.301513671875 15.301513671875 C 11.44334411621094 19.15968322753906 8.414573669433594 23.65165710449219 6.299339294433594 28.65262985229492 C 4.110054016113281 33.82865524291992 3 39.32871246337891 3 45 C 3 50.67128753662109 4.110054016113281 56.17134475708008 6.299339294433594 61.34737396240234 C 8.414573669433594 66.34834289550781 11.44334411621094 70.84031677246094 15.301513671875 74.698486328125 C 19.15968322753906 78.55665588378906 23.65165710449219 81.58542633056641 28.65262985229492 83.70066070556641 C 33.82865524291992 85.88994598388672 39.32871246337891 87 45 87 C 50.67128753662109 87 56.17134475708008 85.88994598388672 61.34737396240234 83.70066070556641 C 66.34834289550781 81.58542633056641 70.84031677246094 78.55665588378906 74.698486328125 74.698486328125 C 78.55665588378906 70.84031677246094 81.58542633056641 66.34834289550781 83.70066070556641 61.34737396240234 C 85.88994598388672 56.17134475708008 87 50.67128753662109 87 45 C 87 39.32871246337891 85.88994598388672 33.82865524291992 83.70066070556641 28.65262985229492 C 81.58542633056641 23.65165710449219 78.55665588378906 19.15968322753906 74.698486328125 15.301513671875 C 70.84031677246094 11.44334411621094 66.34834289550781 8.414573669433594 61.34737396240234 6.299339294433594 C 56.17134475708008 4.110054016113281 50.67128753662109 3 45 3 M 45 0 C 69.85281372070312 0 90 20.14718627929688 90 45 C 90 69.85281372070312 69.85281372070312 90 45 90 C 20.14718627929688 90 0 69.85281372070312 0 45 C 0 20.14718627929688 20.14718627929688 0 45 0 Z" stroke="none" fill="#ecae3b"/>
        </g>
      </g>
      <g id="analisis" transform="translate(230.845 2976.957)">
        <g id="Group_1150831" data-name="Group 1150831" transform="translate(0.766 7.324)">
          <g id="Group_1150829" data-name="Group 1150829">
            <path id="Path_989720" data-name="Path 989720" d="M7.5,49.016V80.63a1.4,1.4,0,0,0,1.4,1.4H50.209a1.4,1.4,0,0,0,1.4-1.4V49.016a1.4,1.4,0,0,0-1.4-1.4H8.9A1.4,1.4,0,0,0,7.5,49.016Z" transform="translate(-7.5 -44.186)" fill="#ebeef2"/>
            <path id="Path_989721" data-name="Path 989721" d="M403.226,47.616h-2.537a1.4,1.4,0,0,1,1.4,1.4V80.63a1.4,1.4,0,0,1-1.4,1.4h2.537a1.4,1.4,0,0,0,1.4-1.4V49.017A1.4,1.4,0,0,0,403.226,47.616Z" transform="translate(-360.517 -44.187)" fill="#d1d6de"/>
            <g id="Group_1150828" data-name="Group 1150828" transform="translate(9.718 7.816)">
              <g id="Group_1150824" data-name="Group 1150824" transform="translate(0 9.826)">
                <circle id="Ellipse_11552" data-name="Ellipse 11552" cx="1.788" cy="1.788" r="1.788" fill="#5c9cee"/>
              </g>
              <g id="Group_1150825" data-name="Group 1150825" transform="translate(7.033 5.832)">
                <circle id="Ellipse_11553" data-name="Ellipse 11553" cx="1.788" cy="1.788" r="1.788" fill="#f2df33"/>
              </g>
              <g id="Group_1150826" data-name="Group 1150826" transform="translate(14.066 9.826)">
                <circle id="Ellipse_11554" data-name="Ellipse 11554" cx="1.788" cy="1.788" r="1.788" fill="#ed5575"/>
              </g>
              <g id="Group_1150827" data-name="Group 1150827" transform="translate(21.099)">
                <circle id="Ellipse_11555" data-name="Ellipse 11555" cx="1.788" cy="1.788" r="1.788" fill="#9fd479"/>
              </g>
            </g>
            <path id="Path_989722" data-name="Path 989722" d="M80.428,386.918v-2.453h29.208v2.453a.976.976,0,0,1-.976.976H81.4A.976.976,0,0,1,80.428,386.918Z" transform="translate(-72.977 -346.621)" fill="#f2df33"/>
            <path id="Path_989723" data-name="Path 989723" d="M333.483,384.465v2.453a.976.976,0,0,1-.976.976h2.478a.976.976,0,0,0,.976-.976v-2.453Z" transform="translate(-299.301 -346.621)" fill="#fcab29"/>
            <path id="Path_989724" data-name="Path 989724" d="M189.243,17.486V15.213a1.156,1.156,0,0,1,1.156-1.156h4.661a1.156,1.156,0,0,1,1.156,1.156v2.272h-6.973Z" transform="translate(-170.674 -14.057)" fill="#f2df33"/>
            <path id="Path_989725" data-name="Path 989725" d="M224.251,14.058h-2.5a1.156,1.156,0,0,1,1.156,1.156v2.272h2.5V15.214A1.156,1.156,0,0,0,224.251,14.058Z" transform="translate(-199.866 -14.058)" fill="#fcab29"/>
            <rect id="Rectangle_408006" data-name="Rectangle 408006" width="3.109" height="6.771" transform="translate(9.952 26.668)" fill="#48cfb7"/>
            <rect id="Rectangle_408007" data-name="Rectangle 408007" width="3.109" height="10.687" transform="translate(16.984 22.752)" fill="#48cfb7"/>
            <rect id="Rectangle_408008" data-name="Rectangle 408008" width="3.109" height="6.771" transform="translate(24.017 26.668)" fill="#48cfb7"/>
            <rect id="Rectangle_408009" data-name="Rectangle 408009" width="3.109" height="13.741" transform="translate(31.05 19.699)" fill="#48cfb7"/>
          </g>
          <g id="Group_1150830" data-name="Group 1150830" transform="translate(30.192 14.089)">
            <path id="Path_989726" data-name="Path 989726" d="M409.456,293.208l5.7,9.88a2.147,2.147,0,0,0,2.932.786h0a2.147,2.147,0,0,0,.786-2.932l-5.7-9.88Z" transform="translate(-398.581 -276.849)" fill="#ed5575"/>
            <path id="Path_989727" data-name="Path 989727" d="M413.174,291.06l-3.718,2.147,2.224,3.851a11.69,11.69,0,0,0,3.718-2.147Z" transform="translate(-398.581 -276.848)" fill="#cc3a60"/>
            <circle id="Ellipse_11556" data-name="Ellipse 11556" cx="9.249" cy="9.249" r="9.249" fill="#f2df33"/>
            <circle id="Ellipse_11557" data-name="Ellipse 11557" cx="6.509" cy="6.509" r="6.509" transform="translate(2.74 2.74)" fill="#5c9cee"/>
          </g>
        </g>
        <g id="Group_1150832" data-name="Group 1150832" transform="translate(0 6.558)">
          <path id="Path_989728" data-name="Path 989728" d="M118.771,88.17a2.557,2.557,0,1,0-2.041-1.02l-4.2,5.865a2.547,2.547,0,0,0-2.534.558l-2.8-1.587a2.554,2.554,0,1,0-4.994,0l-2.8,1.587a2.55,2.55,0,1,0,.758,1.332l2.8-1.587a2.548,2.548,0,0,0,3.477,0l2.8,1.587a2.554,2.554,0,1,0,4.538-1l4.2-5.865A2.546,2.546,0,0,0,118.771,88.17Zm0-3.576a1.022,1.022,0,1,1-1.022,1.022A1.023,1.023,0,0,1,118.771,84.594Zm-21.1,11.869a1.022,1.022,0,1,1,1.022-1.022A1.023,1.023,0,0,1,97.672,96.463Zm7.033-3.993a1.022,1.022,0,1,1,1.022-1.022A1.023,1.023,0,0,1,104.7,92.469Zm7.033,3.993a1.022,1.022,0,1,1,1.022-1.022A1.023,1.023,0,0,1,111.738,96.463Z" transform="translate(-85.4 -75.245)"/>
          <path id="Path_989729" data-name="Path 989729" d="M42.788,74.532H2.168a.636.636,0,0,1-.635-.635V42.284a.636.636,0,0,1,.635-.635H5.78a.766.766,0,1,0,0-1.533H2.168A2.17,2.17,0,0,0,0,42.284V73.9a2.17,2.17,0,0,0,2.168,2.168H7.451v1.686a1.744,1.744,0,0,0,1.742,1.742h7.67l-3.611,7.049a.766.766,0,1,0,1.364.7l3.969-7.748h8.472l3.969,7.748a.766.766,0,1,0,1.364-.7l-3.611-7.049h7.67a1.744,1.744,0,0,0,1.742-1.742V76.064h4.6a.766.766,0,0,0,0-1.533Zm-6.129,3.219a.21.21,0,0,1-.21.21H9.193a.21.21,0,0,1-.21-.21V76.064H36.659Z" transform="translate(0 -36.687)"/>
          <path id="Path_989730" data-name="Path 989730" d="M79.837,11.519h34.63a.636.636,0,0,1,.635.635V19.44a.766.766,0,0,0,1.533,0V12.154a2.17,2.17,0,0,0-2.168-2.168h-16.4V8.48a1.925,1.925,0,0,0-1.923-1.922H91.483A1.925,1.925,0,0,0,89.561,8.48V9.987H79.837a.766.766,0,1,0,0,1.533ZM91.093,8.48a.39.39,0,0,1,.39-.39h4.661a.39.39,0,0,1,.39.39V9.987H91.094V8.48Z" transform="translate(-70.992 -6.558)"/>
          <path id="Path_989731" data-name="Path 989731" d="M98.168,267.576a.766.766,0,0,0-.766.766v6.771a.766.766,0,0,0,.766.766h3.109a.766.766,0,0,0,.766-.766v-6.771a.766.766,0,0,0-.766-.766Zm2.342,6.771H98.935v-5.238h1.576Z" transform="translate(-87.45 -240.908)"/>
          <path id="Path_989732" data-name="Path 989732" d="M167,229.248a.766.766,0,0,0-.766.766V240.7a.766.766,0,0,0,.766.766h3.109a.766.766,0,0,0,.766-.766V230.014a.766.766,0,0,0-.766-.766Zm2.343,10.687H167.77v-9.155h1.576Z" transform="translate(-149.253 -206.496)"/>
          <path id="Path_989733" data-name="Path 989733" d="M235.839,267.576a.766.766,0,0,0-.766.766v6.771a.766.766,0,0,0,.766.766h3.109a.766.766,0,0,0,.766-.766v-6.771a.766.766,0,0,0-.766-.766Zm2.342,6.771h-1.576v-5.238h1.576Z" transform="translate(-211.056 -240.908)"/>
          <path id="Path_989734" data-name="Path 989734" d="M304.675,311.832a.766.766,0,0,0-.766.766v2.249a.766.766,0,0,0,.766.766h3.109a.766.766,0,0,0,0-1.533h-2.342V312.6A.766.766,0,0,0,304.675,311.832Z" transform="translate(-272.859 -280.642)"/>
          <path id="Path_989735" data-name="Path 989735" d="M317.258,168.948l-4.4-7.614a10.02,10.02,0,1,0-9.908,2.828,10.07,10.07,0,0,0,2.608.346,9.89,9.89,0,0,0,2.256-.261l4.4,7.614a2.913,2.913,0,1,0,5.045-2.913Zm-13.908-6.267a8.483,8.483,0,1,1,6.437-.847A8.428,8.428,0,0,1,303.351,162.681Zm12.076,8.919a1.382,1.382,0,0,1-1.886-.5l-4.229-7.326a10.057,10.057,0,0,0,2.389-1.381l4.23,7.326a1.379,1.379,0,0,1-.5,1.886Z" transform="translate(-265.338 -130.383)"/>
          <path id="Path_989736" data-name="Path 989736" d="M336.526,180.679a7.252,7.252,0,0,0-.363-5.253.766.766,0,1,0-1.386.653,5.739,5.739,0,1,1-1.73-2.138.766.766,0,1,0,.925-1.222,7.277,7.277,0,1,0,2.555,7.96Z" transform="translate(-289.371 -154.416)"/>
        </g>
      </g>
    </g>
  </g>
</svg>
