<svg xmlns="http://www.w3.org/2000/svg" xmlns:xlink="http://www.w3.org/1999/xlink" width="94.915" height="94.915" viewBox="0 0 94.915 94.915">
  <defs>
    <filter id="Path_982547" x="0" y="0" width="94.915" height="94.915" filterUnits="userSpaceOnUse">
      <feOffset dy="3" input="SourceAlpha"/>
      <feGaussianBlur stdDeviation="3" result="blur"/>
      <feFlood flood-opacity="0.161"/>
      <feComposite operator="in" in2="blur"/>
      <feComposite in="SourceGraphic"/>
    </filter>
  </defs>
  <g id="Group_1157296" data-name="Group 1157296" transform="translate(-199.085 -2426)">
    <g id="Group_1157169" data-name="Group 1157169" transform="translate(-1032.719 1104.627)">
      <g id="Group_1156563" data-name="Group 1156563" transform="translate(1240.804 1327.373)">
        <g id="Group_1155739" data-name="Group 1155739">
          <g id="Group_1153134" data-name="Group 1153134">
            <g id="Group_1149598" data-name="Group 1149598">
              <g id="Group_1148770" data-name="Group 1148770">
                <g id="Group_1146954" data-name="Group 1146954">
                  <g transform="matrix(1, 0, 0, 1, -9, -6)" filter="url(#Path_982547)">
                    <g id="Path_982547-2" data-name="Path 982547" transform="translate(9 6)" fill="#f2f7f5">
                      <path d="M 38.45751953125 75.4150390625 C 33.46763229370117 75.4150390625 28.62778663635254 74.43809509277344 24.07244110107422 72.5113525390625 C 19.6717529296875 70.65000915527344 15.71920871734619 67.98503112792969 12.32460880279541 64.59043121337891 C 8.930008888244629 61.19583129882812 6.265030860900879 57.2432861328125 4.403686046600342 52.84259796142578 C 2.476941823959351 48.28725433349609 1.49999725818634 43.44740676879883 1.49999725818634 38.45751953125 C 1.49999725818634 33.46763229370117 2.476941823959351 28.62778663635254 4.403686046600342 24.07244110107422 C 6.265030860900879 19.6717529296875 8.930008888244629 15.71920871734619 12.32460880279541 12.32460880279541 C 15.71920871734619 8.930008888244629 19.6717529296875 6.265030860900879 24.07244110107422 4.403686046600342 C 28.62778663635254 2.476941823959351 33.46763229370117 1.49999725818634 38.45751953125 1.49999725818634 C 43.44740676879883 1.49999725818634 48.28725433349609 2.476941823959351 52.84259796142578 4.403686046600342 C 57.2432861328125 6.265030860900879 61.19583129882812 8.930008888244629 64.59043121337891 12.32460880279541 C 67.98503112792969 15.71920871734619 70.65000915527344 19.6717529296875 72.5113525390625 24.07244110107422 C 74.43809509277344 28.62778663635254 75.4150390625 33.46763229370117 75.4150390625 38.45751953125 C 75.4150390625 43.44740676879883 74.43809509277344 48.28725433349609 72.5113525390625 52.84259796142578 C 70.65000915527344 57.2432861328125 67.98503112792969 61.19583129882812 64.59043121337891 64.59043121337891 C 61.19583129882812 67.98503112792969 57.2432861328125 70.65000915527344 52.84259796142578 72.5113525390625 C 48.28725433349609 74.43809509277344 43.44740676879883 75.4150390625 38.45751953125 75.4150390625 Z" stroke="none"/>
                      <path d="M 38.45751953125 2.999992370605469 C 33.66946792602539 2.999992370605469 29.02621841430664 3.93707275390625 24.65676879882812 5.785194396972656 C 20.43486785888672 7.570907592773438 16.64259338378906 10.12794494628906 13.38526916503906 13.38526916503906 C 10.12794494628906 16.64259338378906 7.570907592773438 20.43486785888672 5.785194396972656 24.65676879882812 C 3.93707275390625 29.02621841430664 2.999992370605469 33.66946792602539 2.999992370605469 38.45751953125 C 2.999992370605469 43.24557113647461 3.93707275390625 47.88881683349609 5.785194396972656 52.25827026367188 C 7.570907592773438 56.48015594482422 10.1279296875 60.27244567871094 13.38526916503906 63.52976989746094 C 16.64259338378906 66.78709411621094 20.43486785888672 69.3441162109375 24.65676879882812 71.12982940673828 C 29.02621841430664 72.97795867919922 33.66945648193359 73.91503143310547 38.45751953125 73.91503143310547 C 43.24557113647461 73.91503143310547 47.88881683349609 72.97795867919922 52.25827026367188 71.12982940673828 C 56.48015594482422 69.3441162109375 60.27244567871094 66.78709411621094 63.52976989746094 63.52976989746094 C 66.78709411621094 60.27244567871094 69.3441162109375 56.48015594482422 71.12982940673828 52.25827026367188 C 72.97795867919922 47.88881683349609 73.91503143310547 43.24557113647461 73.91503143310547 38.45751953125 C 73.91503143310547 33.66945648193359 72.97795867919922 29.02621841430664 71.12982940673828 24.65676879882812 C 69.3441162109375 20.43486785888672 66.78709411621094 16.64259338378906 63.52976989746094 13.38526916503906 C 60.27244567871094 10.1279296875 56.48015594482422 7.570907592773438 52.25827026367188 5.785194396972656 C 47.88881683349609 3.93707275390625 43.24557113647461 2.999992370605469 38.45751953125 2.999992370605469 M 38.45751953125 -7.62939453125e-06 C 59.697021484375 -7.62939453125e-06 76.91503143310547 17.21802139282227 76.91503143310547 38.45751953125 C 76.91503143310547 59.697021484375 59.697021484375 76.91503143310547 38.45751953125 76.91503143310547 C 17.21802139282227 76.91503143310547 -7.62939453125e-06 59.697021484375 -7.62939453125e-06 38.45751953125 C -7.62939453125e-06 17.21802139282227 17.21802139282227 -7.62939453125e-06 38.45751953125 -7.62939453125e-06 Z" stroke="none" fill="#88bba9"/>
                    </g>
                  </g>
                </g>
              </g>
            </g>
          </g>
        </g>
        <g id="recursos-humanos" transform="translate(14.528 15.383)">
          <g id="Group_1156561" data-name="Group 1156561" transform="translate(1.403 0.751)">
            <g id="Group_1156543" data-name="Group 1156543" transform="translate(23.288 24.039)">
              <path id="Path_990759" data-name="Path 990759" d="M37.375,39.01H32.868a7.623,7.623,0,0,1,5.086-5.95l.173-.06a6.936,6.936,0,0,0,2.727,3.568l.278.188.278-.188A6.936,6.936,0,0,0,44.136,33l.947.316A5.232,5.232,0,0,1,48.411,36.7a5.336,5.336,0,0,1,.233,1.555,3.745,3.745,0,0,1-3.756,3.756H38.127V39.761A.753.753,0,0,0,37.375,39.01Z" transform="translate(-32.868 -33)" fill="#b4dd7f"/>
            </g>
            <g id="Group_1156544" data-name="Group 1156544" transform="translate(16.527 30.049)">
              <path id="Path_990760" data-name="Path 990760" d="M35.888,41.751V44H23.868V41.751A.753.753,0,0,1,24.619,41H35.136A.753.753,0,0,1,35.888,41.751Z" transform="translate(-23.868 -41)" fill="#aab2bd"/>
            </g>
            <g id="Group_1156545" data-name="Group 1156545" transform="translate(28.547 36.059)">
              <path id="Path_990761" data-name="Path 990761" d="M53.39,49v8.264a.753.753,0,0,1-.751.751H39.868V49Z" transform="translate(-39.868 -49)" fill="#cf9e76"/>
            </g>
            <g id="Group_1156546" data-name="Group 1156546" transform="translate(3.005 36.059)">
              <path id="Path_990762" data-name="Path 990762" d="M31.41,49v9.015H6.619a.753.753,0,0,1-.751-.751V49Z" transform="translate(-5.868 -49)" fill="#cf9e76"/>
            </g>
            <g id="Group_1156547" data-name="Group 1156547" transform="translate(1.502 33.054)">
              <path id="Path_990763" data-name="Path 990763" d="M45.937,45.751v1.5a.753.753,0,0,1-.751.751H4.619a.753.753,0,0,1-.751-.751v-1.5A.753.753,0,0,1,4.619,45H45.186A.753.753,0,0,1,45.937,45.751Z" transform="translate(-3.868 -45)" fill="#b27946"/>
            </g>
            <g id="Group_1156548" data-name="Group 1156548" transform="translate(5.259 24.039)">
              <path id="Path_990764" data-name="Path 990764" d="M16,37.507l1.127,4.507H8.868l.751-4.507.646-3.876A.751.751,0,0,1,11.009,33h3.283a.747.747,0,0,1,.729.571Z" transform="translate(-8.868 -33)" fill="#656d78"/>
            </g>
            <g id="Group_1156549" data-name="Group 1156549" transform="translate(16.527 16.527)">
              <path id="Path_990765" data-name="Path 990765" d="M26.873,23.751V34.268a.753.753,0,0,1-.751.751H23.868V23h2.254A.753.753,0,0,1,26.873,23.751Z" transform="translate(-23.868 -23)" fill="#969faa"/>
            </g>
            <g id="Group_1156550" data-name="Group 1156550" transform="translate(0 16.527)">
              <path id="Path_990766" data-name="Path 990766" d="M18.4,23V35.02H14.263l-.984-3.936a.747.747,0,0,0-.729-.571H9.268a.751.751,0,0,0-.744.631L7.878,35.02H2.619a.753.753,0,0,1-.751-.751V23.751A.753.753,0,0,1,2.619,23H18.4Z" transform="translate(-1.868 -23)" fill="#ccd1d9"/>
            </g>
            <g id="Group_1156551" data-name="Group 1156551" transform="translate(13.522 12.02)">
              <path id="Path_990767" data-name="Path 990767" d="M22.873,17.751v3.756h-3V17.751A.753.753,0,0,1,20.619,17h1.5A.753.753,0,0,1,22.873,17.751Z" transform="translate(-19.868 -17)" fill="#ef7385"/>
            </g>
            <g id="Group_1156552" data-name="Group 1156552" transform="translate(7.512 10.517)">
              <path id="Path_990768" data-name="Path 990768" d="M14.873,15.751V21.01h-3V15.751A.753.753,0,0,1,12.619,15h1.5A.753.753,0,0,1,14.873,15.751Z" transform="translate(-11.868 -15)" fill="#ef7385"/>
            </g>
            <g id="Group_1156553" data-name="Group 1156553" transform="translate(0 1.502)">
              <path id="Path_990769" data-name="Path 990769" d="M4.873,3l3,4.507h-1.5V18.025h-3V7.507h-1.5Z" transform="translate(-1.868 -3)" fill="#ef7385"/>
            </g>
            <g id="Group_1156554" data-name="Group 1156554" transform="translate(28.547 22.154)">
              <path id="Path_990770" data-name="Path 990770" d="M40.5,30.49a7.546,7.546,0,0,0,4.748,0l.631,1.886a6.936,6.936,0,0,1-2.727,3.568l-.278.188-.278-.188a6.935,6.935,0,0,1-2.727-3.568Z" transform="translate(-39.868 -30.49)" fill="#f5e0cd"/>
            </g>
            <g id="Group_1156555" data-name="Group 1156555" transform="translate(39.064 12.02)">
              <path id="Path_990771" data-name="Path 990771" d="M53.868,18.69V17h1.5a1.507,1.507,0,0,1,1.5,1.5,1.513,1.513,0,0,1-1.5,1.5H53.943A10.929,10.929,0,0,1,53.868,18.69Z" transform="translate(-53.868 -17)" fill="#f5e0cd"/>
            </g>
            <g id="Group_1156556" data-name="Group 1156556" transform="translate(24.039 6.01)">
              <path id="Path_990772" data-name="Path 990772" d="M48.893,15.01v3a7.512,7.512,0,1,1-15.025,0v-3A4.5,4.5,0,0,1,36.7,10.871L41.38,9l4.68,1.871A4.5,4.5,0,0,1,48.893,15.01Z" transform="translate(-33.868 -9)" fill="#f5e0cd"/>
            </g>
            <g id="Group_1156557" data-name="Group 1156557" transform="translate(21.034 12.02)">
              <path id="Path_990773" data-name="Path 990773" d="M32.873,17v1.69A10.93,10.93,0,0,1,32.8,20H31.37a1.513,1.513,0,0,1-1.5-1.5,1.507,1.507,0,0,1,1.5-1.5Z" transform="translate(-29.868 -17)" fill="#f5e0cd"/>
            </g>
            <g id="Group_1156558" data-name="Group 1156558" transform="translate(22.537 15.025)">
              <path id="Path_990774" data-name="Path 990774" d="M33.37,33.771V29.677a2.827,2.827,0,0,0-.826-1.991,2.3,2.3,0,0,1-.676-1.63,2.358,2.358,0,0,1,.24-1.037A11.65,11.65,0,0,0,33.3,21h.075a7.516,7.516,0,0,0,5.138,7.129l-.631,1.886-.173.06a7.561,7.561,0,0,0-4.327,3.7Z" transform="translate(-31.868 -21)" fill="#fcd770"/>
            </g>
            <g id="Group_1156559" data-name="Group 1156559" transform="translate(33.926 15.025)">
              <path id="Path_990775" data-name="Path 990775" d="M53.789,33.538l-1.856.18a5.232,5.232,0,0,0-3.328-3.388l-.947-.316-.631-1.886A7.516,7.516,0,0,0,52.166,21h1.5l.9,1.81a5.732,5.732,0,0,0,1.668,2,4.887,4.887,0,0,1,1.435,1.705,4.834,4.834,0,0,1,.518,2.164v.015a4.869,4.869,0,0,1-4.4,4.845Z" transform="translate(-47.028 -21)" fill="#fcd770"/>
            </g>
            <g id="Group_1156560" data-name="Group 1156560" transform="translate(22.537)">
              <path id="Path_990776" data-name="Path 990776" d="M33.37,13.02h-1.5V9.264A8.259,8.259,0,0,1,40.132,1h1.5A8.259,8.259,0,0,1,49.9,9.264V13.02H48.4A4.5,4.5,0,0,0,45.563,8.88L40.883,7.01,36.2,8.88A4.5,4.5,0,0,0,33.37,13.02Z" transform="translate(-31.868 -1)" fill="#fcd770"/>
            </g>
          </g>
          <g id="Group_1156562" data-name="Group 1156562" transform="translate(0 0)">
            <path id="Path_990777" data-name="Path 990777" d="M44.223,33.054H40.062a4.484,4.484,0,0,0,1.157-3,5.971,5.971,0,0,0-.071-.886l1.016-.1a5.616,5.616,0,0,0,2.828-10.084,4.926,4.926,0,0,1-1.446-1.732l-.5-1.007a2.237,2.237,0,0,0-.322-4.084V9.015A9.025,9.025,0,0,0,33.705,0H32.2a9.025,9.025,0,0,0-9.015,9.015v3.143a2.248,2.248,0,0,0,.751,4.369h.539a11.185,11.185,0,0,1-.968,2.934,3.064,3.064,0,0,0,.574,3.533,2.051,2.051,0,0,1,.606,1.462v1.086h1.5V24.456a3.543,3.543,0,0,0-1.046-2.525,1.561,1.561,0,0,1-.291-1.8c.184-.367.345-.746.492-1.13a8.307,8.307,0,0,0,4.294,4.339l-.286.859a8.305,8.305,0,0,0-5.256,5.85H20.184a1.5,1.5,0,0,0,1.5-1.5V18.03a1.5,1.5,0,0,0-1.5-1.5h-1.5v-3a1.5,1.5,0,0,0-1.5-1.5h-1.5a1.5,1.5,0,0,0-1.5,1.5v3h-1.5V12.02a1.5,1.5,0,0,0-1.5-1.5h-1.5a1.5,1.5,0,0,0-1.5,1.5v4.507h-1.5V7.512H8.816L4.408.9,0,7.512H2.155v9.015a1.5,1.5,0,0,0-1.5,1.5V28.547a1.5,1.5,0,0,0,1.5,1.5H6.526l-.5,3H3.657a1.5,1.5,0,0,0-1.5,1.5v1.5a1.5,1.5,0,0,0,1.5,1.5v7.512a1.5,1.5,0,0,0,1.5,1.5H42.721a1.5,1.5,0,0,0,1.5-1.5V37.562a1.5,1.5,0,0,0,1.5-1.5v-1.5a1.5,1.5,0,0,0-1.5-1.5Zm-.132-12.87a4.114,4.114,0,0,1-2.072,7.386l-1.3.125a5.938,5.938,0,0,0-3.575-3.3l-.587-.2-.285-.856A8.313,8.313,0,0,0,40.563,19c.146.384.308.762.491,1.128a1.56,1.56,0,0,1-.291,1.8,3.546,3.546,0,0,0-1.046,2.525v1.086h1.5V24.456a2.053,2.053,0,0,1,.606-1.463,3.064,3.064,0,0,0,.573-3.535,11.173,11.173,0,0,1-.968-2.932h.075l.7,1.394a6.437,6.437,0,0,0,1.888,2.263ZM41.97,15.025h-.718c-.01-.187-.033-.373-.033-.56v-.942h.751a.751.751,0,1,1,0,1.5ZM24.691,9.015A7.521,7.521,0,0,1,32.2,1.5h1.5a7.521,7.521,0,0,1,7.512,7.512v2.438a8.673,8.673,0,0,0-6.579-8.426l-.364,1.457a7.17,7.17,0,0,1,4.865,4.154,5.312,5.312,0,0,0-1.228-.7L32.955,5.951,28,7.935a5.283,5.283,0,0,0-1.228.7,7.169,7.169,0,0,1,4.865-4.154l-.364-1.457a8.673,8.673,0,0,0-6.579,8.426Zm-.751,6.01a.751.751,0,1,1,0-1.5h.751v.942c0,.187-.023.373-.033.56Zm2.254.751V12.818A3.738,3.738,0,0,1,28.555,9.33l4.4-1.76,4.4,1.759a3.739,3.739,0,0,1,2.361,3.488v2.958a6.761,6.761,0,1,1-13.522,0Zm6.761,8.264a8.223,8.223,0,0,0,1.887-.226l.316.949a6.2,6.2,0,0,1-2.2,2.879,6.2,6.2,0,0,1-2.2-2.879l.316-.949a8.228,8.228,0,0,0,1.887.226ZM29.53,25.76a7.715,7.715,0,0,0,2.731,3.227l.694.463.694-.463A7.713,7.713,0,0,0,36.4,25.728l.271.09a4.455,4.455,0,0,1,3.05,4.231,3.008,3.008,0,0,1-3,3H30.7v-1.5a1.53,1.53,0,0,0-.02-.2l3.347-.478.509,1.018,1.344-.672L35.375,30.2A9.581,9.581,0,0,1,37.8,28.466l-.672-1.344a11.058,11.058,0,0,0-2.885,2.08l-.138.137-4.957.709H25.64a6.8,6.8,0,0,1,3.89-4.289ZM29.2,31.552v1.5H18.682v-1.5Zm-12.02,0v1.5H15.511l-.751-3h3.921A1.5,1.5,0,0,0,17.179,31.552Zm3-13.522V28.547h-1.5V18.03Zm-4.507-4.507h1.5v3h-1.5Zm-6.01-1.5h1.5v4.507h-1.5ZM2.807,6.01l1.6-2.4,1.6,2.4h-.85V16.527h-1.5V6.01ZM2.155,28.547V18.03H17.179V28.547H14.385l-.842-3.369a1.5,1.5,0,0,0-1.457-1.138H8.8a1.5,1.5,0,0,0-1.482,1.255l-.542,3.252Zm6.646-3h3.285l1.878,7.512H7.549ZM5.159,37.562H29.2v7.512H5.159Zm37.562,7.512H30.7V37.562h12.02ZM3.657,36.059v-1.5H44.223v1.5Z" transform="translate(0 0)"/>
            <path id="Path_990778" data-name="Path 990778" d="M12.868,8h1.5V9.5h-1.5Z" transform="translate(-3.201 -1.99)"/>
            <path id="Path_990779" data-name="Path 990779" d="M16.868,8h1.5V9.5h-1.5Z" transform="translate(-4.196 -1.99)"/>
            <path id="Path_990780" data-name="Path 990780" d="M36.868,16h1.5v3h-1.5Z" transform="translate(-9.172 -3.98)"/>
            <path id="Path_990781" data-name="Path 990781" d="M48.868,16h1.5v3h-1.5Z" transform="translate(-12.157 -3.98)"/>
            <path id="Path_990782" data-name="Path 990782" d="M45.746,25.383l.079-.159-1.344-.672-.079.159a1.68,1.68,0,0,1-3,0l-.079-.159-1.344.672.079.158a3.182,3.182,0,0,0,5.693,0Z" transform="translate(-9.944 -6.108)"/>
          </g>
        </g>
      </g>
    </g>
  </g>
</svg>
