<svg xmlns="http://www.w3.org/2000/svg" xmlns:xlink="http://www.w3.org/1999/xlink" width="110" height="110" viewBox="0 0 110 110">
  <defs>
    <filter id="Path_982547" x="0" y="0" width="110" height="110" filterUnits="userSpaceOnUse">
      <feOffset dy="3" input="SourceAlpha"/>
      <feGaussianBlur stdDeviation="3" result="blur"/>
      <feFlood flood-opacity="0.161"/>
      <feComposite operator="in" in2="blur"/>
      <feComposite in="SourceGraphic"/>
    </filter>
  </defs>
  <g id="Group_1157581" data-name="Group 1157581" transform="translate(-620 -2219)">
    <g id="Group_1157015" data-name="Group 1157015" transform="translate(-180 1430)">
      <g id="Group_1155792" data-name="Group 1155792" transform="translate(-1 -3894.666)">
        <g id="Group_1154703" data-name="Group 1154703" transform="translate(0 1465.666)">
          <g id="Group_1150789" data-name="Group 1150789" transform="translate(3 2320)">
            <g id="Group_1154212" data-name="Group 1154212" transform="translate(-236 -5809)">
              <g id="Group_1152583" data-name="Group 1152583" transform="translate(1043 6713)">
                <g id="Group_1146973" data-name="Group 1146973" transform="translate(0 0)">
                  <g id="Group_1146954" data-name="Group 1146954">
                    <g transform="matrix(1, 0, 0, 1, -9, -6)" filter="url(#Path_982547)">
                      <g id="Path_982547-2" data-name="Path 982547" transform="translate(9 6)" fill="#e6f1ed">
                        <path d="M 46 90.49987030029297 C 39.99187850952148 90.49987030029297 34.16426849365234 89.32350921630859 28.67905426025391 87.00345611572266 C 23.38019943237305 84.76224517822266 18.62104034423828 81.55341339111328 14.53374671936035 77.46613311767578 C 10.44646644592285 73.37885284423828 7.237639904022217 68.61969757080078 4.996413230895996 63.32085418701172 C 2.676359891891479 57.83565521240234 1.5 52.008056640625 1.5 45.99993515014648 C 1.5 39.99181365966797 2.676359891891479 34.16421508789062 4.996413230895996 28.67901420593262 C 7.237639904022217 23.38017463684082 10.44646644592285 18.62101554870605 14.53374671936035 14.53373527526855 C 18.62104034423828 10.44645500183105 23.38019943237305 7.23762845993042 28.67905426025391 4.996415138244629 C 34.16426849365234 2.676361799240112 39.99187850952148 1.500001788139343 46 1.500001788139343 C 52.00812149047852 1.500001788139343 57.83573150634766 2.676361799240112 63.32094573974609 4.996415138244629 C 68.61979675292969 7.23762845993042 73.37895965576172 10.44645500183105 77.46625518798828 14.53373527526855 C 81.55353546142578 18.62101554870605 84.76235961914062 23.38017463684082 87.00358581542969 28.67901420593262 C 89.32363891601562 34.16421508789062 90.5 39.99181365966797 90.5 45.99993515014648 C 90.5 52.008056640625 89.32363891601562 57.83565521240234 87.00358581542969 63.32085418701172 C 84.76235961914062 68.61969757080078 81.55353546142578 73.37885284423828 77.46625518798828 77.46613311767578 C 73.37895965576172 81.55341339111328 68.61979675292969 84.76224517822266 63.32094573974609 87.00345611572266 C 57.83573150634766 89.32350921630859 52.00812149047852 90.49987030029297 46 90.49987030029297 Z" stroke="none"/>
                        <path d="M 46 2.999992370605469 C 40.1937141418457 2.999992370605469 34.56269836425781 4.136489868164062 29.26337051391602 6.377906799316406 C 24.14332580566406 8.543502807617188 19.54441070556641 11.64437866210938 15.59439849853516 15.59437561035156 C 11.64440155029297 19.54439544677734 8.54351806640625 24.14329528808594 6.377914428710938 29.26333618164062 C 4.136497497558594 34.56264877319336 3 40.19366455078125 3 45.99993515014648 C 3 51.80620574951172 4.136497497558594 57.43720626831055 6.377914428710938 62.73651885986328 C 8.54351806640625 67.8565673828125 11.64440155029297 72.45545959472656 15.59439849853516 76.40547943115234 C 19.54441070556641 80.35547637939453 24.14332580566406 83.45635223388672 29.26337051391602 85.6219482421875 C 34.56269836425781 87.86336517333984 40.1937141418457 88.99986267089844 46 88.99986267089844 C 51.8062858581543 88.99986267089844 57.43730163574219 87.86336517333984 62.73661422729492 85.6219482421875 C 67.85667419433594 83.45635223388672 72.45557403564453 80.35547637939453 76.40558624267578 76.40547943115234 C 80.35559844970703 72.45545959472656 83.45647430419922 67.8565673828125 85.6220703125 62.73651885986328 C 87.86350250244141 57.43720626831055 89 51.80620574951172 89 45.99993515014648 C 89 40.19366455078125 87.86350250244141 34.56264877319336 85.6220703125 29.26333618164062 C 83.45647430419922 24.14329528808594 80.35559844970703 19.54439544677734 76.40558624267578 15.59437561035156 C 72.45557403564453 11.64437866210938 67.85667419433594 8.543502807617188 62.73661422729492 6.377906799316406 C 57.43730163574219 4.136489868164062 51.8062858581543 2.999992370605469 46 2.999992370605469 M 46 -7.62939453125e-06 C 71.40509033203125 -7.62939453125e-06 92 20.59486389160156 92 45.99993515014648 C 92 71.40499114990234 71.40509033203125 91.99986267089844 46 91.99986267089844 C 20.59490203857422 91.99986267089844 0 71.40499114990234 0 45.99993515014648 C 0 20.59486389160156 20.59490203857422 -7.62939453125e-06 46 -7.62939453125e-06 Z" stroke="none" fill="#88bba9"/>
                      </g>
                    </g>
                  </g>
                </g>
              </g>
            </g>
          </g>
        </g>
      </g>
      <g id="controlar" transform="translate(826.901 809)">
        <g id="Group_1157013" data-name="Group 1157013" transform="translate(1.921 1.921)">
          <g id="Group_1156988" data-name="Group 1156988" transform="translate(3.684 48.811)">
            <path id="Path_991059" data-name="Path 991059" d="M6,55H17.051v6.447H6Z" transform="translate(-6 -55)" fill="#969faa"/>
          </g>
          <g id="Group_1156989" data-name="Group 1156989" transform="translate(40.522 48.811)">
            <path id="Path_991060" data-name="Path 991060" d="M46,55H57.051v6.447H46Z" transform="translate(-46 -55)" fill="#969faa"/>
          </g>
          <g id="Group_1156990" data-name="Group 1156990" transform="translate(3.684 40.522)">
            <path id="Path_991061" data-name="Path 991061" d="M17.051,50.6v3.684H6V46a4.606,4.606,0,0,0,4.6,4.6Z" transform="translate(-6 -46)" fill="#b4dd7f"/>
          </g>
          <g id="Group_1156991" data-name="Group 1156991" transform="translate(8.546 30.438)">
            <path id="Path_991062" data-name="Path 991062" d="M11.28,35.05a5,5,0,0,1,.663.175A7.389,7.389,0,0,1,17.165,41.5l.3,2.717H11.943V36.846A2.765,2.765,0,0,0,11.28,35.05Z" transform="translate(-11.28 -35.05)" fill="#b4dd7f"/>
          </g>
          <g id="Group_1156992" data-name="Group 1156992" transform="translate(3.684 29.473)">
            <path id="Path_991063" data-name="Path 991063" d="M8.21,34.055a2.763,2.763,0,0,1,3.315,2.708v4.6H6V36.874a2.87,2.87,0,0,1,1.842-2.717A2.412,2.412,0,0,1,8.21,34.055Z" transform="translate(-6 -34.003)" fill="#b4dd7f"/>
          </g>
          <g id="Group_1156993" data-name="Group 1156993" transform="translate(40.522 40.522)">
            <path id="Path_991064" data-name="Path 991064" d="M57.051,46v8.289H46V50.6h6.447A4.606,4.606,0,0,0,57.051,46Z" transform="translate(-46 -46)" fill="#ff826e"/>
          </g>
          <g id="Group_1156994" data-name="Group 1156994" transform="translate(40.522 30.438)">
            <path id="Path_991065" data-name="Path 991065" d="M51.526,35.225a5,5,0,0,1,.663-.175,2.765,2.765,0,0,0-.663,1.8v7.368H46l.3-2.717A7.389,7.389,0,0,1,51.526,35.225Z" transform="translate(-46 -35.05)" fill="#ff826e"/>
          </g>
          <g id="Group_1156995" data-name="Group 1156995" transform="translate(46.048 29.473)">
            <path id="Path_991066" data-name="Path 991066" d="M55.684,34.157a2.87,2.87,0,0,1,1.842,2.717v4.494H52v-4.6a2.763,2.763,0,0,1,3.315-2.708,2.412,2.412,0,0,1,.368.1Z" transform="translate(-52 -34.003)" fill="#ff826e"/>
          </g>
          <g id="Group_1156996" data-name="Group 1156996" transform="translate(17.498 20.454)">
            <path id="Path_991067" data-name="Path 991067" d="M33.893,30.463l.783-6.253,1.612.405a6.5,6.5,0,0,1,2.348,1.114A6.7,6.7,0,0,1,40.57,28.05a6.5,6.5,0,0,1,.691,2.929v7.036L38.3,35.05,36.187,36.3a10.968,10.968,0,0,0-1.695-.709l-.6-2.367H28.368l-.6,2.367a10.968,10.968,0,0,0-1.695.709L23.965,35.05,21,38.015V30.979a6.582,6.582,0,0,1,2.625-5.249,6.5,6.5,0,0,1,2.348-1.114l1.612-.405.783,6.253,2.763-3.684Z" transform="translate(-21 -24.21)" fill="#75b1f2"/>
          </g>
          <g id="Group_1156997" data-name="Group 1156997" transform="translate(27.629 20.261)">
            <path id="Path_991068" data-name="Path 991068" d="M35.546,24.193l-.783,6.253L32,26.763,34.763,24Z" transform="translate(-32 -24)" fill="#5d9cec"/>
          </g>
          <g id="Group_1156998" data-name="Group 1156998" transform="translate(24.083 20.261)">
            <path id="Path_991069" data-name="Path 991069" d="M31.7,26.763l-2.763,3.684-.783-6.253L28.933,24Z" transform="translate(-28.15 -24)" fill="#5d9cec"/>
          </g>
          <g id="Group_1156999" data-name="Group 1156999" transform="translate(16.559 44.786)">
            <path id="Path_991070" data-name="Path 991070" d="M41.576,51.569a10.968,10.968,0,0,1-.709,1.695l1.252,2.109-3.9,3.9-2.109-1.252a10.968,10.968,0,0,1-1.695.709l-.6,2.367H28.287l-.6-2.367a10.968,10.968,0,0,1-1.695-.709l-2.109,1.252-3.9-3.9,1.252-2.109a10.968,10.968,0,0,1-.709-1.695l.037-.6h2.2a2.706,2.706,0,0,0,1.326-.341,7.374,7.374,0,0,0,13.925,0,2.706,2.706,0,0,0,1.326.341H41.77Z" transform="translate(-19.98 -50.63)" fill="#ffc729"/>
          </g>
          <g id="Group_1157000" data-name="Group 1157000" transform="translate(16.559 29.471)">
            <path id="Path_991071" data-name="Path 991071" d="M40.867,41.837a10.968,10.968,0,0,1,.709,1.695l.221.6H39.338a2.706,2.706,0,0,0-1.326.341,7.374,7.374,0,0,0-13.925,0,2.706,2.706,0,0,0-1.326-.341H20.514l.009-.6a10.968,10.968,0,0,1,.709-1.695L19.98,39.728l.939-.939,2.965-2.965,2.109,1.252a10.968,10.968,0,0,1,1.695-.709l.6-2.367h5.526l.6,2.367a10.968,10.968,0,0,1,1.695.709l2.109-1.252,2.965,2.965.939.939Z" transform="translate(-19.98 -34)" fill="#ffc729"/>
          </g>
          <g id="Group_1157001" data-name="Group 1157001" transform="translate(20.666 34.996)">
            <path id="Path_991072" data-name="Path 991072" d="M35.086,47.368A3.684,3.684,0,1,0,31.4,51.051,3.683,3.683,0,0,0,35.086,47.368Zm1.842,0a2.753,2.753,0,0,0,1.437,2.422,7.374,7.374,0,0,1-13.925,0,2.759,2.759,0,0,0,.626-4.375,2.857,2.857,0,0,0-.626-.47,7.374,7.374,0,0,1,13.925,0,2.857,2.857,0,0,0-.626.47A2.756,2.756,0,0,0,36.928,47.368Z" transform="translate(-24.44 -40)" fill="#fcd770"/>
          </g>
          <g id="Group_1157002" data-name="Group 1157002" transform="translate(0 11.972)">
            <path id="Path_991073" data-name="Path 991073" d="M14.893,15a1.847,1.847,0,0,1,1.842,1.842,3.707,3.707,0,0,1-1.078,2.606,3.745,3.745,0,0,1-2.606,1.078H11.633a2.762,2.762,0,0,0-2.708,2.219l-1.4,6.99L7.121,29.6A7.49,7.49,0,0,1,9.5,15Z" transform="translate(-2 -15)" fill="#b27946"/>
          </g>
          <g id="Group_1157003" data-name="Group 1157003" transform="translate(40.522 11.972)">
            <path id="Path_991074" data-name="Path 991074" d="M58.083,40.234l-1.031.856V35.371a2.87,2.87,0,0,0-1.842-2.717V29.735l-1.4-6.99A2.762,2.762,0,0,0,51.1,20.526H49.684A3.69,3.69,0,0,1,46,16.842,1.855,1.855,0,0,1,47.842,15h5.526a7.366,7.366,0,0,1,7.368,7.368v12.2A7.351,7.351,0,0,1,58.083,40.234Z" transform="translate(-46 -15)" fill="#b27946"/>
          </g>
          <g id="Group_1157004" data-name="Group 1157004" transform="translate(19.34)">
            <path id="Path_991075" data-name="Path 991075" d="M39.577,9.368v.212a5.142,5.142,0,0,1-.856,2.837,1.814,1.814,0,0,0-.985-.285H35.893v-.009h-.157a6.3,6.3,0,0,1-4.448-1.842,6.3,6.3,0,0,1-4.448,1.842h-.157v.009H24.842a1.814,1.814,0,0,0-.985.285A5.142,5.142,0,0,1,23,9.579,7.172,7.172,0,0,1,25.1,4.5l.58-.58A6.574,6.574,0,0,1,35.967,5.2L36.814,6.6a2.759,2.759,0,0,1,2.763,2.763Z" transform="translate(-23 -2)" fill="#656d78"/>
          </g>
          <g id="Group_1157005" data-name="Group 1157005" transform="translate(32.233 10.13)">
            <path id="Path_991076" data-name="Path 991076" d="M40.14,13.543a1.8,1.8,0,0,1,.543,1.3,1.847,1.847,0,0,1-1.842,1.842H37V13h1.842a1.814,1.814,0,0,1,.985.285A1.666,1.666,0,0,1,40.14,13.543Z" transform="translate(-37 -13)" fill="#f0d0b4"/>
          </g>
          <g id="Group_1157006" data-name="Group 1157006" transform="translate(23.024 8.279)">
            <path id="Path_991077" data-name="Path 991077" d="M36.21,12.841v3.684a4.6,4.6,0,0,1-9.21,0V12.832h.157A6.3,6.3,0,0,0,31.6,10.99a6.3,6.3,0,0,0,4.448,1.842h.157Z" transform="translate(-27 -10.99)" fill="#f0d0b4"/>
          </g>
          <g id="Group_1157007" data-name="Group 1157007" transform="translate(24.866 17.876)">
            <path id="Path_991078" data-name="Path 991078" d="M29.6,21.41a4.652,4.652,0,0,0,4.328,0l.6,2.385-2.763,2.763L29,23.8Z" transform="translate(-29 -21.41)" fill="#f0d0b4"/>
          </g>
          <g id="Group_1157008" data-name="Group 1157008" transform="translate(19.34 10.13)">
            <path id="Path_991079" data-name="Path 991079" d="M26.684,16.675v.009H24.842A1.855,1.855,0,0,1,23,14.842a1.846,1.846,0,0,1,.856-1.556A1.814,1.814,0,0,1,24.842,13h1.842Z" transform="translate(-23 -13)" fill="#f0d0b4"/>
          </g>
          <g id="Group_1157009" data-name="Group 1157009" transform="translate(5.526 16.918)">
            <path id="Path_991080" data-name="Path 991080" d="M11.684,31.081v2.984a5,5,0,0,0-.663-.175,2.772,2.772,0,0,0-2.652-.912,2.412,2.412,0,0,0-.368.1V30.16l1.4-6.99a2.762,2.762,0,0,1,2.708-2.219h1.418a3.643,3.643,0,0,0,1.98-.58l1.7,4.264-.921.921V27.4A3.683,3.683,0,0,1,12.6,31.081Z" transform="translate(-8 -20.37)" fill="#f0d0b4"/>
          </g>
          <g id="Group_1157010" data-name="Group 1157010" transform="translate(3.684 36.838)">
            <path id="Path_991081" data-name="Path 991081" d="M11.526,42v2.763h10.13a2.706,2.706,0,0,1,1.326.341,2.857,2.857,0,0,1,.626.47,2.759,2.759,0,0,1-.626,4.375,2.706,2.706,0,0,1-1.326.341H10.6a4.606,4.606,0,0,1-4.6-4.6V42Z" transform="translate(-6 -42)" fill="#f0d0b4"/>
          </g>
          <g id="Group_1157011" data-name="Group 1157011" transform="translate(33.154 36.838)">
            <path id="Path_991082" data-name="Path 991082" d="M56.419,44.763v.921a4.606,4.606,0,0,1-4.6,4.6H40.763a2.706,2.706,0,0,1-1.326-.341,2.759,2.759,0,0,1-.626-4.375,2.857,2.857,0,0,1,.626-.47,2.706,2.706,0,0,1,1.326-.341h10.13V42h5.526v2.763Z" transform="translate(-38 -42)" fill="#f0d0b4"/>
          </g>
          <g id="Group_1157012" data-name="Group 1157012" transform="translate(40.522 16.918)">
            <path id="Path_991083" data-name="Path 991083" d="M54.841,32.978a2.772,2.772,0,0,0-2.652.912,5,5,0,0,0-.663.175V31.081H50.6A3.683,3.683,0,0,1,46.921,27.4V25.555L46,24.634l1.7-4.264a3.643,3.643,0,0,0,1.98.58H51.1A2.762,2.762,0,0,1,53.81,23.17l1.4,6.99v2.919a2.412,2.412,0,0,0-.368-.1Z" transform="translate(-46 -20.37)" fill="#f0d0b4"/>
          </g>
        </g>
        <g id="Group_1157014" data-name="Group 1157014" transform="translate(1 1)">
          <path id="Path_991084" data-name="Path 991084" d="M31.6,52.21A4.6,4.6,0,1,0,27,47.6,4.61,4.61,0,0,0,31.6,52.21Zm0-7.368A2.763,2.763,0,1,1,28.842,47.6,2.766,2.766,0,0,1,31.6,44.842Z" transform="translate(-3.055 -4.32)"/>
          <path id="Path_991085" data-name="Path 991085" d="M49.811,12.972H44.285a2.766,2.766,0,0,0-2.763,2.763,4.577,4.577,0,0,0,1.519,3.394l-1.679,4.2,1.081,1.08v1.461a4.61,4.61,0,0,0,4.6,4.6v1.4A8.3,8.3,0,0,0,41.83,38.7l-.211,1.9h-.681a11.649,11.649,0,0,0-.523-1.332l1.362-2.292L40.6,35.8V29.145a7.516,7.516,0,0,0-2.992-5.984,7.438,7.438,0,0,0-2.674-1.273l-1.862-.466-.3-1.212a5.522,5.522,0,0,0,2.222-3.555h1a2.766,2.766,0,0,0,2.763-2.763,2.735,2.735,0,0,0-.625-1.729A6.011,6.011,0,0,0,38.759,9.5V9.289a3.689,3.689,0,0,0-3.138-3.643l-.6-1.006A7.537,7.537,0,0,0,28.589,1a7.447,7.447,0,0,0-5.3,2.2l-.576.576A8.048,8.048,0,0,0,20.34,9.5a6.012,6.012,0,0,0,.625,2.663,2.733,2.733,0,0,0-.625,1.729A2.766,2.766,0,0,0,23.1,16.656h1a5.526,5.526,0,0,0,2.222,3.555l-.3,1.212-1.862.466a7.42,7.42,0,0,0-2.674,1.273A7.515,7.515,0,0,0,18.5,29.146V35.8l-1.176,1.176,1.362,2.292a11.649,11.649,0,0,0-.523,1.332H17.48l-.211-1.9a8.3,8.3,0,0,0-5.218-6.825v-1.4a4.61,4.61,0,0,0,4.6-4.6V24.405l1.081-1.08-1.679-4.2a4.577,4.577,0,0,0,1.519-3.394,2.766,2.766,0,0,0-2.763-2.763h-5.4a8.41,8.41,0,0,0-2.888,16.31v1.69a3.812,3.812,0,0,0-1.842,3.291V58.1H17.577V51.849l4.664,4.664,2.292-1.362c.292.135.588.259.88.368l.658,2.581h6.958l.657-2.581c.293-.11.588-.233.88-.368l2.292,1.362,4.664-4.664V58.1H54.415V40.419l.7-.585A8.266,8.266,0,0,0,58.1,33.466V21.261a8.3,8.3,0,0,0-8.289-8.289ZM44.285,25.866V23.643l-.761-.762,1.123-2.807a4.539,4.539,0,0,0,1.48.266h1.419a1.847,1.847,0,0,1,1.806,1.481l1.38,6.9v1.761a3.664,3.664,0,0,0-1.842.5V28.629H47.048a2.766,2.766,0,0,1-2.763-2.763ZM43.66,38.9A6.451,6.451,0,0,1,47.076,33.9c-.006.087-.029.17-.029.258V40.6H43.472Zm-9.781-15.38.609.152a5.593,5.593,0,0,1,2.015.96,5.666,5.666,0,0,1,2.256,4.512v4.813l-1.9-1.9L34.566,33.42c-.292-.135-.588-.259-.88-.368l-.658-2.581h-.017Zm-4.329.12L27.806,21.9l.216-.865a5.428,5.428,0,0,0,3.054,0l.216.865Zm2.437.168-.306,2.442-.915-1.221Zm-3.653,1.221-.915,1.221-.306-2.442ZM29.55,26.48l2.993,3.99H26.556ZM36,14.814h-.921V12.972H36a.921.921,0,1,1,0,1.842Zm-11.972,0H23.1a.921.921,0,1,1,0-1.842h.921Zm1.079-3.69H24.024v.006H23.1a2.755,2.755,0,0,0-.562.058A4.2,4.2,0,0,1,22.182,9.5a6.22,6.22,0,0,1,1.834-4.428l.576-.576a5.619,5.619,0,0,1,4-1.656,5.685,5.685,0,0,1,4.85,2.744l1.115,1.86h.521a1.844,1.844,0,0,1,1.842,1.842V9.5a4.189,4.189,0,0,1-.36,1.687A2.746,2.746,0,0,0,36,11.13h-.921v-.006H34a5.33,5.33,0,0,1-3.8-1.572L29.55,8.9l-.651.652a5.335,5.335,0,0,1-3.8,1.572Zm.763,4.6v-2.8a7.133,7.133,0,0,0,3.684-1.494,7.141,7.141,0,0,0,3.684,1.494v2.8a3.684,3.684,0,1,1-7.368,0ZM20.34,29.146A5.665,5.665,0,0,1,22.6,24.635a5.6,5.6,0,0,1,2.015-.96l.609-.152.868,6.947h-.017l-.657,2.581c-.293.11-.588.233-.88.368l-2.292-1.362-1.9,1.9Zm-.7,8.12,2.895-2.895,1.929,1.148.454-.235a10.146,10.146,0,0,1,1.552-.649l.486-.155.55-2.168H31.6l.551,2.168.486.155a10.146,10.146,0,0,1,1.552.649l.454.235,1.929-1.148,2.895,2.895L38.315,39.2l.235.454c.161.312.3.629.427.951H37.838a3.644,3.644,0,0,0-.82.1,8.281,8.281,0,0,0-14.938,0,3.644,3.644,0,0,0-.82-.1H20.123a10.066,10.066,0,0,1,.427-.951l.235-.454Zm4.086,4.3a6.419,6.419,0,0,1,11.654,0,3.64,3.64,0,0,0,0,5.442,6.419,6.419,0,0,1-11.654,0,3.639,3.639,0,0,0,0-5.441ZM15.439,38.9l.189,1.7H12.051V34.154c0-.087-.022-.171-.029-.258A6.451,6.451,0,0,1,15.439,38.9Zm-.624-15.26v2.223a2.766,2.766,0,0,1-2.763,2.763H10.21v2.358a3.667,3.667,0,0,0-1.842-.5v-1.76l1.38-6.9a1.847,1.847,0,0,1,1.806-1.481h1.419a4.539,4.539,0,0,0,1.48-.266l1.123,2.807ZM2.842,21.386a6.579,6.579,0,0,1,6.572-6.572h5.4a.922.922,0,0,1,.921.921A2.766,2.766,0,0,1,12.972,18.5H11.553a3.694,3.694,0,0,0-3.612,2.961L6.754,27.4a6.562,6.562,0,0,1-3.912-6.009ZM6.526,34.263a1.926,1.926,0,0,1,1.467-1.914,2.032,2.032,0,0,1,.378-.037,1.815,1.815,0,0,1,1.167.42,1.841,1.841,0,0,1,.672,1.422v3.684H6.526Zm0,7.259V39.68H10.21v1.461L8.637,42.713l1.3,1.3,1.572-1.572h9.749a1.842,1.842,0,0,1,0,3.684H10.21a3.688,3.688,0,0,1-3.684-3.684Zm9.21,14.735H12.972v-.54a2.208,2.208,0,0,1,.651-1.572l-1.3-1.3a4.038,4.038,0,0,0-1.191,2.874v.54h-4.6v-4.6h9.21Zm0-6.447H6.526V46.55a5.5,5.5,0,0,0,3.684,1.418h5.526Zm1.842,1.353V47.969h.585a11.648,11.648,0,0,0,.523,1.332ZM36.568,54.2,34.639,53.05l-.454.235a10.146,10.146,0,0,1-1.552.649l-.486.155-.55,2.168H27.5l-.551-2.168-.486-.155a10.146,10.146,0,0,1-1.552-.649l-.454-.235L22.531,54.2,19.636,51.3l1.148-1.929-.235-.454a10.3,10.3,0,0,1-.426-.951h1.138a3.643,3.643,0,0,0,.82-.1,8.281,8.281,0,0,0,14.938,0,3.65,3.65,0,0,0,.82.1h1.139c-.126.318-.264.635-.427.951l-.235.454L39.463,51.3Zm3.847-4.9a11.859,11.859,0,0,0,.523-1.332h.584v3.195Zm12.158,6.957h-4.6v-.54a4.038,4.038,0,0,0-1.191-2.874l-1.3,1.3a2.21,2.21,0,0,1,.651,1.572v.54H43.364v-4.6h9.21Zm0-6.447h-9.21V47.969H48.89a5.5,5.5,0,0,0,3.684-1.418Zm0-8.289v.921a3.688,3.688,0,0,1-3.684,3.684H37.838a1.842,1.842,0,1,1,0-3.684h9.749l1.572,1.572,1.3-1.3L48.89,41.141V39.68h3.684Zm0-3.684H48.89V34.154a1.845,1.845,0,0,1,2.217-1.805,1.926,1.926,0,0,1,1.467,1.914Zm3.684-4.372a6.422,6.422,0,0,1-1.842,4.507V34.263a3.813,3.813,0,0,0-1.842-3.291V28.629L51.158,21.46A3.694,3.694,0,0,0,47.546,18.5H46.127a2.766,2.766,0,0,1-2.763-2.763.922.922,0,0,1,.921-.921h5.526a6.454,6.454,0,0,1,6.447,6.447Z" transform="translate(-1 -1)"/>
        </g>
      </g>
    </g>
  </g>
</svg>
