<svg xmlns="http://www.w3.org/2000/svg" width="59" height="67.251" viewBox="0 0 59 67.251">
  <g id="Group_1157585" data-name="Group 1157585" transform="translate(-828.5 -4660)">
    <g id="ambientalismo" transform="translate(797.092 4660.003)">
      <g id="Group_1150810" data-name="Group 1150810" transform="translate(34.33 3.324)">
        <g id="Group_1150803" data-name="Group 1150803" transform="translate(1.024 1.755)">
          <g id="Group_1150802" data-name="Group 1150802">
            <g id="Group_1150801" data-name="Group 1150801">
              <g id="Group_1150800" data-name="Group 1150800">
                <g id="Group_1150799" data-name="Group 1150799">
                  <g id="Group_1150798" data-name="Group 1150798">
                    <g id="Group_1150797" data-name="Group 1150797">
                      <g id="Group_1150794" data-name="Group 1150794" transform="translate(30.237 36.149)">
                        <path id="Path_988761" data-name="Path 988761" d="M291.653,322.943q2.826,1.358,5.654,2.712l6.765-7.56a2.51,2.51,0,0,0-3.594-3.5Z" transform="translate(-291.653 -313.913)" fill="#f89f8e"/>
                      </g>
                      <g id="Group_1150795" data-name="Group 1150795" transform="translate(34.348 38.629)">
                        <path id="Path_988762" data-name="Path 988762" d="M322.951,341.32q2.76,1.489,5.522,2.974l7.111-7.235a2.51,2.51,0,0,0-3.427-3.661Z" transform="translate(-322.951 -332.79)" fill="#fdb0a0"/>
                      </g>
                      <g id="Group_1150796" data-name="Group 1150796">
                        <circle id="Ellipse_11551" data-name="Ellipse 11551" cx="22.163" cy="22.163" r="22.163" transform="translate(1.401 0.001)" fill="#64b9fc"/>
                        <path id="Path_988763" data-name="Path 988763" d="M248.438,60.858a22.164,22.164,0,0,1-22.162,22.164c-.744,0-1.48-.036-2.2-.108a22.166,22.166,0,0,0,0-44.111c.725-.072,1.461-.108,2.2-.108a22.164,22.164,0,0,1,22.162,22.164Z" transform="translate(-202.711 -38.694)" fill="#31a7fb"/>
                        <path id="Path_988764" data-name="Path 988764" d="M175.789,61.744a22.057,22.057,0,0,1-3.961,12.649l-6.482-2.159a1.313,1.313,0,0,0-1.52.535l-1.393,2.165a1.314,1.314,0,0,1-.549.48l-3.767,1.757a1.313,1.313,0,0,1-1.31-.116l-4.642-3.263a1.313,1.313,0,0,1-.448-1.6l.692-1.583a1.313,1.313,0,0,1,.884-.748l5.05-1.268a1.314,1.314,0,0,0,.849-.675l1.708-3.334a1.313,1.313,0,0,0-.048-1.284l-1.838-3.005a1.313,1.313,0,0,0-1.121-.628h-1.458a1.314,1.314,0,0,0-1.105.6l-2.546,3.966a1.313,1.313,0,0,1-1.486.547l-2.059-.624a1.314,1.314,0,0,0-1.318.337l-1.159,1.18a1.314,1.314,0,0,1-1.662.175l-2.568-1.7a1.314,1.314,0,0,1-.491-.6l-1.506-3.688a1.314,1.314,0,0,1,.088-1.17l2.309-3.871a1.314,1.314,0,0,1,1.539-.575l3.9,1.287a1.314,1.314,0,0,0,1.013-.08l6.138-3.162a1.314,1.314,0,0,0,.709-1.257l-.186-2.731a1.314,1.314,0,0,0-.617-1.026l-1.335-.829a1.313,1.313,0,0,1-.488-1.69l2.457-5.047A22.166,22.166,0,0,1,175.789,61.744Z" transform="translate(-130.062 -39.581)" fill="#99d53b"/>
                        <path id="Path_988765" data-name="Path 988765" d="M276.507,61.743a22.057,22.057,0,0,1-3.961,12.649l-3.627-1.208a22.174,22.174,0,0,0-12.534-32.649l.4-.821A22.166,22.166,0,0,1,276.507,61.743Z" transform="translate(-230.781 -39.579)" fill="#8dc637"/>
                        <path id="Path_988766" data-name="Path 988766" d="M362.065,154.161a22.135,22.135,0,0,1-1.278,7.434c-2.283-.6-6.594-2.893-5.816-8.27a8.662,8.662,0,0,1,5.361-7.171.658.658,0,0,1,.222-.049A22.091,22.091,0,0,1,362.065,154.161Z" transform="translate(-316.338 -131.997)" fill="#8dc637"/>
                        <path id="Path_988767" data-name="Path 988767" d="M98.517,275a2.846,2.846,0,0,0-2.863.72c-.664.626-1.324,1.5-2.193,2.2a22.22,22.22,0,0,1-6.338-8.151,6.9,6.9,0,0,1,5-1.014,8.657,8.657,0,0,1,7.171,5.362A.656.656,0,0,1,98.517,275Z" transform="translate(-83.751 -238.458)" fill="#31a7fb"/>
                        <path id="Path_988768" data-name="Path 988768" d="M106.638,60.647a8.67,8.67,0,0,1-8.356-1.922,22.236,22.236,0,0,1,10.775-8.834q.5.061,1.035.138a2.34,2.34,0,0,1,.534.142,2.291,2.291,0,0,1,1.416,1.754C112.413,54.175,112.057,59.281,106.638,60.647Z" transform="translate(-93.444 -48.42)" fill="#31a7fb"/>
                        <path id="Path_988769" data-name="Path 988769" d="M115.084,345.57a2.51,2.51,0,0,0-3.093-.884l-8.526,3.78a3.344,3.344,0,0,0-3.306-2.842H92.946a13.159,13.159,0,0,1-4.178-.681l-6.086-2.037a5.451,5.451,0,0,0-3.253-.065l-3.952,1.15a5.45,5.45,0,0,0-3.312,2.719,11.131,11.131,0,0,1-3.826,4.209l-6.89,4.462,8.505,8.505,8.876-6.785,17.119,1.151a5.172,5.172,0,0,0,2.83-.623l15.434-8.447A2.51,2.51,0,0,0,115.084,345.57Z" transform="translate(-61.448 -302.704)" fill="#ffcec0"/>
                        <path id="Path_988770" data-name="Path 988770" d="M152.724,361.6l-15.434,8.447a5.176,5.176,0,0,1-2.83.624l-17.12-1.151-8.876,6.786-2.682-2.682,9.267-7.083a.924.924,0,0,1,.622-.188l16.773,1.128a5.18,5.18,0,0,0,2.831-.623l15.434-8.447a2.5,2.5,0,0,0,1.2-1.49,2.509,2.509,0,0,1,.813,4.68Z" transform="translate(-99.96 -315.118)" fill="#fdb0a0"/>
                      </g>
                    </g>
                  </g>
                </g>
              </g>
            </g>
          </g>
        </g>
        <g id="Group_1150805" data-name="Group 1150805" transform="translate(0 29.293)">
          <g id="Group_1150804" data-name="Group 1150804">
            <path id="Path_988771" data-name="Path 988771" d="M54.354,256.614a2.294,2.294,0,0,1-.641-2.161c.514-2.223,2.786-6.808,8.317-6.008a8.658,8.658,0,0,1,7.171,5.361.655.655,0,0,1-.781.88,2.848,2.848,0,0,0-2.864.72c-1.914,1.8-3.788,5.673-10.764,1.542a2.352,2.352,0,0,1-.439-.335Z" transform="translate(-53.654 -248.353)" fill="#99d53b"/>
            <path id="Path_988772" data-name="Path 988772" d="M68.424,274.107a2.849,2.849,0,0,0-2.864.72c-1.913,1.8-3.787,5.674-10.763,1.542a2.305,2.305,0,0,1-1.124-2.246c6.618,3.716,8.453-.028,10.327-1.794a2.845,2.845,0,0,1,2.864-.72.656.656,0,0,0,.781-.88l-.008-.019a8.729,8.729,0,0,1,1.567,2.518A.655.655,0,0,1,68.424,274.107Z" transform="translate(-53.658 -267.773)" fill="#8dc637"/>
          </g>
        </g>
        <g id="Group_1150807" data-name="Group 1150807" transform="translate(4.662)">
          <g id="Group_1150806" data-name="Group 1150806">
            <path id="Path_988773" data-name="Path 988773" d="M102,25.669a2.294,2.294,0,0,1,1.416,1.754c.371,2.251.016,7.356-5.4,8.722a8.658,8.658,0,0,1-8.672-2.227.655.655,0,0,1,.387-1.111A2.848,2.848,0,0,0,92.1,31.051c1.083-2.4,1.343-6.688,9.366-5.524a2.338,2.338,0,0,1,.534.142Z" transform="translate(-89.148 -25.33)" fill="#a3e440"/>
            <path id="Path_988774" data-name="Path 988774" d="M107.188,36.474a8.739,8.739,0,0,1-7.474-1.209,9.556,9.556,0,0,0,4.488-.124c5.419-1.366,5.775-6.472,5.4-8.722a2.306,2.306,0,0,0-.242-.709c.4.033.828.08,1.279.146a2.425,2.425,0,0,1,.534.142,2.294,2.294,0,0,1,1.414,1.755C112.963,30,112.608,35.108,107.188,36.474Z" transform="translate(-98.326 -25.66)" fill="#8dc637"/>
          </g>
        </g>
        <g id="Group_1150809" data-name="Group 1150809" transform="translate(41.534 13.322)">
          <g id="Group_1150808" data-name="Group 1150808">
            <path id="Path_988775" data-name="Path 988775" d="M378.131,141.651a2.294,2.294,0,0,1-2.161.641c-2.223-.514-6.808-2.786-6.008-8.317a8.658,8.658,0,0,1,5.361-7.171.655.655,0,0,1,.88.781,2.848,2.848,0,0,0,.72,2.864c1.8,1.914,5.673,3.788,1.542,10.764A2.349,2.349,0,0,1,378.131,141.651Z" transform="translate(-369.87 -126.754)" fill="#a3e440"/>
            <path id="Path_988776" data-name="Path 988776" d="M395.625,127.585a2.849,2.849,0,0,0,.72,2.864c1.8,1.913,5.674,3.787,1.542,10.763a2.305,2.305,0,0,1-2.246,1.124c3.716-6.618-.028-8.453-1.794-10.327a2.845,2.845,0,0,1-.72-2.864.656.656,0,0,0-.88-.781l-.019.008a8.729,8.729,0,0,1,2.518-1.567A.655.655,0,0,1,395.625,127.585Z" transform="translate(-389.29 -126.754)" fill="#99d53b"/>
          </g>
        </g>
      </g>
      <path id="Path_988777" data-name="Path 988777" d="M89.8,47.392A3.493,3.493,0,0,0,85.5,46.161l-1.514.671a3.491,3.491,0,0,0-4.455-3.957,3.485,3.485,0,0,0-1.318-1.953,3.543,3.543,0,0,0-.426-.267,23.163,23.163,0,0,0,3.55-7.619c.139.04.277.077.409.107a3.224,3.224,0,0,0,.726.082,3.286,3.286,0,0,0,.666-.069A15.965,15.965,0,0,0,85.386,35a.985.985,0,1,0,1.105-1.631,14.073,14.073,0,0,1-1.57-1.232,3.359,3.359,0,0,0,.387-.527c3.983-6.724,1.04-9.423-.907-11.208-.281-.258-.547-.5-.765-.733a1.874,1.874,0,0,1-.489-1.92,1.641,1.641,0,0,0-2.2-1.96,9.9,9.9,0,0,0-1.5.767A23.2,23.2,0,0,0,76.5,12.183.985.985,0,1,0,75,13.465a21.214,21.214,0,0,1,2.869,4.321,10,10,0,0,0-2.888,5.939,9.749,9.749,0,0,0-.1,1.282.985.985,0,0,0,.973,1h.012a.985.985,0,0,0,.985-.973,7.788,7.788,0,0,1,.081-1.023,7.665,7.665,0,0,1,4.186-6.141A3.844,3.844,0,0,0,82.2,21.015c.267.284.559.551.867.834,1.825,1.673,3.712,3.4.544,8.752-.018.03-.038.058-.058.086a12.7,12.7,0,0,1-2.751-7.71.985.985,0,0,0-1.97.04A14.79,14.79,0,0,0,81.3,30.955a7.482,7.482,0,0,1-3.317-2.361.985.985,0,1,0-1.568,1.193A9.114,9.114,0,0,0,79.488,32.3a21.157,21.157,0,0,1-2.771,6.422L70.949,36.8a2.3,2.3,0,0,0-2.659.937L66.9,39.9a.329.329,0,0,1-.137.12l-3.767,1.756a.328.328,0,0,1-.328-.029l-4.642-3.263a.329.329,0,0,1-.112-.4L58.6,36.5a.331.331,0,0,1,.221-.187l5.05-1.268a2.3,2.3,0,0,0,1.486-1.181l1.708-3.334a2.311,2.311,0,0,0-.085-2.247l-1.837-3.005a2.313,2.313,0,0,0-1.961-1.1H61.728a2.29,2.29,0,0,0-1.934,1.057L57.247,29.2a.329.329,0,0,1-.372.137l-2.058-.624a2.291,2.291,0,0,0-2.307.589l-1.159,1.18a.329.329,0,0,1-.416.044l-2.568-1.7a.328.328,0,0,1-.123-.15L46.739,24.99a.33.33,0,0,1,.022-.292l2.309-3.871a.326.326,0,0,1,.385-.144l3.9,1.287a2.312,2.312,0,0,0,1.772-.14l6.138-3.161a2.3,2.3,0,0,0,1.241-2.2l-.186-2.731a2.3,2.3,0,0,0-1.08-1.8l-1.334-.829a.328.328,0,0,1-.122-.423l2.149-4.414a20.924,20.924,0,0,1,10.041,4.293.985.985,0,0,0,1.216-1.55A22.916,22.916,0,0,0,58.919,4.095a23.3,23.3,0,0,0-4.868.513,3.281,3.281,0,0,0-.338-.643,15.945,15.945,0,0,0,.842-2.782.985.985,0,0,0-1.929-.4A14.064,14.064,0,0,1,52.084,2.7a3.344,3.344,0,0,0-.634-.157c-7.734-1.123-9.109,2.626-10.018,5.107-.131.358-.255.7-.386.986a1.875,1.875,0,0,1-1.589,1.184A1.64,1.64,0,0,0,38.48,12.6a9.882,9.882,0,0,0,1.539,1.271,22.917,22.917,0,0,0-4.249,13.369,23.191,23.191,0,0,0,.812,6.095A9.773,9.773,0,0,0,33.429,38.5a3.254,3.254,0,0,0-.013,1.39,15.956,15.956,0,0,0-1.838,2.252.985.985,0,1,0,1.631,1.105,14.086,14.086,0,0,1,1.232-1.57,3.341,3.341,0,0,0,.527.387,11.789,11.789,0,0,0,5.878,1.978,5.8,5.8,0,0,0,1.848-.291,23.222,23.222,0,0,0,3.894,3.085,6.426,6.426,0,0,0-1.391,1.8,10.166,10.166,0,0,1-3.488,3.837l-6.89,4.462a.985.985,0,1,0,1.071,1.654l6.89-4.462a12.137,12.137,0,0,0,4.165-4.582,4.485,4.485,0,0,1,2.714-2.227l3.952-1.15a4.442,4.442,0,0,1,2.665.053l6.086,2.038a14.119,14.119,0,0,0,4.49.732h7.213a2.359,2.359,0,0,1,0,4.717h-8.69a19.835,19.835,0,0,0-4.631.549.985.985,0,1,0,.46,1.916,17.873,17.873,0,0,1,4.17-.494h8.69a4.333,4.333,0,0,0,4.326-4.205L86.3,47.962a1.524,1.524,0,0,1,1.879.537,1.524,1.524,0,0,1-.529,2.194L72.212,59.14a4.171,4.171,0,0,1-2.291.5L52.8,58.494a.985.985,0,0,0-.664.2L43.261,65.48a.985.985,0,1,0,1.2,1.565l8.582-6.56,16.749,1.126a6.158,6.158,0,0,0,3.369-.742l15.434-8.447A3.494,3.494,0,0,0,89.8,47.392Zm-8.3-2.359a1.524,1.524,0,0,1,.128,2.253l-1.008,1.025-.015.017L77.978,49.5a4.358,4.358,0,0,0-1.531-1.763l3.1-2.67a1.524,1.524,0,0,1,1.954-.029Zm-4.46-2.523a1.519,1.519,0,0,1,.571,1.618L74.255,47.02c-.063,0-.126,0-.19,0H70.958a23.3,23.3,0,0,0,5.452-4.609c.04-.046.079-.094.119-.141a1.514,1.514,0,0,1,.514.246ZM42.84,9.45c.161-.355.3-.727.441-1.12C44.133,6.006,45.015,3.6,51.166,4.5c.035,0,.068.013.1.021A12.7,12.7,0,0,1,45.185,10a.985.985,0,1,0,.787,1.806,14.789,14.789,0,0,0,6.4-5.3,7.934,7.934,0,0,1-.554,3.229,5.8,5.8,0,0,1-4.2,3.453,7.664,7.664,0,0,1-7.272-1.533A3.844,3.844,0,0,0,42.84,9.45ZM56.9,44.348a6.406,6.406,0,0,0-3.841-.076l-3.952,1.15a6.387,6.387,0,0,0-.658.232,21.229,21.229,0,0,1-3.94-2.893,13.349,13.349,0,0,0,1.666-1.607c.258-.281.5-.547.733-.765a1.875,1.875,0,0,1,1.92-.489,1.64,1.64,0,0,0,1.961-2.2A9.391,9.391,0,0,0,46,32.654a.985.985,0,0,0-.832,1.786A7.394,7.394,0,0,1,48.7,37.872a3.839,3.839,0,0,0-3.147,1.083c-.284.267-.551.559-.834.867-1.673,1.825-3.4,3.712-8.753.543-.03-.018-.057-.038-.085-.057a12.7,12.7,0,0,1,7.71-2.751.985.985,0,0,0-.02-1.97h-.02a14.791,14.791,0,0,0-7.938,2.467A6.313,6.313,0,0,1,41.331,33.6a.985.985,0,0,0-.018-1.97h-.019a7.7,7.7,0,0,0-2.953.625,21.253,21.253,0,0,1-.6-5.016A20.968,20.968,0,0,1,41.78,14.8a9.407,9.407,0,0,0,3.5.658,11.5,11.5,0,0,0,2.816-.365,7.776,7.776,0,0,0,5.542-4.606,9.773,9.773,0,0,0,.706-3.926,21.312,21.312,0,0,1,4.575-.5q.462,0,.92.02L58.016,9.829a2.293,2.293,0,0,0,.853,2.958l1.335.829a.329.329,0,0,1,.154.256l.186,2.731a.329.329,0,0,1-.177.314L54.229,20.08a.33.33,0,0,1-.253.02l-3.9-1.287a2.285,2.285,0,0,0-2.694,1.006l-2.309,3.871a2.31,2.31,0,0,0-.154,2.047l1.506,3.688a2.292,2.292,0,0,0,.86,1.048l2.568,1.7a2.3,2.3,0,0,0,2.909-.307l1.159-1.18a.327.327,0,0,1,.329-.084l2.059.624a2.309,2.309,0,0,0,2.6-.958L61.451,26.3a.327.327,0,0,1,.276-.151h1.458a.33.33,0,0,1,.28.157L65.3,29.312a.33.33,0,0,1,.012.321l-1.708,3.334a.329.329,0,0,1-.213.169L58.344,34.4A2.314,2.314,0,0,0,56.8,35.712l-.692,1.583a2.306,2.306,0,0,0,.784,2.8l4.642,3.263a2.3,2.3,0,0,0,2.293.2l3.767-1.757a2.3,2.3,0,0,0,.961-.839L69.946,38.8a.328.328,0,0,1,.38-.134L75.515,40.4c-.193.243-.389.484-.593.719a21.283,21.283,0,0,1-8.384,5.894,12.145,12.145,0,0,1-3.551-.624Z" transform="translate(0 0)"/>
    </g>
  </g>
</svg>
