<svg xmlns="http://www.w3.org/2000/svg" xmlns:xlink="http://www.w3.org/1999/xlink" width="108" height="108" viewBox="0 0 108 108">
  <defs>
    <filter id="Path_982547" x="0" y="0" width="108" height="108" filterUnits="userSpaceOnUse">
      <feOffset dy="3" input="SourceAlpha"/>
      <feGaussianBlur stdDeviation="3" result="blur"/>
      <feFlood flood-opacity="0.161"/>
      <feComposite operator="in" in2="blur"/>
      <feComposite in="SourceGraphic"/>
    </filter>
  </defs>
  <g id="Group_1157287" data-name="Group 1157287" transform="translate(-202 -3998)">
    <g id="Group_1156344" data-name="Group 1156344" transform="translate(-512 1579)">
      <g id="Group_1154014" data-name="Group 1154014" transform="translate(723 2425)">
        <g id="Group_1153134" data-name="Group 1153134">
          <g id="Group_1149598" data-name="Group 1149598">
            <g id="Group_1148770" data-name="Group 1148770">
              <g id="Group_1146954" data-name="Group 1146954">
                <g transform="matrix(1, 0, 0, 1, -9, -6)" filter="url(#Path_982547)">
                  <g id="Path_982547-2" data-name="Path 982547" transform="translate(9 6)" fill="#fcf3f0">
                    <path d="M 45 88.5 C 39.12687683105469 88.5 33.43022537231445 87.35007476806641 28.06830024719238 85.08217620849609 C 22.88852500915527 82.89131164550781 18.23629951477051 79.75458526611328 14.2408504486084 75.75914764404297 C 10.24541282653809 71.76370239257812 7.108687400817871 67.11147308349609 4.917825222015381 61.93170166015625 C 2.649924993515015 56.56977462768555 1.5 50.87312316894531 1.5 45 C 1.5 39.12687683105469 2.649924993515015 33.43022537231445 4.917825222015381 28.06830024719238 C 7.108687400817871 22.88852500915527 10.24541282653809 18.23629951477051 14.2408504486084 14.2408504486084 C 18.23629951477051 10.24541282653809 22.88852500915527 7.108687400817871 28.06830024719238 4.917825222015381 C 33.43022537231445 2.649924993515015 39.12687683105469 1.5 45 1.5 C 50.87312316894531 1.5 56.56977462768555 2.649924993515015 61.93170166015625 4.917825222015381 C 67.11147308349609 7.108687400817871 71.76370239257812 10.24541282653809 75.75914764404297 14.2408504486084 C 79.75458526611328 18.23629951477051 82.89131164550781 22.88852500915527 85.08217620849609 28.06830024719238 C 87.35007476806641 33.43022537231445 88.5 39.12687683105469 88.5 45 C 88.5 50.87312316894531 87.35007476806641 56.56977462768555 85.08217620849609 61.93170166015625 C 82.89131164550781 67.11147308349609 79.75458526611328 71.76370239257812 75.75914764404297 75.75914764404297 C 71.76370239257812 79.75458526611328 67.11147308349609 82.89131164550781 61.93170166015625 85.08217620849609 C 56.56977462768555 87.35007476806641 50.87312316894531 88.5 45 88.5 Z" stroke="none"/>
                    <path d="M 45 3 C 39.32871246337891 3 33.82865524291992 4.110054016113281 28.65262985229492 6.299339294433594 C 23.65165710449219 8.414573669433594 19.15968322753906 11.44334411621094 15.301513671875 15.301513671875 C 11.44334411621094 19.15968322753906 8.414573669433594 23.65165710449219 6.299339294433594 28.65262985229492 C 4.110054016113281 33.82865524291992 3 39.32871246337891 3 45 C 3 50.67128753662109 4.110054016113281 56.17134475708008 6.299339294433594 61.34737396240234 C 8.414573669433594 66.34834289550781 11.44334411621094 70.84031677246094 15.301513671875 74.698486328125 C 19.15968322753906 78.55665588378906 23.65165710449219 81.58542633056641 28.65262985229492 83.70066070556641 C 33.82865524291992 85.88994598388672 39.32871246337891 87 45 87 C 50.67128753662109 87 56.17134475708008 85.88994598388672 61.34737396240234 83.70066070556641 C 66.34834289550781 81.58542633056641 70.84031677246094 78.55665588378906 74.698486328125 74.698486328125 C 78.55665588378906 70.84031677246094 81.58542633056641 66.34834289550781 83.70066070556641 61.34737396240234 C 85.88994598388672 56.17134475708008 87 50.67128753662109 87 45 C 87 39.32871246337891 85.88994598388672 33.82865524291992 83.70066070556641 28.65262985229492 C 81.58542633056641 23.65165710449219 78.55665588378906 19.15968322753906 74.698486328125 15.301513671875 C 70.84031677246094 11.44334411621094 66.34834289550781 8.414573669433594 61.34737396240234 6.299339294433594 C 56.17134475708008 4.110054016113281 50.67128753662109 3 45 3 M 45 0 C 69.85281372070312 0 90 20.14718627929688 90 45 C 90 69.85281372070312 69.85281372070312 90 45 90 C 20.14718627929688 90 0 69.85281372070312 0 45 C 0 20.14718627929688 20.14718627929688 0 45 0 Z" stroke="none" fill="#e89076"/>
                  </g>
                </g>
              </g>
            </g>
          </g>
        </g>
      </g>
      <g id="XMLID_1020_" transform="translate(742.619 2444.619)">
        <g id="XMLID_1910_" transform="translate(0.856 1.104)">
          <circle id="XMLID_1515_" cx="24.401" cy="24.401" r="24.401" transform="translate(0 0)" fill="#80b6ff"/>
          <g id="Group_1156343" data-name="Group 1156343" transform="translate(0.135 5.323)">
            <path id="XMLID_1106_" d="M19.454,103.621H15.242A24.285,24.285,0,0,0,10,118.728a24.6,24.6,0,0,0,.234,3.38h.079a8.786,8.786,0,0,0,8.387-6.17,8.786,8.786,0,0,1,3.158-4.444l.155-.115a4.3,4.3,0,0,0-2.56-7.758Z" transform="translate(-10 -99.774)" fill="#89df8f"/>
            <path id="XMLID_1674_" d="M326.255,72.261a7.439,7.439,0,0,0,3.409,6.253l2.579,1.662a4.783,4.783,0,0,1,.256,7.864,4.827,4.827,0,0,0-1.954,3.879,3.558,3.558,0,0,0,3.558,3.558h6.59a24.4,24.4,0,0,0-6.056-30.655h-.944A7.438,7.438,0,0,0,326.255,72.261Z" transform="translate(-294.9 -64.823)" fill="#89df8f"/>
          </g>
        </g>
        <path id="XMLID_1821_" d="M100.131,345.586h0A8.129,8.129,0,0,0,92,353.715v5h16.26v-5a8.13,8.13,0,0,0-8.129-8.129Z" transform="translate(-82.88 -311.323)" fill="#c5d3de"/>
        <path id="XMLID_1820_" d="M142.535,266.579h0a3.463,3.463,0,0,0-3.463,3.463v.826a3.463,3.463,0,0,0,3.463,3.463h0A3.463,3.463,0,0,0,146,270.868v-.826A3.463,3.463,0,0,0,142.535,266.579Z" transform="translate(-125.284 -240.149)" fill="#f2b394"/>
        <path id="XMLID_1824_" d="M264.131,345.586h0a8.129,8.129,0,0,1,8.129,8.129v5H256v-5A8.13,8.13,0,0,1,264.131,345.586Z" transform="translate(-230.621 -311.323)" fill="#ffcd69"/>
        <path id="XMLID_1823_" d="M306.538,266.579h0A3.463,3.463,0,0,1,310,270.042v.826a3.463,3.463,0,0,1-3.463,3.463h0a3.463,3.463,0,0,1-3.463-3.463v-.826A3.463,3.463,0,0,1,306.538,266.579Z" transform="translate(-273.027 -240.149)" fill="#f2b394"/>
        <path id="XMLID_1807_" d="M18.13,420h0A8.129,8.129,0,0,0,10,428.129H26.26A8.129,8.129,0,0,0,18.13,420Z" transform="translate(-9.009 -378.36)" fill="#ffcd69"/>
        <path id="XMLID_1806_" d="M60.535,340.993h0a3.463,3.463,0,0,0-3.463,3.463v.826a3.463,3.463,0,0,0,3.463,3.463h0A3.463,3.463,0,0,0,64,345.282v-.826A3.463,3.463,0,0,0,60.535,340.993Z" transform="translate(-51.414 -307.186)" fill="#f5c6af"/>
        <path id="XMLID_1812_" d="M182.13,420h0A8.129,8.129,0,0,0,174,428.129h16.26A8.129,8.129,0,0,0,182.13,420Z" transform="translate(-156.749 -378.36)" fill="#ff7d97"/>
        <path id="XMLID_1811_" d="M224.535,340.993h0a3.463,3.463,0,0,0-3.463,3.463v.826a3.463,3.463,0,0,0,3.463,3.463h0A3.463,3.463,0,0,0,228,345.282v-.826A3.463,3.463,0,0,0,224.535,340.993Z" transform="translate(-199.154 -307.186)" fill="#f2b394"/>
        <path id="XMLID_1816_" d="M346.13,420h0A8.129,8.129,0,0,0,338,428.129h16.26A8.129,8.129,0,0,0,346.13,420Z" transform="translate(-304.489 -378.36)" fill="#c5d3de"/>
        <path id="XMLID_1815_" d="M388.535,340.993h0a3.463,3.463,0,0,0-3.463,3.463v.826a3.463,3.463,0,0,0,3.463,3.463h0A3.463,3.463,0,0,0,392,345.282v-.826A3.463,3.463,0,0,0,388.535,340.993Z" transform="translate(-346.895 -307.186)" fill="#f5c6af"/>
        <path id="XMLID_1906_" d="M198.309,136.654a3.881,3.881,0,0,0,3.983.845,4.431,4.431,0,0,0,2.941-4.173v-1.892a3.434,3.434,0,0,0-6.445-1.652l-1.2,2.194A3.881,3.881,0,0,0,198.309,136.654Z" transform="translate(-177.563 -115.31)" fill="#89df8f"/>
        <g id="XMLID_4_" transform="translate(0 0)">
          <path id="XMLID_768_" d="M45.118,41.338a25.426,25.426,0,0,0,4.661-22.976.991.991,0,1,0-1.906.547,23.464,23.464,0,0,1-1.86,17.51,4.461,4.461,0,0,0-4.372-3.6h0a4.448,4.448,0,0,0-3.507,1.713c-.126-.074-.252-.146-.381-.214a2.559,2.559,0,0,1-.125-.792,3.851,3.851,0,0,1,1.553-3.082,5.774,5.774,0,0,0-.309-9.494l-2.579-1.662A6.447,6.447,0,0,1,39.785,7.418h.6a23.756,23.756,0,0,1,3.652,3.843.991.991,0,1,0,1.58-1.2A25.612,25.612,0,0,0,36.863,2.74,25.386,25.386,0,0,0,0,25.381,25.316,25.316,0,0,0,5.645,41.338,9.135,9.135,0,0,0,0,49.77a.991.991,0,0,0,.991.991H49.77a.992.992,0,0,0,.991-.992,9.135,9.135,0,0,0-5.644-8.432ZM11.593,37.27V38.1a2.472,2.472,0,0,1-4.943,0V37.27A2.474,2.474,0,0,1,9.121,34.8h0A2.474,2.474,0,0,1,11.593,37.27Zm1.983.826V37.27a4.452,4.452,0,0,0-.1-.937,7.142,7.142,0,0,1,7.551,0,4.451,4.451,0,0,0-.1.937V38.1a4.439,4.439,0,0,0,1.281,3.122,9.173,9.173,0,0,0-4.957,4.418,9.173,9.173,0,0,0-4.957-4.418A4.439,4.439,0,0,0,13.576,38.1Zm6.147-7.378a2.472,2.472,0,0,1-4.943,0v-.826a2.474,2.474,0,0,1,2.471-2.471h0a2.474,2.474,0,0,1,2.471,2.471Zm8.13,6.551V38.1a2.472,2.472,0,0,1-4.943,0V37.27A2.474,2.474,0,0,1,25.381,34.8h0A2.474,2.474,0,0,1,27.852,37.27Zm1.983.826V37.27a4.456,4.456,0,0,0-.1-.936,7.143,7.143,0,0,1,7.551,0,4.452,4.452,0,0,0-.1.937V38.1a4.439,4.439,0,0,0,1.281,3.122,9.173,9.173,0,0,0-4.957,4.418,9.173,9.173,0,0,0-4.957-4.418A4.439,4.439,0,0,0,29.835,38.1Zm6.147-7.378a2.471,2.471,0,0,1-4.943,0v-.826a2.474,2.474,0,0,1,2.471-2.471h0a2.474,2.474,0,0,1,2.471,2.471v.826ZM41.64,34.8h0a2.474,2.474,0,0,1,2.471,2.471V38.1a2.472,2.472,0,0,1-4.943,0V37.27A2.474,2.474,0,0,1,41.64,34.8ZM25.381,1.983A23.26,23.26,0,0,1,37.964,5.635a8.429,8.429,0,0,0-2.746,15.316L37.8,22.613a3.792,3.792,0,0,1,.2,6.234c-.046.034-.09.071-.135.107a4.461,4.461,0,0,0-4.354-3.516h0a4.459,4.459,0,0,0-4.454,4.454v.826a4.439,4.439,0,0,0,1.279,3.119,9,9,0,0,0-1.448.69,4.448,4.448,0,0,0-3.506-1.712h0a4.448,4.448,0,0,0-3.506,1.712,9.013,9.013,0,0,0-1.448-.689,4.439,4.439,0,0,0,1.279-3.119v-.826a4.459,4.459,0,0,0-4.454-4.454h0A4.459,4.459,0,0,0,12.8,29.892v.826a4.439,4.439,0,0,0,1.279,3.119,9.006,9.006,0,0,0-1.448.689,4.448,4.448,0,0,0-3.506-1.712h0a4.461,4.461,0,0,0-4.372,3.606,23.309,23.309,0,0,1-2.368-6.729A9.7,9.7,0,0,0,7.1,27.85a9.713,9.713,0,0,0,3.54-4.965,7.745,7.745,0,0,1,2.8-3.943l.155-.115a5.293,5.293,0,0,0-3.15-9.546H8.417a23.334,23.334,0,0,1,16.963-7.3ZM6.734,11.265h3.712a3.31,3.31,0,0,1,1.97,5.97l-.155.115A9.714,9.714,0,0,0,8.746,22.3,7.755,7.755,0,0,1,2.1,27.728q-.117-1.164-.118-2.347A23.277,23.277,0,0,1,6.734,11.265ZM2.051,48.779a7.149,7.149,0,0,1,7.069-6.147h0a7.149,7.149,0,0,1,7.069,6.147Zm16.26,0a7.149,7.149,0,0,1,7.069-6.147h0a7.149,7.149,0,0,1,7.069,6.147Zm16.26,0a7.149,7.149,0,0,1,7.069-6.147h0a7.149,7.149,0,0,1,7.069,6.147Z" transform="translate(0 0)"/>
          <path id="XMLID_1169_" d="M188.627,128.363a4.852,4.852,0,0,0,5,1.061,5.434,5.434,0,0,0,3.6-5.106v-1.892a4.426,4.426,0,0,0-8.306-2.129l-1.2,2.194A4.878,4.878,0,0,0,188.627,128.363Zm.828-4.918,1.2-2.194a2.443,2.443,0,0,1,4.585,1.175v1.892a3.447,3.447,0,0,1-2.283,3.239,2.89,2.89,0,0,1-3.506-4.112Z" transform="translate(-168.565 -106.301)"/>
          <path id="XMLID_1178_" d="M467.111,138.033a.992.992,0,1,0-.7-.29A1,1,0,0,0,467.111,138.033Z" transform="translate(-419.907 -122.561)"/>
        </g>
      </g>
    </g>
  </g>
</svg>
