<svg xmlns="http://www.w3.org/2000/svg" xmlns:xlink="http://www.w3.org/1999/xlink" width="108" height="108" viewBox="0 0 108 108">
  <defs>
    <filter id="Path_978624" x="0" y="0" width="108" height="108" filterUnits="userSpaceOnUse">
      <feOffset dy="3" input="SourceAlpha"/>
      <feGaussianBlur stdDeviation="3" result="blur"/>
      <feFlood flood-opacity="0.161"/>
      <feComposite operator="in" in2="blur"/>
      <feComposite in="SourceGraphic"/>
    </filter>
  </defs>
  <g id="Group_1157578" data-name="Group 1157578" transform="translate(-746 -1666.123)">
    <g id="Group_1144532" data-name="Group 1144532" transform="translate(755 1672.123)">
      <g id="Group_1144123" data-name="Group 1144123">
        <g transform="matrix(1, 0, 0, 1, -9, -6)" filter="url(#Path_978624)">
          <g id="Path_978624-2" data-name="Path 978624" transform="translate(9 6)" fill="#cfe3dc">
            <path d="M 45 88.5 C 39.12687683105469 88.5 33.43022537231445 87.35007476806641 28.06830024719238 85.08217620849609 C 22.88852500915527 82.89131164550781 18.23629951477051 79.75458526611328 14.2408504486084 75.75914764404297 C 10.24541282653809 71.76370239257812 7.108687400817871 67.11147308349609 4.917825222015381 61.93170166015625 C 2.649924993515015 56.56977462768555 1.5 50.87312316894531 1.5 45 C 1.5 39.12687683105469 2.649924993515015 33.43022537231445 4.917825222015381 28.06830024719238 C 7.108687400817871 22.88852500915527 10.24541282653809 18.23629951477051 14.2408504486084 14.2408504486084 C 18.23629951477051 10.24541282653809 22.88852500915527 7.108687400817871 28.06830024719238 4.917825222015381 C 33.43022537231445 2.649924993515015 39.12687683105469 1.5 45 1.5 C 50.87312316894531 1.5 56.56977462768555 2.649924993515015 61.93170166015625 4.917825222015381 C 67.11147308349609 7.108687400817871 71.76370239257812 10.24541282653809 75.75914764404297 14.2408504486084 C 79.75458526611328 18.23629951477051 82.89131164550781 22.88852500915527 85.08217620849609 28.06830024719238 C 87.35007476806641 33.43022537231445 88.5 39.12687683105469 88.5 45 C 88.5 50.87312316894531 87.35007476806641 56.56977462768555 85.08217620849609 61.93170166015625 C 82.89131164550781 67.11147308349609 79.75458526611328 71.76370239257812 75.75914764404297 75.75914764404297 C 71.76370239257812 79.75458526611328 67.11147308349609 82.89131164550781 61.93170166015625 85.08217620849609 C 56.56977462768555 87.35007476806641 50.87312316894531 88.5 45 88.5 Z" stroke="none"/>
            <path d="M 45 3 C 39.32871246337891 3 33.82865524291992 4.110054016113281 28.65262985229492 6.299339294433594 C 23.65165710449219 8.414573669433594 19.15968322753906 11.44334411621094 15.301513671875 15.301513671875 C 11.44334411621094 19.15968322753906 8.414573669433594 23.65165710449219 6.299339294433594 28.65262985229492 C 4.110054016113281 33.82865524291992 3 39.32871246337891 3 45 C 3 50.67128753662109 4.110054016113281 56.17134475708008 6.299339294433594 61.34737396240234 C 8.414573669433594 66.34834289550781 11.44334411621094 70.84031677246094 15.301513671875 74.698486328125 C 19.15968322753906 78.55665588378906 23.65165710449219 81.58542633056641 28.65262985229492 83.70066070556641 C 33.82865524291992 85.88994598388672 39.32871246337891 87 45 87 C 50.67128753662109 87 56.17134475708008 85.88994598388672 61.34737396240234 83.70066070556641 C 66.34834289550781 81.58542633056641 70.84031677246094 78.55665588378906 74.698486328125 74.698486328125 C 78.55665588378906 70.84031677246094 81.58542633056641 66.34834289550781 83.70066070556641 61.34737396240234 C 85.88994598388672 56.17134475708008 87 50.67128753662109 87 45 C 87 39.32871246337891 85.88994598388672 33.82865524291992 83.70066070556641 28.65262985229492 C 81.58542633056641 23.65165710449219 78.55665588378906 19.15968322753906 74.698486328125 15.301513671875 C 70.84031677246094 11.44334411621094 66.34834289550781 8.414573669433594 61.34737396240234 6.299339294433594 C 56.17134475708008 4.110054016113281 50.67128753662109 3 45 3 M 45 0 C 69.85281372070312 0 90 20.14718627929688 90 45 C 90 69.85281372070312 69.85281372070312 90 45 90 C 20.14718627929688 90 0 69.85281372070312 0 45 C 0 20.14718627929688 20.14718627929688 0 45 0 Z" stroke="none" fill="#88bba9"/>
          </g>
        </g>
        <g id="trabajo-en-equipo" transform="translate(18.777 17.777)">
          <path id="Path_990700" data-name="Path 990700" d="M372.16,389.227H359.07v11.808h14.9v-10l-1.806-1.806Zm0,0" transform="translate(-322.289 -349.357)" fill="#ffe477"/>
          <path id="Path_990701" data-name="Path 990701" d="M426.532,397.29h1.162l1.08-1.449-.635-6.615h-2.051l-.635,6.615Zm0,0" transform="translate(-381.872 -349.357)" fill="#ffb655"/>
          <path id="Path_990702" data-name="Path 990702" d="M9.31,389.227H22.4v11.808H7.5v-10l1.806-1.806Zm0,0" transform="translate(-6.735 -349.357)" fill="#7c84e8"/>
          <path id="Path_990703" data-name="Path 990703" d="M96.371,397.29H95.208l-1.079-1.449.635-6.615h2.051l.635,6.615Zm0,0" transform="translate(-84.487 -349.357)" fill="#515be0"/>
          <path id="Path_990704" data-name="Path 990704" d="M213.625,235.123V239.7l-3.428,3.428h-4.062l-3.428-3.428v-4.572a5.459,5.459,0,1,1,10.918,0Zm0,0" transform="translate(-181.943 -206.139)" fill="#ffdaaa"/>
          <path id="Path_990705" data-name="Path 990705" d="M174.049,375.755V363.31l-2.248-2.248h-16.62l-2.248,2.248v12.445Zm0,0" transform="translate(-137.268 -324.078)" fill="#787680"/>
          <path id="Path_990706" data-name="Path 990706" d="M227.164,372.373h-1.446l-4.932-11.31H232.1Zm0,0" transform="translate(-198.169 -324.077)" fill="#57565c"/>
          <path id="Path_990707" data-name="Path 990707" d="M207.164,372.373h-1.446l-4.932-11.31H212.1Zm0,0" transform="translate(-180.218 -324.077)" fill="#fff"/>
          <path id="Path_990708" data-name="Path 990708" d="M237.168,372.373h1.446l1.343-3.08-.79-8.231h-2.553l-.79,8.231Zm0,0" transform="translate(-211.668 -324.077)" fill="#ff7956"/>
          <path id="Path_990709" data-name="Path 990709" d="M387.61,288.016v3.674l-2.755,2.755h-3.264l-2.755-2.755v-3.674a4.387,4.387,0,0,1,8.774,0Zm0,0" transform="translate(-340.03 -254.576)" fill="#ffdaaa"/>
          <path id="Path_990710" data-name="Path 990710" d="M406.532,397.29h1.162l1.08-1.449-.635-6.615h-2.051l-.635,6.615Zm0,0" transform="translate(-363.921 -349.357)" fill="#d7fc7e"/>
          <path id="Path_990711" data-name="Path 990711" d="M56.278,288.016v3.674l-2.755,2.755H50.259L47.5,291.69v-3.674a4.387,4.387,0,0,1,8.774,0Zm0,0" transform="translate(-42.638 -254.576)" fill="#ffdaaa"/>
          <path id="Path_990712" data-name="Path 990712" d="M76.37,397.29H75.208l-1.079-1.449.635-6.615h2.051l.635,6.615Zm0,0" transform="translate(-66.535 -349.357)" fill="#ffb655"/>
          <path id="Path_990713" data-name="Path 990713" d="M51.264,28.051a18.828,18.828,0,0,0-1.9-4.574l4.218-5.89-5.263-5.263-5.89,4.218a18.827,18.827,0,0,0-4.574-1.9L36.676,7.5H29.233l-1.182,7.145a18.828,18.828,0,0,0-4.574,1.9l-5.89-4.218-5.263,5.263,4.218,5.89a18.828,18.828,0,0,0-1.9,4.574L7.5,29.233v7.444l5,.827a4.387,4.387,0,0,1,7.87,2.668v3.674L17.617,46.6H22.4v-.637l2.248-2.248h6.279L27.5,40.288v-.551a8.706,8.706,0,1,1,10.918,0v.551l-3.428,3.428h6.279l2.248,2.248V46.6h4.78l-2.755-2.755V40.172a4.387,4.387,0,0,1,7.87-2.668l5-.827V29.233Zm0,0" transform="translate(-6.731 -6.732)" fill="#c6c5ca"/>
          <path id="Path_990714" data-name="Path 990714" d="M282.329,276.2a5.518,5.518,0,0,0-.054-.771,8.71,8.71,0,0,1-3.019,4.793v.551l-3.428,3.428H278.9l3.428-3.428Zm0,0" transform="translate(-247.574 -247.217)" fill="#898890"/>
          <path id="Path_990715" data-name="Path 990715" d="M359.07,389.227h3.073v11.808H359.07Zm0,0" transform="translate(-322.289 -349.357)" fill="#ffb655"/>
          <path id="Path_990716" data-name="Path 990716" d="M12.383,389.227H9.31L7.5,391.033v10h3.073v-10Zm0,0" transform="translate(-6.735 -349.357)" fill="#515be0"/>
          <path id="Path_990717" data-name="Path 990717" d="M205.78,239.7v-4.572a5.462,5.462,0,0,1,3.923-5.24,5.463,5.463,0,0,0-7,5.24V239.7l3.428,3.428h3.073L205.78,239.7Zm0,0" transform="translate(-181.943 -206.139)" fill="#ffbb85"/>
          <path id="Path_990718" data-name="Path 990718" d="M202.834,361.063h-2.049l4.932,11.31h1.446l.3-.691Zm0,0" transform="translate(-180.218 -324.078)" fill="#d8d7da"/>
          <path id="Path_990719" data-name="Path 990719" d="M237.873,369.293l.79-8.231h-2.049l-.79,8.231,1.343,3.08h1.446l.3-.691Zm0,0" transform="translate(-211.667 -324.078)" fill="#ff5023"/>
          <path id="Path_990720" data-name="Path 990720" d="M381.909,291.69v-3.674a4.39,4.39,0,0,1,2.851-4.111,4.39,4.39,0,0,0-5.924,4.111v3.674l2.755,2.755h3.073Zm0,0" transform="translate(-340.03 -254.576)" fill="#ffbb85"/>
          <path id="Path_990721" data-name="Path 990721" d="M50.577,291.69v-3.674a4.389,4.389,0,0,1,2.851-4.111,4.391,4.391,0,0,0-5.924,4.111v3.674l2.755,2.755h3.073Zm0,0" transform="translate(-42.638 -254.576)" fill="#ffbb85"/>
          <path id="Path_990722" data-name="Path 990722" d="M158.254,361.063h-3.073l-2.248,2.247v12.445h3.073V363.31Zm0,0" transform="translate(-137.268 -324.078)" fill="#57565c"/>
          <g id="Group_1156535" data-name="Group 1156535" transform="translate(0.768 0.768)">
            <path id="Path_990723" data-name="Path 990723" d="M182.278,16.541a18.827,18.827,0,0,1,4.574-1.9L188.034,7.5h-3.073l-1.182,7.145a18.8,18.8,0,0,0-2.779.982Zm0,0" transform="translate(-163.228 -7.5)" fill="#898890"/>
            <path id="Path_990724" data-name="Path 990724" d="M362.791,58.811l4.1-2.935-1.282-1.282L361,57.9a18.912,18.912,0,0,1,1.8.915Zm0,0" transform="translate(-324.786 -49.77)" fill="#898890"/>
            <path id="Path_990725" data-name="Path 990725" d="M111.256,291.69v-3.674a4.391,4.391,0,0,0-5.924-4.111,4.389,4.389,0,0,1,2.851,4.111v3.674l-2.755,2.755H108.5Zm0,0" transform="translate(-95.311 -255.344)" fill="#898890"/>
            <path id="Path_990726" data-name="Path 990726" d="M10.573,78.943V71.5l7.145-1.182a18.828,18.828,0,0,1,1.9-4.574L15.4,59.853l3.981-3.981L17.587,54.59l-5.263,5.263,4.218,5.89a18.828,18.828,0,0,0-1.9,4.574L7.5,71.5v7.444l5,.827a4.426,4.426,0,0,1,.391-.444Zm0,0" transform="translate(-7.5 -49.766)" fill="#898890"/>
            <path id="Path_990727" data-name="Path 990727" d="M438.2,283.629a4.374,4.374,0,0,0-1.536.277,4.4,4.4,0,0,1,1.946,1.442l2.682-.444A4.373,4.373,0,0,0,438.2,283.629Zm0,0" transform="translate(-392.707 -255.344)" fill="#898890"/>
            <path id="Path_990728" data-name="Path 990728" d="M340.2,361.063h-3.073l2.248,2.247v.637h3.073v-.637Zm0,0" transform="translate(-303.36 -324.846)" fill="#898890"/>
          </g>
          <path id="Path_990729" data-name="Path 990729" d="M160.645,235.624l2.342-2.342v-4.89a6.227,6.227,0,1,0-12.455,0v4.89l2.342,2.342h-4.742l-2.7,2.7v13.531h22.652V238.322l-2.7-2.7Zm.6,1.537-1.935,4.436-.426-4.436Zm-5.765,7.338.7-7.338h1.157l.7,7.338-1.062,2.436h-.44Zm-3.408-16.106a4.691,4.691,0,1,1,9.381,0v4.254l-2.978,2.978h-3.426l-2.978-2.978v-4.254Zm2.568,8.768-.426,4.436-1.935-4.436Zm11.912,13.156h-3.118V242.4H161.9v7.913H151.624V242.4h-1.537v7.913H146.97V238.958l1.8-1.8H150.6l4.932,11.311h2.452l4.932-11.311h1.834l1.8,1.8v11.359Zm0,0" transform="translate(-130.536 -199.407)"/>
          <path id="Path_990730" data-name="Path 990730" d="M379.978,286.942l1.669-1.669v-3.992a5.156,5.156,0,1,0-10.311,0v3.992L373,286.942h-.876v1.536h2.492l-.582,6.068,1.486,2h1.934l1.487-2-.582-6.068h4.489l1.356,1.356v8.915h-2.716v-6.208h-1.536v6.208h-6.928v-6.208h-1.537v7.745h14.253V289.2l-2.256-2.256h-3.51Zm-7.106-5.661a3.619,3.619,0,0,1,7.238,0v3.356l-2.305,2.305h-2.628l-2.3-2.305Zm4.486,12.823-.672.9H376.3l-.672-.9.54-5.625h.656Zm0,0" transform="translate(-333.298 -247.841)"/>
          <path id="Path_990731" data-name="Path 990731" d="M9.257,276.129A5.161,5.161,0,0,0,4.1,281.284v3.993l1.669,1.669H2.26L0,289.2v11.088H14.257v-7.745H12.721v6.208H5.793v-6.208H4.257v6.208H1.54v-8.915L2.9,288.482H7.386L6.8,294.55l1.486,2h1.934l1.486-2-.582-6.068H13.62v-1.537h-.877l1.669-1.669v-3.993a5.161,5.161,0,0,0-5.155-5.155Zm.868,17.978-.672.9H9.062l-.672-.9.539-5.625h.656Zm2.751-9.466-2.3,2.3H7.943l-2.305-2.3v-3.356a3.619,3.619,0,1,1,7.238,0Zm0,0" transform="translate(-0.003 -247.844)"/>
          <path id="Path_990732" data-name="Path 990732" d="M29.293,1.536,30.45,8.528a18.385,18.385,0,0,1,5.3,2.2L41.508,6.6l4.342,4.342L41.724,16.7a18.382,18.382,0,0,1,2.2,5.3l6.991,1.157v6.14l-2.166.359.251,1.516,3.452-.571V21.85L45.14,20.641A19.6,19.6,0,0,0,43.546,16.8l4.313-6.022L41.674,4.588,35.651,8.9a19.621,19.621,0,0,0-3.846-1.595L30.6,0H21.85L20.641,7.306A19.644,19.644,0,0,0,16.8,8.9L10.773,4.588,4.589,10.773,8.9,16.795a19.635,19.635,0,0,0-1.595,3.846L0,21.85V30.6l3.452.571L3.7,29.651l-2.166-.359v-6.14L8.528,22a18.382,18.382,0,0,1,2.2-5.3L6.6,10.938,10.938,6.6,16.7,10.723a18.385,18.385,0,0,1,5.3-2.2l1.157-6.991Zm0,0"/>
          <path id="Path_990733" data-name="Path 990733" d="M181.145,177.777a9.475,9.475,0,1,0-16.34,0l1.324-.78a7.939,7.939,0,1,1,13.692,0Zm0,0" transform="translate(-146.752 -146.752)"/>
          <path id="Path_990734" data-name="Path 990734" d="M422.777,308.163l-1.086-1.086,1.028-1.028h1.537v.637Zm1.478-3.175h-1.537v-1.234a1.051,1.051,0,0,0-.014-.174l1.515-.254a2.592,2.592,0,0,1,.036.428Zm-1.8-1.935a1.057,1.057,0,0,0-.787-.353v-1.536a2.6,2.6,0,0,1,1.933.867Zm0,0" transform="translate(-378.471 -270.315)" fill="#fff"/>
          <path id="Path_990735" data-name="Path 990735" d="M257.513,256.813l-1.086-1.086,1.7-1.7V251.4h1.537v3.261Zm.591-6.317a2.119,2.119,0,0,0-.458-1.016l1.187-.976a3.66,3.66,0,0,1,.789,1.752Zm-1.028-1.5A2.125,2.125,0,0,0,256,248.7v-1.536a3.663,3.663,0,0,1,1.855.5Zm0,0" transform="translate(-229.776 -221.846)" fill="#fff"/>
          <path id="Path_990736" data-name="Path 990736" d="M91.449,308.163l-1.087-1.086,1.028-1.028h1.537v.637Zm1.478-3.175H91.39v-1.234a1.052,1.052,0,0,0-.014-.174l1.516-.254a2.633,2.633,0,0,1,.035.428Zm-1.8-1.935a1.057,1.057,0,0,0-.787-.353v-1.536a2.6,2.6,0,0,1,1.933.867Zm0,0" transform="translate(-81.082 -270.315)" fill="#fff"/>
          <path id="Path_990737" data-name="Path 990737" d="M271.621,105.658A15.588,15.588,0,0,0,260.8,90.791l.473-1.462a17.187,17.187,0,0,1,11.884,16.329ZM259.863,90.52c-.471-.12-.953-.219-1.433-.294l.238-1.518c.528.083,1.058.192,1.575.323Zm-2.4-.415c-.483-.045-.975-.068-1.462-.068V88.5c.534,0,1.074.025,1.6.074Zm0,0" transform="translate(-229.777 -79.435)" fill="#fff"/>
        </g>
      </g>
    </g>
  </g>
</svg>
