<svg xmlns="http://www.w3.org/2000/svg" xmlns:xlink="http://www.w3.org/1999/xlink" width="108" height="108" viewBox="0 0 108 108">
  <defs>
    <filter id="Fondo" x="0" y="0" width="108" height="108" filterUnits="userSpaceOnUse">
      <feOffset dy="3" input="SourceAlpha"/>
      <feGaussianBlur stdDeviation="3" result="blur"/>
      <feFlood flood-opacity="0.161"/>
      <feComposite operator="in" in2="blur"/>
      <feComposite in="SourceGraphic"/>
    </filter>
    <clipPath id="clip-path">
      <rect id="Rectangle_405840" data-name="Rectangle 405840" width="52.132" height="52.47" fill="none"/>
    </clipPath>
  </defs>
  <g id="Group_1157586" data-name="Group 1157586" transform="translate(-69 -1478)">
    <g id="Icono" transform="translate(78.5 789)">
      <g transform="matrix(1, 0, 0, 1, -9.5, 689)" filter="url(#Fondo)">
        <g id="Fondo-2" data-name="Fondo" transform="translate(9 6)" fill="#cfe3dc" stroke="#88bba9" stroke-width="3">
          <circle cx="45" cy="45" r="45" stroke="none"/>
          <circle cx="45" cy="45" r="43.5" fill="none"/>
        </g>
      </g>
      <g id="Group_1145580" data-name="Group 1145580" transform="translate(20.105 712.427)">
        <g id="Group_1145579" data-name="Group 1145579" clip-path="url(#clip-path)">
          <path id="Path_979719" data-name="Path 979719" d="M2.357,42.845C.672,41.88,4.891,39.362,6.1,39.362h5.38V37c0-.132-1.978-.945-2.348-1.188a12.813,12.813,0,0,1-5.007-6.572c-.113-.316-.3-1.455-.382-1.565-.064-.089-1.606-.548-2.031-.838-2.96-2.025-1.8-5.993,1.361-7.007-1.935-4.2-4.523-12.089,2.22-13.249.368-.063.981.082,1.266-.066.091-.048.685-1.123.884-1.37,5.668-7.031,14.818.4,21.491-4.128.54-.367,1.1-1.441,1.907-.847C31.317.529,32.033,3.6,32.145,4.3c.716,4.452,0,8.451-3.532,11.465l-.008,4.011a4.447,4.447,0,0,1,3.437,2.99l2.186,0a2.77,2.77,0,0,1,1.641-3.124,28.3,28.3,0,0,1,7.581.1,2.4,2.4,0,0,1,1.285,1.482c.1.346.1,1.486.149,1.541.234.237,5.868-.216,6.667.046a.784.784,0,0,1,.5.627,32.127,32.127,0,0,1,.009,4.4c-.071.48-.307.8-.822.767-.223-.013-.717-.307-.717-.461V24.453l-.154-.154H44.885c-.144,0,.18,1.8-.713,2.72-1.026,1.059-5.781.9-7.336.769-2.128-.178-2.719-1.5-2.608-3.489H28.591V41.308c.765-.366,2.363-3.146,3.282-2.1.962,1.091-2.013,2.663-1.941,3.164.04.282,3.187,2.987,3.579,3.6,1.323,2.072-1.657,3.551-2.665,4.97H50.521V30.7c0-.189.594-.556.717-.564.355-.022.9.439.827.864l0,20.607a.8.8,0,0,1-.591.844L1.7,52.47c-.438-.045-.62-.474-.675-.862a45.691,45.691,0,0,1,0-6.357c.066-.445.455-.917.924-.869a1.966,1.966,0,0,1,.615.461v5.994h4.15L8.4,49.1c-.533-.1-2.266-.326-2.437-.894L6.148,41a3.51,3.51,0,0,0-1.528.571C3.911,42,3.186,43.32,2.357,42.845M13.63,3.5A6.658,6.658,0,0,0,8.816,5.91c-.6.736-1,2.394-1.892,2.408-1.02.016-1.288-.419-2.545.123-3.095,1.334-1.61,6.238-.765,8.609A25.768,25.768,0,0,0,4.73,19.672c.479.284,1.938-.766,2.278-1.123.8-.839,1.724-3.627,2.017-3.825.49-.33,2.235.645,2.862.865C16.193,17.1,20.365,17.634,24.75,16c6.2-2.31,7.06-7.913,5.275-13.731-2.591,1.79-5.592,1.964-8.662,1.848C18.868,4.023,16.1,3.372,13.63,3.5m-4,13.935a7.79,7.79,0,0,1-3.106,3.4c-.3.139-1.35.341-1.4.4a41.638,41.638,0,0,0,.128,5.958,10.841,10.841,0,0,0,7.86,8.689,10.752,10.752,0,0,0,9.725-1.906c5.6-4.42,3.977-10.871,4.211-17.152a19.879,19.879,0,0,1-14.424.744c-.432-.132-2.5-1.053-2.641-1.026-.207.04-.332.7-.355.9m28.284,8.812c1.592.056,3.172-.1,4.762-.105a.906.906,0,0,0,.469-.351,23.678,23.678,0,0,0,.1-3.9.954.954,0,0,0-.354-.671,37.086,37.086,0,0,0-4.977-.1c-.6,0-1.512-.366-1.971.335a14.1,14.1,0,0,0-.187,3.717c.163,1.345,1.133,1.034,2.157,1.071M3.587,21.43a2.268,2.268,0,0,0,0,4.508Zm26.644,1.332c.07-.492-1.316-1.4-1.587-1.334l-.053,1.334ZM27.054,39.669v-8.2a14.62,14.62,0,0,1-4.683,4.693c-.251.153-1.773.792-1.773.891v2.306c2.147.095,4.361-.251,6.456.307m-8.1-1.332c0-.112.311-.687-.059-.806-.077-.025-1.256.274-1.532.291a14.449,14.449,0,0,1-4.25-.3v2.254a14.246,14.246,0,0,0,1.742.922c.309.157.962.625,1.256.6l2.778-1.508a5.1,5.1,0,0,0,.065-1.445M9.223,40.9H7.789l-.3,6.45c3.444.612,4.389.944,1.429,3.592H11.99Zm2.768,4.2a12.209,12.209,0,0,0,2.657-2.7c-.06-.2-3.249-2.025-3.785-1.5Zm9.222-4.2c-1.479-.265-2.522.929-3.791,1.436L20.035,45.1ZM20.5,49.4l3.973-3.967-.176-4.493-1.454.015Zm6.542-8.079L25.928,41l.1,2.869c.214-.2.934-.766,1-1a8.835,8.835,0,0,0,.007-1.551M16.087,46.738l1.339-1.889-1.388-1.392-1.474,1.4,1.31,1.815Zm10.455,1.743A19.47,19.47,0,0,0,28.8,50.688c.4-.6,3.38-3.115,3.469-3.51.1-.432-1.664-1.93-2.035-2.283-1.048-1-.974-1.839-2.308-.72-.972.815-1.86,1.968-2.807,2.835-.03.209,1.211,1.247,1.426,1.471M13.426,50.018l1.541-1.992-1.594-2c-1.547.937-.071,2.619.053,3.993m5.189-3.988-1.5,1.885,1.483,2a14.425,14.425,0,0,0,.881-2.919c-.021-.252-.672-.991-.866-.964m6.595,3.475c-.264-.25-1.032-1.286-1.362-1.218l-2.532,2.5c-.044.237.105.134.253.152a23.259,23.259,0,0,0,2.512,0c.853,0,1.709,0,2.562,0a12.466,12.466,0,0,0-1.435-1.433M17.319,50.94,16.039,49.3l-1.18,1.639Z" transform="translate(0 0)" fill="#020202"/>
          <path id="Path_979720" data-name="Path 979720" d="M161.951,124.231c-.123.008-.717.375-.717.564v20.237H141.558c1.008-1.419,3.988-2.9,2.665-4.97-.392-.614-3.538-3.318-3.579-3.6-.072-.5,2.9-2.073,1.941-3.164-.919-1.043-2.517,1.737-3.282,2.1V118.391h5.636c-.11,1.993.48,3.31,2.609,3.488,1.555.13,6.31.29,7.336-.769.893-.921.569-2.72.713-2.72h5.482l.154.154v3.689c0,.154.495.448.717.461Zm-4.232,2.429a.787.787,0,0,0-.426-1.307H143.449c-1.085.28-.777,1.6.309,1.546,4.214-.335,9.093.432,13.228,0a1.37,1.37,0,0,0,.733-.24m0,4.508a.782.782,0,0,0-.532-1.3H143.555a.77.77,0,0,0,0,1.541c4.279-.336,9.233.44,13.431,0a1.372,1.372,0,0,0,.733-.24m0,3.441a1.371,1.371,0,0,0-.733-.241c-4.2-.436-9.153.34-13.431,0a.77.77,0,0,0,0,1.541h13.633a.782.782,0,0,0,.532-1.3m-2.053,4.512a1.3,1.3,0,0,0-.73-.244,64.7,64.7,0,0,0-9.227.006c-1.228.163-1.229,1.473.1,1.638a63.731,63.731,0,0,0,9.12,0c.741-.1,1.371-.8.736-1.4" transform="translate(-110.712 -94.091)" fill="#e3e3e3"/>
          <path id="Path_979721" data-name="Path 979721" d="M9.9,201.61c.829.475,1.553-.847,2.262-1.273a3.512,3.512,0,0,1,1.528-.571l-.182,7.2c.171.569,1.9.795,2.437.894L14.255,209.6H10.1v-5.994a1.967,1.967,0,0,0-.615-.461Z" transform="translate(-7.542 -158.764)" fill="#505e73"/>
          <path id="Path_979722" data-name="Path 979722" d="M46.316,81.468c.023-.2.148-.857.355-.9.139-.027,2.209.895,2.641,1.026a19.879,19.879,0,0,0,14.424-.744c-.234,6.281,1.39,12.732-4.211,17.152A10.751,10.751,0,0,1,49.8,99.912a14.528,14.528,0,0,1-3.488-9.064,71,71,0,0,1,0-9.379m2.838,4.846c-1.353-1.555-2.082,2.647-.815,2.921,1.415.306,1.234-2.44.815-2.921m7.589-.218c-.92.179-.762,2.873-.176,3.1,1.584.622,1.606-3.381.176-3.1m-7.421,6.882c-1.232,1.2,2.157,2.472,3.095,2.524,1.082.061,4.711-.885,3.847-2.412-.546-.965-1.608.355-2.189.591a3.42,3.42,0,0,1-2.529.029c-.693-.255-1.542-1.4-2.223-.733" transform="translate(-36.683 -64.034)" fill="#f7c0ae"/>
          <path id="Path_979723" data-name="Path 979723" d="M54.144,12.288c2.471-.127,5.239.524,7.733.619,3.07.116,6.071-.058,8.662-1.848,1.785,5.819.929,11.421-5.275,13.731-4.385,1.633-8.557,1.1-12.862-.411a9.492,9.492,0,0,1,.325-10.485c.421-.593.98-1.041,1.417-1.606" transform="translate(-40.514 -8.789)" fill="#505e74"/>
          <path id="Path_979724" data-name="Path 979724" d="M23.339,17.049c-.438.565-1,1.013-1.417,1.606A9.492,9.492,0,0,0,21.6,29.14c-.628-.22-2.373-1.195-2.862-.865-.293.2-1.219,2.986-2.017,3.825-.34.357-1.8,1.407-2.278,1.122A25.744,25.744,0,0,1,13.323,30.6c-.845-2.37-2.329-7.274.765-8.608,1.258-.542,1.525-.107,2.545-.123.89-.014,1.3-1.672,1.892-2.408a6.657,6.657,0,0,1,4.814-2.411" transform="translate(-9.709 -13.55)" fill="#3a475a"/>
          <path id="Path_979725" data-name="Path 979725" d="M32.683,103.387a10.841,10.841,0,0,1-7.86-8.689,41.637,41.637,0,0,1-.128-5.958c.048-.055,1.1-.256,1.4-.4a7.789,7.789,0,0,0,3.106-3.4,71.037,71.037,0,0,0,0,9.379,14.527,14.527,0,0,0,3.488,9.064" transform="translate(-19.565 -67.509)" fill="#e89d8e"/>
          <path id="Path_979726" data-name="Path 979726" d="M183.944,107.91c.042-.251-.205-.7-.205-.871v-3.484c0-.141.212-.56.205-.768a37.056,37.056,0,0,1,4.977.1.955.955,0,0,1,.354.671,23.7,23.7,0,0,1-.1,3.9.908.908,0,0,1-.469.351c-1.59.008-3.171.162-4.762.105" transform="translate(-146.027 -81.663)" fill="#f8c1ae"/>
          <path id="Path_979727" data-name="Path 979727" d="M38.218,199.265l2.767,10.042H37.91c2.96-2.648,2.016-2.98-1.428-3.592l.3-6.45Z" transform="translate(-28.994 -158.366)" fill="#4f5d72"/>
          <path id="Path_979728" data-name="Path 979728" d="M133.007,218.735c.37.353,2.133,1.851,2.035,2.283-.089.395-3.069,2.911-3.469,3.51a19.453,19.453,0,0,1-2.254-2.207Z" transform="translate(-102.776 -173.84)" fill="#f7c0ad"/>
          <path id="Path_979729" data-name="Path 979729" d="M99.866,207.943l2.343-8.445,1.454-.015.177,4.493Z" transform="translate(-79.369 -158.54)" fill="#4f5d72"/>
          <path id="Path_979730" data-name="Path 979730" d="M127.482,213.884l-3.689,3.586c-.215-.224-1.456-1.262-1.426-1.471.947-.867,1.835-2.02,2.807-2.835,1.334-1.118,1.26-.281,2.308.72" transform="translate(-97.25 -168.989)" fill="#eeab99"/>
          <path id="Path_979731" data-name="Path 979731" d="M176.237,102.542c.007.209-.205.627-.205.768v3.484c0,.172.247.62.205.871-1.025-.036-1.995.274-2.157-1.071a14.093,14.093,0,0,1,.187-3.718c.459-.7,1.372-.337,1.971-.335" transform="translate(-138.32 -81.419)" fill="#e4a494"/>
          <path id="Path_979732" data-name="Path 979732" d="M76.5,186.785a5.1,5.1,0,0,1-.065,1.445l-2.778,1.508c-.294.028-.947-.439-1.256-.6v-2.05Z" transform="translate(-57.538 -148.448)" fill="#f6c0ad"/>
          <path id="Path_979733" data-name="Path 979733" d="M54.058,203.1l-1.128-4.2c.536-.526,3.725,1.3,3.785,1.5a12.211,12.211,0,0,1-2.658,2.7" transform="translate(-42.066 -158.001)" fill="#eaeaea"/>
          <path id="Path_979734" data-name="Path 979734" d="M88.676,199.121l-1.178,4.2-2.613-2.764c1.269-.507,2.312-1.7,3.791-1.436" transform="translate(-67.463 -158.222)" fill="#ededed"/>
          <path id="Path_979735" data-name="Path 979735" d="M69.753,183.611l-4.1.307v2.05a14.23,14.23,0,0,1-1.742-.922v-2.254a14.448,14.448,0,0,0,4.25.3c.276-.017,1.455-.316,1.532-.291.37.119.062.694.059.806" transform="translate(-50.794 -145.274)" fill="#e49a8c"/>
          <path id="Path_979736" data-name="Path 979736" d="M9.674,104.413v4.508a2.268,2.268,0,0,1,0-4.508" transform="translate(-6.087 -82.982)" fill="#df9688"/>
          <path id="Path_979737" data-name="Path 979737" d="M107.722,236.471l-1.127,1.434a23.259,23.259,0,0,1-2.512,0c-.148-.018-.3.085-.253-.152l2.532-2.5c.33-.068,1.1.968,1.362,1.218" transform="translate(-82.512 -186.965)" fill="#384557"/>
          <path id="Path_979738" data-name="Path 979738" d="M72.484,215.013l-.212-.064-1.311-1.815,1.474-1.4,1.388,1.392Z" transform="translate(-56.396 -168.274)" fill="#f24664"/>
          <path id="Path_979739" data-name="Path 979739" d="M84.894,224.264c.194-.027.844.712.866.964a14.428,14.428,0,0,1-.881,2.919l-1.483-2Z" transform="translate(-66.279 -178.234)" fill="#ececec"/>
          <path id="Path_979740" data-name="Path 979740" d="M62.5,228.233c-.124-1.374-1.6-3.056-.053-3.993l1.594,2Z" transform="translate(-49.07 -178.215)" fill="#ececec"/>
          <path id="Path_979741" data-name="Path 979741" d="M127.436,200.088a8.834,8.834,0,0,1-.007,1.551c-.067.229-.788.8-1,1l-.1-2.869Z" transform="translate(-100.397 -158.764)" fill="#4e5b70"/>
          <path id="Path_979742" data-name="Path 979742" d="M74.859,241.841H72.4l1.18-1.639Z" transform="translate(-57.539 -190.901)" fill="#e84360"/>
          <path id="Path_979743" data-name="Path 979743" d="M118.462,241.2a12.45,12.45,0,0,1,1.435,1.433c-.853.005-1.709,0-2.562,0Z" transform="translate(-93.252 -191.694)" fill="#505e74"/>
          <path id="Path_979744" data-name="Path 979744" d="M140.943,105.726H139.3l.053-1.334c.271-.064,1.657.842,1.587,1.334" transform="translate(-110.711 -82.964)" fill="#e49a8c"/>
          <path id="Path_979745" data-name="Path 979745" d="M171.153,153.62a1.37,1.37,0,0,1-.733.24c-4.135.43-9.014-.337-13.228,0-1.086.051-1.393-1.266-.309-1.546h13.844a.787.787,0,0,1,.426,1.307" transform="translate(-124.146 -121.051)" fill="#030303"/>
          <path id="Path_979746" data-name="Path 979746" d="M171.207,175.6a1.371,1.371,0,0,1-.733.24c-4.2.436-9.153-.34-13.432,0a.77.77,0,0,1,0-1.541h13.633a.782.782,0,0,1,.532,1.3" transform="translate(-124.2 -138.521)" fill="#010101"/>
          <path id="Path_979747" data-name="Path 979747" d="M171.207,195.953a.782.782,0,0,1-.532,1.3H157.042a.77.77,0,0,1,0-1.541c4.279.336,9.233-.44,13.432,0a1.371,1.371,0,0,1,.733.24" transform="translate(-124.2 -155.434)" fill="#010101"/>
          <path id="Path_979748" data-name="Path 979748" d="M176.949,217.826c.636.6.005,1.3-.736,1.4a63.733,63.733,0,0,1-9.12,0c-1.331-.166-1.33-1.476-.1-1.638a64.685,64.685,0,0,1,9.227-.006,1.3,1.3,0,0,1,.73.244" transform="translate(-131.994 -172.795)" fill="#0b0b0b"/>
          <path id="Path_979749" data-name="Path 979749" d="M60.544,140.109c.681-.664,1.531.478,2.223.733a3.42,3.42,0,0,0,2.529-.029c.581-.236,1.643-1.556,2.189-.591.864,1.527-2.765,2.473-3.847,2.412-.938-.053-4.327-1.323-3.095-2.524" transform="translate(-47.906 -111.164)" fill="#050403"/>
          <path id="Path_979750" data-name="Path 979750" d="M55.064,107.222c.419.481.6,3.226-.815,2.921-1.267-.274-.538-4.476.815-2.921" transform="translate(-42.593 -84.942)" fill="#0a0707"/>
          <path id="Path_979751" data-name="Path 979751" d="M95.206,107.441c1.43-.278,1.408,3.726-.176,3.1-.586-.23-.745-2.925.176-3.1" transform="translate(-75.146 -85.378)" fill="#050403"/>
        </g>
      </g>
    </g>
  </g>
</svg>
