<svg xmlns="http://www.w3.org/2000/svg" xmlns:xlink="http://www.w3.org/1999/xlink" width="108" height="108" viewBox="0 0 108 108">
  <defs>
    <filter id="Fondo" x="0" y="0" width="108" height="108" filterUnits="userSpaceOnUse">
      <feOffset dy="3" input="SourceAlpha"/>
      <feGaussianBlur stdDeviation="3" result="blur"/>
      <feFlood flood-opacity="0.161"/>
      <feComposite operator="in" in2="blur"/>
      <feComposite in="SourceGraphic"/>
    </filter>
  </defs>
  <g id="Group_1157588" data-name="Group 1157588" transform="translate(-69 -1478)">
    <g id="Icono" transform="translate(78.5 789)">
      <g transform="matrix(1, 0, 0, 1, -9.5, 689)" filter="url(#Fondo)">
        <g id="Fondo-2" data-name="Fondo" transform="translate(9 6)" fill="#cfe3dd" stroke="#88bba9" stroke-width="3">
          <circle cx="45" cy="45" r="45" stroke="none"/>
          <circle cx="45" cy="45" r="43.5" fill="none"/>
        </g>
      </g>
      <g id="Group_1143620" data-name="Group 1143620" transform="translate(13.126 708.624)">
        <g id="Group_1143619" data-name="Group 1143619" transform="translate(0.925 0.926)">
          <path id="Path_978590" data-name="Path 978590" d="M342.5,196.931l-22.37-22.38a.879.879,0,0,1,0-1.243l2.663-4.559,3.166-1.27,13.225,10.141,3.314,5.924Z" transform="translate(-281.602 -147.881)" fill="#808b95"/>
          <path id="Path_978591" data-name="Path 978591" d="M383.314,169.981v-4.656L380,164.057l-7.555-8.988-2.79-2.79a.879.879,0,0,0-1.243,0l-2.024,1.225.387.412Z" transform="translate(-322.417 -134.318)" fill="#5e6b75"/>
          <g id="Group_1143608" data-name="Group 1143608" transform="translate(11.826 19.831)">
            <path id="Path_978592" data-name="Path 978592" d="M272.37,186.715c-.754-.829-1.718-1.09-2.5-.307h0c.6-.835,1.049-2,.121-2.9a1.844,1.844,0,0,0-2.311-.253l-.085-.122a2.124,2.124,0,0,0-.113-2.747,1.715,1.715,0,0,0-2.028-.333l-.068-.1c.742-.742.239-1.664-.467-2.441-.754-.829-2.111-.5-2.894.287l-6.59,6.59a3.861,3.861,0,0,1-3.247,1.117l-2.427-.956-.559.556a3.241,3.241,0,0,0-.917,2.752l.688,3.21a3.811,3.811,0,0,1-1.078,3.235l-6.451,6.451,8.2,8.2,9.681-9.681a5.241,5.241,0,0,1,2.049-1.266,13.671,13.671,0,0,0,5.436-2.929l4.985-4.985c.742-.742,1.285-2.6.578-3.378Z" transform="translate(-224.61 -176.096)" fill="#ffece4"/>
            <path id="Path_978593" data-name="Path 978593" d="M104.054,350.082l20.927-20.987c.343-.343.993-.816,1.462-.45l7.466,7.466c.551.522-.035,1.475-.378,1.819l-1.252,1.281-8.988,7.556-1.268,3.316h-17.97Z" transform="translate(-104.054 -309.013)" fill="#9dcffd"/>
            <g id="Group_1143606" data-name="Group 1143606" transform="translate(20.927 18.344)">
              <path id="Path_978594" data-name="Path 978594" d="M285.023,326.811l-7.466-7.466a.879.879,0,0,0-1.243,0l-1.476,1.48a.879.879,0,0,1,1.084.126l7.467,7.466a.879.879,0,0,1,0,1.243l1.634-1.606A.879.879,0,0,0,285.023,326.811Z" transform="translate(-274.838 -319.087)" fill="#84c4f4"/>
            </g>
            <g id="Group_1143607" data-name="Group 1143607" transform="translate(25.151)">
              <path id="Path_978595" data-name="Path 978595" d="M332.741,179.36a1.95,1.95,0,0,0-2.822-.068l.533-.533A1.95,1.95,0,0,0,327.695,176l.266-.266a1.95,1.95,0,0,0-2.757-2.757l.227-.227a1.986,1.986,0,0,0,.1-2.728,1.95,1.95,0,0,0-2.822-.068l-7.727,7.727a1.883,1.883,0,0,1-2.663,0l-1.426-1.426-1.585,1.587,1.426,1.426a1.883,1.883,0,0,0,2.663,0l7.727-7.727a1.95,1.95,0,0,1,2.822.068,1.986,1.986,0,0,1-.1,2.728l-.227.227a1.95,1.95,0,0,1,2.757,2.757l-.266.266a1.95,1.95,0,0,1,2.757,2.758l-.533.533a1.95,1.95,0,0,1,2.822.068,1.983,1.983,0,0,1-.047,2.669l1.528-1.528A1.986,1.986,0,0,0,332.741,179.36Z" transform="translate(-309.313 -169.383)" fill="#ffdacc"/>
            </g>
          </g>
          <g id="Group_1143613" data-name="Group 1143613" transform="translate(0 11.835)">
            <g id="Group_1143612" data-name="Group 1143612" transform="translate(8.113 16.827)">
              <g id="Group_1143611" data-name="Group 1143611">
                <g id="Group_1143610" data-name="Group 1143610">
                  <path id="Path_978596" data-name="Path 978596" d="M105.255,270.146l-7.727-7.727c-.735-.735.051-2.54.786-3.276l.634-.658-2.143-2.143a3.241,3.241,0,0,0-2.752-.917l-3.21.688a3.811,3.811,0,0,1-3.235-1.078l-6.549-6.329-7.307,7.307,9.681,9.681a5.241,5.241,0,0,1,1.266,2.049,13.67,13.67,0,0,0,2.929,5.436l6.279,6.279a1.986,1.986,0,0,0,2.728.1,1.95,1.95,0,0,0,.068-2.822l.533.533a1.95,1.95,0,1,0,2.757-2.757l.266.266a1.95,1.95,0,1,0,2.757-2.757l.227.227a2.033,2.033,0,0,0,1.772.569,2.194,2.194,0,0,0,.238-2.674Z" transform="translate(-73.753 -247.817)" fill="#ffdacc"/>
                  <g id="Group_1143609" data-name="Group 1143609" transform="translate(6.605)">
                    <path id="Path_978597" data-name="Path 978597" d="M127.653,243.236l6.956,6.942a3.811,3.811,0,0,0,3.235,1.078l3.21-.688a3.242,3.242,0,0,1,2.752.917l1.566,1.58a1.892,1.892,0,0,1,.238-.29l1.426-1.426-2.143-2.143a3.241,3.241,0,0,0-2.752-.917l-3.21.688a3.811,3.811,0,0,1-3.235-1.078l-6.451-6.451Z" transform="translate(-127.653 -241.448)" fill="#fcccb9"/>
                    <path id="Path_978598" data-name="Path 978598" d="M266.575,348.579l-7.727-7.727a1.884,1.884,0,0,1-.4-2.061l-1.187,1.187a1.883,1.883,0,0,0,0,2.663l7.727,7.727a1.945,1.945,0,0,1,.567,1.5,1.885,1.885,0,0,0,.956-.465A1.95,1.95,0,0,0,266.575,348.579Z" transform="translate(-240.892 -326.863)" fill="#fcccb9"/>
                  </g>
                </g>
              </g>
            </g>
            <path id="Path_978599" data-name="Path 978599" d="M7.546,135.849l14.307,12.94,6.751,8.123-6.154,6.154a.879.879,0,0,1-1.243,0l-2.79-2.79-7.555-8.988-3.315-1.523Z" transform="translate(-7.546 -131.962)" fill="#fd8087"/>
            <path id="Path_978600" data-name="Path 978600" d="M29.916,126.52,7.546,104.125v3.887L28.54,129a.884.884,0,0,1,.063.071l1.312-1.312A.879.879,0,0,0,29.916,126.52Z" transform="translate(-7.546 -104.125)" fill="#fe646f"/>
          </g>
          <g id="Group_1143618" data-name="Group 1143618">
            <g id="Group_1143617" data-name="Group 1143617" transform="translate(0 8.21)">
              <g id="Group_1143616" data-name="Group 1143616">
                <g id="Group_1143615" data-name="Group 1143615">
                  <path id="Path_978601" data-name="Path 978601" d="M31.588,74.541l-9.681,9.681a5.241,5.241,0,0,1-2.049,1.266,13.671,13.671,0,0,0-5.436,2.929L8.143,94.7a1.986,1.986,0,0,0-.1,2.728,1.95,1.95,0,0,0,2.822.068l-.533.533a1.95,1.95,0,0,0,2.757,2.758l-.266.266a1.95,1.95,0,0,0,2.757,2.757l-.227.227a1.986,1.986,0,0,0-.1,2.728c.754.829,1.525,0,2.309-.787L25.361,98.2c.735-.735,2.7-.546,3.44.189l.976.976,1.6-1.6c.722-.722.7-2.2.557-3.207l-.688-3.21c-.17-1.188.961-2.256,1.809-3.105l6.058-6.173Z" transform="translate(-7.546 -74.541)" fill="#ffece4"/>
                  <g id="Group_1143614" data-name="Group 1143614" transform="translate(7.518)">
                    <path id="Path_978602" data-name="Path 978602" d="M93.618,82.737l-8.2-8.2-.944.944,6.6,6.6L84.63,88.539a3.811,3.811,0,0,0-1.078,3.235l.688,3.21a3.242,3.242,0,0,1-.917,2.752l.028.033-1.426-1.426a1.883,1.883,0,0,0-2.663,0l-9.9,9.836a1.952,1.952,0,0,1-.467.346,1.881,1.881,0,0,0,.182.235,1.95,1.95,0,0,0,2.822.068L79.629,99.1a1.883,1.883,0,0,1,2.663,0l1.426,1.426,2.143-2.143a3.241,3.241,0,0,0,.917-2.752l-.688-3.21a3.811,3.811,0,0,1,1.078-3.235Z" transform="translate(-68.898 -74.541)" fill="#ffdacc"/>
                  </g>
                </g>
              </g>
            </g>
            <path id="Path_978603" data-name="Path 978603" d="M179.823,7.543l-8.046,10.405L158.533,28.794l-6.251-6.251a.879.879,0,0,1,0-1.243l2.886-2.886,8.987-7.556,1.268-3.316Z" transform="translate(-134.321 -7.543)" fill="#abdc94"/>
            <path id="Path_978604" data-name="Path 978604" d="M226.429,7.543,205.138,28.794l1.216,1.216a.879.879,0,0,0,1.243,0L230.1,7.543Z" transform="translate(-180.926 -7.543)" fill="#8ccf75"/>
          </g>
          <path id="Path_978605" data-name="Path 978605" d="M190.959,26.857c-.649-1.948-.549-3.625-2-5.077L182.679,15.5c-1.61-1.771-2.875-1.185-2.981-.964a1.95,1.95,0,0,0,.381,2.219l-.533-.533a1.95,1.95,0,0,0-2.757,2.757l-.266-.266a1.95,1.95,0,0,0-2.757,2.757l-.227-.227a1.986,1.986,0,0,0-2.728-.1,1.95,1.95,0,0,0-.068,2.822l7.727,7.727a1.883,1.883,0,0,1,0,2.663l-1.426,1.426,2.143,2.143a3.241,3.241,0,0,0,2.752.917l3.21-.688a4.378,4.378,0,0,1,3.375,1.219.875.875,0,0,1,.249-.5L194.642,33c-.7-1.1-3.459-5.469-3.684-6.143Zm-17.173-5.365.247.247Z" transform="translate(-150.245 -13.441)" fill="#ffdacc"/>
          <path id="Path_978606" data-name="Path 978606" d="M257.893,21.9l4.929,5.237,1.637-1.637a.875.875,0,0,1,.466-.244L261.569,21.9a5.241,5.241,0,0,1-1.266-2.049,13.671,13.671,0,0,0-2.929-5.436L251.1,8.141a1.986,1.986,0,0,0-2.728-.1,1.95,1.95,0,0,0-.449.6l5.78,5.78a13.67,13.67,0,0,1,2.929,5.436,5.24,5.24,0,0,0,1.266,2.049Z" transform="translate(-218.464 -7.544)" fill="#fcccb9"/>
        </g>
        <path id="Path_978607" data-name="Path 978607" d="M54.483,41.332c1.1-.791,1.164-1.047,7.394-7.221a2.877,2.877,0,0,0-1.386-4.873,2.87,2.87,0,0,0-2.456-3.329,2.869,2.869,0,0,0-2.5-3.025A2.862,2.862,0,0,0,50.976,20.4c-2.018-1.884-2.215-2.552-3.208-2.676-2.656-2.808-3.612-3.219-4.132-4.777A22.618,22.618,0,0,0,42.412,9.9l8.342-8.326a.919.919,0,1,0-1.3-1.3l-8.018,8c-.789-1.1-.927-1.045-7.231-7.405A2.877,2.877,0,0,0,29.333,2.26,2.87,2.87,0,0,0,26,4.717a2.867,2.867,0,0,0-3.025,2.5A2.863,2.863,0,0,0,20.5,11.775c-1.912,2.052-2.643,2.293-2.771,3.3-2.8,2.652-3.22,3.613-4.778,4.133A22.559,22.559,0,0,0,9.895,20.44L1.576,12.112a.919.919,0,0,0-1.3,1.3l8,8c-1.092.786-1.064.948-7.4,7.226a2.877,2.877,0,0,0,1.386,4.873,2.87,2.87,0,0,0,2.456,3.329,2.868,2.868,0,0,0,2.5,3.025,2.864,2.864,0,0,0,4.558,2.484c2.014,1.88,2.214,2.552,3.208,2.675,2.646,2.8,3.612,3.218,4.132,4.777a22.423,22.423,0,0,0,1.247,3.089L12.1,61.177a.919.919,0,1,0,1.3,1.3l7.939-7.962c.768,1.058.9,1.014,7.2,7.366a2.946,2.946,0,0,0,2.085.871,2.851,2.851,0,0,0,2.788-2.258,2.869,2.869,0,0,0,3.329-2.456,2.864,2.864,0,0,0,3.023-2.5,2.862,2.862,0,0,0,2.485-4.559c1.912-2.052,2.643-2.293,2.771-3.3l2.113-2.113a.919.919,0,1,0-1.3-1.3l-1.619,1.619L37.26,38.923a4.74,4.74,0,0,0,.753-3.381l-.681-3.176a2.334,2.334,0,0,1,.661-1.943l1.493-1.493a5.908,5.908,0,0,0,1.578,1.337l-1.018,1.018a.919.919,0,0,0,1.3,1.3c1.44-1.442,1.106-1.106,2.878-2.878,8.158-8,7.7-8.052,8.48-8.028a1.037,1.037,0,0,1,.666,1.8l-.225.225,0,0L47.725,29.12a.92.92,0,0,0,.65,1.569c.689,0,.445-.2,6.068-5.687A1.031,1.031,0,0,1,55.9,26.459l-4.917,4.917a.919.919,0,0,0,1.3,1.3l4.651-4.651a1.031,1.031,0,1,1,1.457,1.458l-5.522,5.523a.919.919,0,0,0,1.3,1.3l4.994-4.995a1.03,1.03,0,0,1,1.488.041,1.071,1.071,0,0,1-.074,1.46L54.3,39.09A12.313,12.313,0,0,1,49.512,41.7a.919.919,0,1,0,.595,1.739,21.364,21.364,0,0,0,2.754-1.13l8.314,8.317a.919.919,0,0,0,1.3-1.3Zm-4.83-19.654-6.728,6.728a.965.965,0,0,1-1.363,0l-1.427-1.43,7.405-7.409ZM21.773,13.1l1.793,1.793a.919.919,0,1,0,1.3-1.3L22.073,10.8a1.03,1.03,0,0,1,.037-1.493,1.071,1.071,0,0,1,1.46.074l5.645,5.645a.919.919,0,0,0,1.3-1.3l-5.42-5.42a1.031,1.031,0,0,1,1.46-1.455l4.917,4.917a.919.919,0,1,0,1.3-1.3L28.118,5.814a1.031,1.031,0,0,1,1.46-1.455L35.1,9.882a.919.919,0,1,0,1.3-1.3l-4.99-4.99A1.03,1.03,0,0,1,31.447,2.1a1.071,1.071,0,0,1,1.46.074l6.279,6.279a12.956,12.956,0,0,1,2.707,5.077c.7,2.109,2.087,2.839,4.083,5l-7,7a4.894,4.894,0,0,0-3.343-.791l-3.177.681a2.335,2.335,0,0,1-1.943-.661l-1.493-1.493a5.917,5.917,0,0,0,1.337-1.578L31.378,22.7a.919.919,0,1,0,1.3-1.3L27.7,16.423a.919.919,0,1,0-1.3,1.3l2.1,2.1a.965.965,0,0,1,0,1.363c-1.884,1.888-1.459,1.467-1.525,1.528l-7.41-7.41ZM9.3,40.737a1.071,1.071,0,0,1,.069-1.454l5.65-5.65a.919.919,0,0,0-1.3-1.3L8.306,37.75a1.031,1.031,0,1,1-1.457-1.458l4.917-4.917a.919.919,0,1,0-1.3-1.3L5.816,34.727A1.031,1.031,0,1,1,4.358,33.27l5.522-5.523a.919.919,0,0,0-1.3-1.3L3.59,31.438A1.028,1.028,0,0,1,2.1,31.4a1.071,1.071,0,0,1,.074-1.46l6.279-6.279a12.955,12.955,0,0,1,5.077-2.707c2.109-.7,2.838-2.086,5-4.083l6.958,6.958a4.74,4.74,0,0,0-.753,3.381l.681,3.176a2.334,2.334,0,0,1-.661,1.943l-1.493,1.493a5.948,5.948,0,0,0-1.577-1.338L22.7,31.469a.919.919,0,1,0-1.3-1.3l-10.6,10.6A1.031,1.031,0,0,1,9.3,40.737ZM40.639,53.446a1.071,1.071,0,0,1-1.46-.074l-5.645-5.645a.919.919,0,0,0-1.3,1.3l5.42,5.42a1.031,1.031,0,0,1-1.46,1.455l-4.917-4.917a.919.919,0,0,0-1.3,1.3l4.653,4.653a1.031,1.031,0,0,1-1.46,1.455l-5.522-5.523a.919.919,0,1,0-1.3,1.3l4.993,4.993a1.03,1.03,0,0,1-.04,1.49,1.071,1.071,0,0,1-1.46-.074L23.564,54.3a12.955,12.955,0,0,1-2.707-5.077c-.7-2.11-2.089-2.841-4.083-5l1.345-1.345a.919.919,0,1,0-1.3-1.3l-1.612,1.612L13.1,41.075l6.728-6.728a.963.963,0,0,1,1.363,0c1.939,1.939,1.295,1.3,1.43,1.43l-2.966,2.966a.919.919,0,0,0,1.3,1.3l2.78-2.78a4.74,4.74,0,0,0,3.381.753l3.176-.681A2.334,2.334,0,0,1,32.232,38l1.493,1.493a5.919,5.919,0,0,0-1.337,1.578l-1.018-1.018a.919.919,0,1,0-1.3,1.3l10.6,10.6a1.03,1.03,0,0,1-.037,1.493Zm.337-3.792-6.728-6.728a.965.965,0,0,1,0-1.363c1.881-1.884,1.462-1.469,1.526-1.528l7.41,7.41ZM36.694,29.123a4.172,4.172,0,0,0-1.166,3.594l.681,3.177a2.8,2.8,0,0,1-.938,2.529L33.531,36.7a4.172,4.172,0,0,0-3.594-1.165l-3.177.681a3.029,3.029,0,0,1-2.454-.839l1.749-1.742a4.172,4.172,0,0,0,1.166-3.594l-.681-3.177a2.8,2.8,0,0,1,.944-2.532l1.733,1.73a4.171,4.171,0,0,0,3.594,1.165l3.176-.68a3.481,3.481,0,0,1,2.431.848l-1.725,1.733Z" transform="translate(0 0)"/>
      </g>
    </g>
  </g>
</svg>
