<svg xmlns="http://www.w3.org/2000/svg" xmlns:xlink="http://www.w3.org/1999/xlink" width="108" height="108" viewBox="0 0 108 108">
  <defs>
    <filter id="Path_978624" x="0" y="0" width="108" height="108" filterUnits="userSpaceOnUse">
      <feOffset dy="3" input="SourceAlpha"/>
      <feGaussianBlur stdDeviation="3" result="blur"/>
      <feFlood flood-opacity="0.161"/>
      <feComposite operator="in" in2="blur"/>
      <feComposite in="SourceGraphic"/>
    </filter>
  </defs>
  <g id="Group_1157554" data-name="Group 1157554" transform="translate(-1166.5 -2124.545)">
    <g id="Group_1144531" data-name="Group 1144531" transform="translate(979.5 271.545)">
      <g transform="matrix(1, 0, 0, 1, 187, 1853)" filter="url(#Path_978624)">
        <g id="Path_978624-2" data-name="Path 978624" transform="translate(9 6)" fill="#cfe3dc">
          <path d="M 45 88.5 C 39.12687683105469 88.5 33.43022537231445 87.35007476806641 28.06830024719238 85.08217620849609 C 22.88852500915527 82.89131164550781 18.23629951477051 79.75458526611328 14.2408504486084 75.75914764404297 C 10.24541282653809 71.76370239257812 7.108687400817871 67.11147308349609 4.917825222015381 61.93170166015625 C 2.649924993515015 56.56977462768555 1.5 50.87312316894531 1.5 45 C 1.5 39.12687683105469 2.649924993515015 33.43022537231445 4.917825222015381 28.06830024719238 C 7.108687400817871 22.88852500915527 10.24541282653809 18.23629951477051 14.2408504486084 14.2408504486084 C 18.23629951477051 10.24541282653809 22.88852500915527 7.108687400817871 28.06830024719238 4.917825222015381 C 33.43022537231445 2.649924993515015 39.12687683105469 1.5 45 1.5 C 50.87312316894531 1.5 56.56977462768555 2.649924993515015 61.93170166015625 4.917825222015381 C 67.11147308349609 7.108687400817871 71.76370239257812 10.24541282653809 75.75914764404297 14.2408504486084 C 79.75458526611328 18.23629951477051 82.89131164550781 22.88852500915527 85.08217620849609 28.06830024719238 C 87.35007476806641 33.43022537231445 88.5 39.12687683105469 88.5 45 C 88.5 50.87312316894531 87.35007476806641 56.56977462768555 85.08217620849609 61.93170166015625 C 82.89131164550781 67.11147308349609 79.75458526611328 71.76370239257812 75.75914764404297 75.75914764404297 C 71.76370239257812 79.75458526611328 67.11147308349609 82.89131164550781 61.93170166015625 85.08217620849609 C 56.56977462768555 87.35007476806641 50.87312316894531 88.5 45 88.5 Z" stroke="none"/>
          <path d="M 45 3 C 39.32871246337891 3 33.82865524291992 4.110054016113281 28.65262985229492 6.299339294433594 C 23.65165710449219 8.414573669433594 19.15968322753906 11.44334411621094 15.301513671875 15.301513671875 C 11.44334411621094 19.15968322753906 8.414573669433594 23.65165710449219 6.299339294433594 28.65262985229492 C 4.110054016113281 33.82865524291992 3 39.32871246337891 3 45 C 3 50.67128753662109 4.110054016113281 56.17134475708008 6.299339294433594 61.34737396240234 C 8.414573669433594 66.34834289550781 11.44334411621094 70.84031677246094 15.301513671875 74.698486328125 C 19.15968322753906 78.55665588378906 23.65165710449219 81.58542633056641 28.65262985229492 83.70066070556641 C 33.82865524291992 85.88994598388672 39.32871246337891 87 45 87 C 50.67128753662109 87 56.17134475708008 85.88994598388672 61.34737396240234 83.70066070556641 C 66.34834289550781 81.58542633056641 70.84031677246094 78.55665588378906 74.698486328125 74.698486328125 C 78.55665588378906 70.84031677246094 81.58542633056641 66.34834289550781 83.70066070556641 61.34737396240234 C 85.88994598388672 56.17134475708008 87 50.67128753662109 87 45 C 87 39.32871246337891 85.88994598388672 33.82865524291992 83.70066070556641 28.65262985229492 C 81.58542633056641 23.65165710449219 78.55665588378906 19.15968322753906 74.698486328125 15.301513671875 C 70.84031677246094 11.44334411621094 66.34834289550781 8.414573669433594 61.34737396240234 6.299339294433594 C 56.17134475708008 4.110054016113281 50.67128753662109 3 45 3 M 45 0 C 69.85281372070312 0 90 20.14718627929688 90 45 C 90 69.85281372070312 69.85281372070312 90 45 90 C 20.14718627929688 90 0 69.85281372070312 0 45 C 0 20.14718627929688 20.14718627929688 0 45 0 Z" stroke="none" fill="#88bba9"/>
        </g>
      </g>
      <g id="juez" transform="translate(213.381 1874.709)">
        <g id="Group_1145530" data-name="Group 1145530" transform="translate(0.809 0.809)">
          <g id="Group_1145500" data-name="Group 1145500" transform="translate(7.52)">
            <g id="Group_1145478" data-name="Group 1145478" transform="translate(7.107)">
              <path id="Path_979580" data-name="Path 979580" d="M145.775,38.625h2.639l.395-.148V34.608a10.051,10.051,0,0,0,14.63,0v3.869l.395.148h2.639a2.7,2.7,0,0,0,2.7-2.7v-17.1A11.328,11.328,0,0,0,157.842,7.5h-3.436a11.328,11.328,0,0,0-11.328,11.328v17.1A2.7,2.7,0,0,0,145.775,38.625Z" transform="translate(-143.078 -7.5)" fill="#554e56"/>
            </g>
            <g id="Group_1145481" data-name="Group 1145481" transform="translate(18.608 0)">
              <g id="Group_1145479" data-name="Group 1145479">
                <path id="Path_979581" data-name="Path 979581" d="M257.9,18.235h1.338a2.158,2.158,0,0,1,2.158,2.158v2.989h.549a3.507,3.507,0,0,1,2.322.875V18.828A11.328,11.328,0,0,0,252.941,7.5h-3.263A11.716,11.716,0,0,1,257.9,18.235Z" transform="translate(-249.678 -7.5)" fill="#433f43"/>
              </g>
              <g id="Group_1145480" data-name="Group 1145480" transform="translate(8.86 22.051)">
                <path id="Path_979582" data-name="Path 979582" d="M331.8,220.816l.395.148h2.639a2.7,2.7,0,0,0,2.7-2.7v-6.377a3.508,3.508,0,0,1-2.322.875h-.919a10.16,10.16,0,0,1-2.49,4.343v3.708Z" transform="translate(-331.801 -211.889)" fill="#433f43"/>
              </g>
            </g>
            <g id="Group_1145484" data-name="Group 1145484" transform="translate(5.907 15.881)">
              <g id="Group_1145482" data-name="Group 1145482">
                <path id="Path_979583" data-name="Path 979583" d="M136.132,159.022V155.6a2.033,2.033,0,0,1,.209-.895h-.865a3.522,3.522,0,0,0,0,7.044h1.032A10.042,10.042,0,0,1,136.132,159.022Z" transform="translate(-131.953 -154.705)" fill="#ffb09e"/>
              </g>
              <g id="Group_1145483" data-name="Group 1145483" transform="translate(23.938)">
                <path id="Path_979584" data-name="Path 979584" d="M354.867,154.705h-.656v4.317a10.042,10.042,0,0,1-.376,2.727h1.032a3.522,3.522,0,1,0,0-7.044Z" transform="translate(-353.835 -154.705)" fill="#f89580"/>
              </g>
            </g>
            <g id="Group_1145499" data-name="Group 1145499" transform="translate(0 10.735)">
              <g id="Group_1145498" data-name="Group 1145498">
                <path id="Path_979585" data-name="Path 979585" d="M445.861,350.4h4.064l-1.295-8.49a6.473,6.473,0,0,0-4.13-5.087l-.108-.04v8.762h1.468a.54.54,0,0,1,.539.539v3.776A.54.54,0,0,1,445.861,350.4Z" transform="translate(-404.778 -311.991)" fill="#0067c5"/>
                <path id="Path_979586" data-name="Path 979586" d="M101.78,312.255v-3.776a.54.54,0,0,1,.539-.539h14.607v-8.722l-12.255-4.588h-.122l-6.906,13.178a.324.324,0,0,1-.573,0L90.164,294.63h-.122l-6.79,2.542a1.477,1.477,0,0,1-.963,1.435,2.244,2.244,0,0,0-1.311,1.354l-.386,1.058.381.139a.883.883,0,0,1,.527,1.132l-1.774,4.864a.882.882,0,0,1-1.132.527l-.381-.139-.386,1.058a2.244,2.244,0,0,0,.132,1.88,1.475,1.475,0,0,1-.754,2.106l.039.209H102.32A.54.54,0,0,1,101.78,312.255Z" transform="translate(-77.204 -274.387)" fill="#004281"/>
                <g id="Group_1145485" data-name="Group 1145485" transform="translate(22.787 20.243)">
                  <path id="Path_979587" data-name="Path 979587" d="M293.1,294.63l-.61.931-4.071,7.767h16.936v-4.11Z" transform="translate(-288.419 -294.63)" fill="#0055a3"/>
                </g>
                <g id="Group_1145486" data-name="Group 1145486" transform="translate(26.324 20.243)">
                  <path id="Path_979588" data-name="Path 979588" d="M334.6,303.328v-4.11l-12.255-4.588h-.122l-1.022,1.951,9.332,3.494a1.079,1.079,0,0,1,.7,1.01v2.243Z" transform="translate(-321.197 -294.63)" fill="#004281"/>
                </g>
                <g id="Group_1145487" data-name="Group 1145487" transform="translate(3.388 20.243)">
                  <path id="Path_979589" data-name="Path 979589" d="M111.175,297.729a1.474,1.474,0,0,1-.874.878,2.244,2.244,0,0,0-1.311,1.354l-.386,1.058.381.139a.883.883,0,0,1,.527,1.132l-.379,1.038h13.6l-4.071-7.767-.61-.931-6.79,2.542A1.472,1.472,0,0,1,111.175,297.729Z" transform="translate(-108.604 -294.63)" fill="#0055a3"/>
                </g>
                <g id="Group_1145489" data-name="Group 1145489" transform="translate(36.356 28.941)">
                  <g id="Group_1145488" data-name="Group 1145488">
                    <path id="Path_979590" data-name="Path 979590" d="M414.19,375.252h3.366v4.612H414.19Z" transform="translate(-414.19 -375.252)" fill="#00366d"/>
                  </g>
                </g>
                <g id="Group_1145491" data-name="Group 1145491" transform="translate(14.806 20.364)">
                  <g id="Group_1145490" data-name="Group 1145490">
                    <path id="Path_979591" data-name="Path 979591" d="M220.165,295.873a.647.647,0,0,0-.747,0l-4.973,3.516,5.06,9.654a.324.324,0,0,0,.573,0l5.06-9.654Z" transform="translate(-214.445 -295.754)" fill="#fff"/>
                  </g>
                </g>
                <g id="Group_1145492" data-name="Group 1145492" transform="translate(18.47 22.262)">
                  <path id="Path_979592" data-name="Path 979592" d="M252.974,313.35l-4.573,8.727,1.4,2.664a.324.324,0,0,0,.573,0l5.06-9.654Z" transform="translate(-248.401 -313.35)" fill="#f9f3f1"/>
                </g>
                <g id="Group_1145493" data-name="Group 1145493" transform="translate(12.838 16.373)">
                  <path id="Path_979593" data-name="Path 979593" d="M203.513,261.923a10.04,10.04,0,0,1-7.315-3.158v3.869l2.019,3.853,4.984-3.524a.54.54,0,0,1,.623,0l4.984,3.524,2.019-3.853v-3.869A10.04,10.04,0,0,1,203.513,261.923Z" transform="translate(-196.198 -258.765)" fill="#f9f3f1"/>
                </g>
                <g id="Group_1145495" data-name="Group 1145495" transform="translate(22.993 16.373)">
                  <g id="Group_1145494" data-name="Group 1145494">
                    <path id="Path_979594" data-name="Path 979594" d="M291.432,261.115v1.254a1.078,1.078,0,0,1-.123.5l-.986,1.881,2.456,1.736,2.019-3.853v-3.869A10.111,10.111,0,0,1,291.432,261.115Z" transform="translate(-290.323 -258.765)" fill="#efe2dd"/>
                  </g>
                </g>
                <g id="Group_1145496" data-name="Group 1145496" transform="translate(9.977 0)">
                  <path id="Path_979595" data-name="Path 979595" d="M169.685,113.042v3.422a10.175,10.175,0,0,0,20.351,0v-7.306A2.158,2.158,0,0,0,187.878,107h-4.806a2.158,2.158,0,0,0-1.886,1.11l-.138.248a4.911,4.911,0,0,1-4.293,2.526h-4.912a2.158,2.158,0,0,0-2.158,2.158Z" transform="translate(-169.685 -107)" fill="#ffcebf"/>
                </g>
                <g id="Group_1145497" data-name="Group 1145497" transform="translate(18.952)">
                  <path id="Path_979596" data-name="Path 979596" d="M262.092,107h-2.448a2.2,2.2,0,0,1,1.335,2.021v7.437a10.36,10.36,0,0,1-8.105,10.111,10.177,10.177,0,0,0,11.376-10.1v-7.306A2.158,2.158,0,0,0,262.092,107Z" transform="translate(-252.874 -107)" fill="#ffb09e"/>
                </g>
              </g>
            </g>
          </g>
          <g id="Group_1145523" data-name="Group 1145523" transform="translate(0.656 30.253)">
            <g id="Group_1145520" data-name="Group 1145520">
              <g id="Group_1145501" data-name="Group 1145501" transform="translate(12.671 10.522)">
                <path id="Path_979597" data-name="Path 979597" d="M146.949,393.37a.539.539,0,0,1-.692.322l-15.228-5.555c.008-.017.015-.033.022-.051l.947-2.6c.006-.018.011-.035.016-.053l15.228,5.555a.539.539,0,0,1,.322.692Z" transform="translate(-131.03 -385.438)" fill="#a44f3e"/>
              </g>
              <g id="Group_1145502" data-name="Group 1145502" transform="translate(13.214 10.522)">
                <path id="Path_979598" data-name="Path 979598" d="M151.731,390.994,136.5,385.439c0,.018-.01.035-.016.053l-.426,1.167,13.88,5.063a.539.539,0,0,1,.322.692l-.355.974.839.306a.539.539,0,0,0,.692-.322l.615-1.686A.539.539,0,0,0,151.731,390.994Z" transform="translate(-136.061 -385.439)" fill="#883f2e"/>
              </g>
              <g id="Group_1145503" data-name="Group 1145503" transform="translate(9.518 8.729)">
                <path id="Path_979599" data-name="Path 979599" d="M103.324,368.815l2.185.8a.845.845,0,0,1,.5,1.083l-.947,2.6a.845.845,0,0,1-1.083.5L101.8,373Z" transform="translate(-101.798 -368.815)" fill="#528fd8"/>
              </g>
              <g id="Group_1145504" data-name="Group 1145504" transform="translate(9.518 8.729)">
                <path id="Path_979600" data-name="Path 979600" d="M103.324,368.815l2.185.8a.845.845,0,0,1,.5,1.083l-.947,2.6a.845.845,0,0,1-1.083.5L101.8,373Z" transform="translate(-101.798 -368.815)" fill="#c96e59"/>
              </g>
              <g id="Group_1145505" data-name="Group 1145505" transform="translate(10.634 8.729)">
                <path id="Path_979601" data-name="Path 979601" d="M114.744,369.612l-2.185-.8-.409,1.122,1.047.382a.845.845,0,0,1,.5,1.083l-.827,2.268.345.126a.845.845,0,0,0,1.083-.5l.947-2.6A.845.845,0,0,0,114.744,369.612Z" transform="translate(-112.15 -368.815)" fill="#bb5d4c"/>
              </g>
              <g id="Group_1145519" data-name="Group 1145519">
                <g id="Group_1145506" data-name="Group 1145506" transform="translate(0 11.747)">
                  <path id="Path_979602" data-name="Path 979602" d="M13.677,400.075a1.58,1.58,0,0,1,.938-.943,2.144,2.144,0,0,0,1.247-1.29l.383-1.05,5.306,1.936-.383,1.05a2.144,2.144,0,0,0,.124,1.79,1.585,1.585,0,0,1-1.922,2.271l-4.747-1.732A1.585,1.585,0,0,1,13.677,400.075Z" transform="translate(-13.58 -396.793)" fill="#0573ce"/>
                </g>
                <g id="Group_1145507" data-name="Group 1145507" transform="translate(0 11.747)">
                  <path id="Path_979603" data-name="Path 979603" d="M13.677,400.075a1.58,1.58,0,0,1,.938-.943,2.144,2.144,0,0,0,1.247-1.29l.383-1.05,5.306,1.936-.383,1.05a2.144,2.144,0,0,0,.124,1.79,1.585,1.585,0,0,1-1.922,2.271l-4.747-1.732A1.585,1.585,0,0,1,13.677,400.075Z" transform="translate(-13.58 -396.793)" fill="#a44f3e"/>
                </g>
                <g id="Group_1145509" data-name="Group 1145509" transform="translate(4.804 12.873)">
                  <g id="Group_1145508" data-name="Group 1145508">
                    <path id="Path_979604" data-name="Path 979604" d="M60.895,409.086l.383-1.05-2.22-.81-.8,1.86a2.144,2.144,0,0,0,.124,1.79,1.579,1.579,0,0,1-.268,1.912l.986.36a1.585,1.585,0,0,0,1.922-2.271A2.144,2.144,0,0,1,60.895,409.086Z" transform="translate(-58.111 -407.226)" fill="#883f2e"/>
                  </g>
                </g>
                <g id="Group_1145510" data-name="Group 1145510" transform="translate(1.034 11.747)">
                  <path id="Path_979605" data-name="Path 979605" d="M24.416,397.843l.383-1.05,5.306,1.936-.383,1.05a2.144,2.144,0,0,0,.124,1.79l-6.677-2.436A2.144,2.144,0,0,0,24.416,397.843Z" transform="translate(-23.169 -396.793)" fill="#c96e59"/>
                </g>
                <g id="Group_1145512" data-name="Group 1145512" transform="translate(4.812 12.873)">
                  <g id="Group_1145511" data-name="Group 1145511">
                    <path id="Path_979606" data-name="Path 979606" d="M60.955,409.086l.383-1.05-2.22-.81-.8,1.86a2.273,2.273,0,0,0-.137.732l2.9,1.058A2.144,2.144,0,0,1,60.955,409.086Z" transform="translate(-58.179 -407.226)" fill="#bb5d4c"/>
                  </g>
                </g>
                <g id="Group_1145513" data-name="Group 1145513" transform="translate(5.05)">
                  <path id="Path_979607" data-name="Path 979607" d="M60.39,293.118l.383-1.05a2.144,2.144,0,0,0-.124-1.79,1.585,1.585,0,0,1,1.922-2.271l4.747,1.732a1.585,1.585,0,0,1,.008,2.975A2.144,2.144,0,0,0,66.079,294l-.383,1.05Z" transform="translate(-60.39 -287.91)" fill="#0573ce"/>
                </g>
                <g id="Group_1145514" data-name="Group 1145514" transform="translate(5.05)">
                  <path id="Path_979608" data-name="Path 979608" d="M60.39,293.118l.383-1.05a2.144,2.144,0,0,0-.124-1.79,1.585,1.585,0,0,1,1.922-2.271l4.747,1.732a1.585,1.585,0,0,1,.008,2.975A2.144,2.144,0,0,0,66.079,294l-.383,1.05Z" transform="translate(-60.39 -287.91)" fill="#a44f3e"/>
                </g>
                <g id="Group_1145515" data-name="Group 1145515" transform="translate(8.093 1.296)">
                  <path id="Path_979609" data-name="Path 979609" d="M92.478,300.454l-1.459-.532a1.585,1.585,0,0,1-.733,2.416,2.144,2.144,0,0,0-1.247,1.29l-.447,1.316,2.263.826.383-1.05a2.144,2.144,0,0,1,1.247-1.29,1.585,1.585,0,0,0-.008-2.975Z" transform="translate(-88.592 -299.922)" fill="#883f2e"/>
                </g>
                <g id="Group_1145517" data-name="Group 1145517" transform="translate(5.05 2.368)">
                  <g id="Group_1145516" data-name="Group 1145516">
                    <path id="Path_979610" data-name="Path 979610" d="M60.39,312.7l.383-1.05a2.144,2.144,0,0,0-.124-1.79l6.677,2.436a2.144,2.144,0,0,0-1.247,1.29l-.383,1.05Z" transform="translate(-60.39 -309.857)" fill="#c96e59"/>
                  </g>
                </g>
                <g id="Group_1145518" data-name="Group 1145518" transform="translate(8.093 3.877)">
                  <path id="Path_979611" data-name="Path 979611" d="M89.946,323.846a2.191,2.191,0,0,0-.908,1.124l-.447,1.316,2.263.826.383-1.05a2.144,2.144,0,0,1,1.247-1.29Z" transform="translate(-88.592 -323.846)" fill="#bb5d4c"/>
                </g>
              </g>
            </g>
            <g id="Group_1145521" data-name="Group 1145521" transform="translate(1.7 4.952)">
              <path id="Path_979612" data-name="Path 979612" d="M38.307,336.013l-5.865-2.139a.991.991,0,0,0-1.27.591L29.4,339.329a.991.991,0,0,0,.591,1.27l5.864,2.139a.991.991,0,0,0,1.27-.591l1.774-4.864A.991.991,0,0,0,38.307,336.013Z" transform="translate(-29.338 -333.814)" fill="#d8aa5e"/>
            </g>
            <g id="Group_1145522" data-name="Group 1145522" transform="translate(3.209 4.952)">
              <path id="Path_979613" data-name="Path 979613" d="M50.785,336.013l-5.864-2.139a.991.991,0,0,0-1.27.591l-.325.892,4.727,1.724a.991.991,0,0,1,.591,1.27l-1.449,3.972,1.138.415a.991.991,0,0,0,1.27-.591l1.774-4.864A.991.991,0,0,0,50.785,336.013Z" transform="translate(-43.325 -333.814)" fill="#c99c56"/>
            </g>
          </g>
          <g id="Group_1145524" data-name="Group 1145524" transform="translate(32.096 44.287)">
            <path id="Path_979614" data-name="Path 979614" d="M321.507,422.855H305.539a.539.539,0,0,1-.539-.539v-3.776a.54.54,0,0,1,.539-.539h15.967a.54.54,0,0,1,.539.539v3.776A.539.539,0,0,1,321.507,422.855Z" transform="translate(-305 -418)" fill="#fe7d43"/>
          </g>
          <g id="Group_1145525" data-name="Group 1145525" transform="translate(32.096 44.287)">
            <path id="Path_979615" data-name="Path 979615" d="M321.507,418h-1.618v2.158a.539.539,0,0,1-.539.539H305v1.618a.539.539,0,0,0,.539.539h15.967a.539.539,0,0,0,.539-.539v-3.776A.54.54,0,0,0,321.507,418Z" transform="translate(-305 -418)" fill="#fd6930"/>
          </g>
          <g id="Group_1145526" data-name="Group 1145526" transform="translate(42.238 44.287)">
            <path id="Path_979616" data-name="Path 979616" d="M399,418h3.237v4.855H399Z" transform="translate(-399 -418)" fill="#d8aa5e"/>
          </g>
          <g id="Group_1145527" data-name="Group 1145527" transform="translate(42.238 46.985)">
            <path id="Path_979617" data-name="Path 979617" d="M399,443h3.237v2.158H399Z" transform="translate(-399 -443)" fill="#c99c56"/>
          </g>
          <g id="Group_1145528" data-name="Group 1145528" transform="translate(0 49.034)">
            <path id="Path_979618" data-name="Path 979618" d="M60.58,466.585H8.039a.54.54,0,0,1-.539-.539v-3.506A.54.54,0,0,1,8.039,462H60.58a.54.54,0,0,1,.539.539v3.506A.54.54,0,0,1,60.58,466.585Z" transform="translate(-7.5 -462)" fill="#c96e59"/>
          </g>
          <g id="Group_1145529" data-name="Group 1145529" transform="translate(0 49.034)">
            <path id="Path_979619" data-name="Path 979619" d="M60.58,462H56.642v1.888a.539.539,0,0,1-.539.539H7.5v1.618a.54.54,0,0,0,.539.539H60.58a.54.54,0,0,0,.539-.539v-3.506A.54.54,0,0,0,60.58,462Z" transform="translate(-7.5 -462)" fill="#bb5d4c"/>
          </g>
        </g>
        <g id="Group_1145531" data-name="Group 1145531" transform="translate(0 0)">
          <path id="Path_979620" data-name="Path 979620" d="M242.76,167.757a.809.809,0,1,0,0-1.618.951.951,0,0,1-.2-1.879,1.276,1.276,0,0,0,1.014-1.252v-.886a.809.809,0,0,0-1.618,0v.628a2.569,2.569,0,0,0,.809,5.007Z" transform="translate(-214.278 -143.91)"/>
          <path id="Path_979621" data-name="Path 979621" d="M215.933,157.709a.809.809,0,0,0,.809-.809v-1.59a.809.809,0,0,0-1.618,0v1.59A.809.809,0,0,0,215.933,157.709Z" transform="translate(-191.915 -137.832)"/>
          <path id="Path_979622" data-name="Path 979622" d="M298.685,154.5a.809.809,0,0,0-.809.809v1.59a.809.809,0,1,0,1.618,0v-1.59A.809.809,0,0,0,298.685,154.5Z" transform="translate(-265.739 -137.832)"/>
          <path id="Path_979623" data-name="Path 979623" d="M234.809,240.118h4.855a.809.809,0,1,0,0-1.618h-4.855a.809.809,0,1,0,0,1.618Z" transform="translate(-208.755 -212.769)"/>
          <path id="Path_979624" data-name="Path 979624" d="M278.683,132.657a.823.823,0,0,0,.1-.006l4.315-.539a.809.809,0,1,0-.2-1.606l-4.315.539a.809.809,0,0,0,.1,1.612Z" transform="translate(-247.896 -116.42)"/>
          <path id="Path_979625" data-name="Path 979625" d="M257.309,323.834a.809.809,0,0,0,.809-.809v-.216a.809.809,0,0,0-1.618,0v.216A.809.809,0,0,0,257.309,323.834Z" transform="translate(-228.827 -287.261)"/>
          <path id="Path_979626" data-name="Path 979626" d="M258.118,356.525v-.216a.809.809,0,1,0-1.618,0v.216a.809.809,0,1,0,1.618,0Z" transform="translate(-228.827 -317.146)"/>
          <path id="Path_979627" data-name="Path 979627" d="M54.159,49.062l-.4-2.61a.809.809,0,0,0-1.6.244l.357,2.339H50.761v-3.4a1.35,1.35,0,0,0-1.349-1.349h-.551v-6.6a5.669,5.669,0,0,1,2.521,3.9l.21,1.38a.809.809,0,0,0,1.6-.244l-.21-1.38a7.289,7.289,0,0,0-4.646-5.722l-8.273-3.1a3.512,3.512,0,0,0,2.274-3.282V23.2a4.32,4.32,0,0,0,0-5.976V12.137A12.151,12.151,0,0,0,30.2,0H26.764a12.174,12.174,0,0,0-8.918,3.905A.809.809,0,0,0,19.035,5a10.552,10.552,0,0,1,7.729-3.385H30.2A10.531,10.531,0,0,1,40.719,12.137v4.017a4.3,4.3,0,0,0-1.252-.265V13.7A2.97,2.97,0,0,0,36.5,10.735H31.694A2.968,2.968,0,0,0,29.1,12.261l-.138.248a4.1,4.1,0,0,1-3.586,2.11H20.465a2.965,2.965,0,0,0-2.426,1.263h-.28a4.309,4.309,0,0,0-1.513.273V12.137a10.447,10.447,0,0,1,.87-4.2A.809.809,0,0,0,15.632,7.3a12.054,12.054,0,0,0-1.005,4.841v5.088a4.32,4.32,0,0,0,0,5.976v6.036A3.512,3.512,0,0,0,16.9,32.52l-1.9.712a2.384,2.384,0,0,0-1.279-1.1L8.973,30.4a2.394,2.394,0,0,0-2.9,3.431,1.329,1.329,0,0,1,.068,1.113l-.1.266a1.8,1.8,0,0,0-1.8,1.18L2.465,41.252a1.8,1.8,0,0,0,.619,2.063l-.1.266a1.329,1.329,0,0,1-.768.808,2.394,2.394,0,0,0,.012,4.494l.414.151h-1.3A1.35,1.35,0,0,0,0,50.383v3.506a1.35,1.35,0,0,0,1.349,1.349H53.889a1.35,1.35,0,0,0,1.349-1.349V50.383a1.351,1.351,0,0,0-1.079-1.321Zm-5.017-3.156v3.129h-2.05V45.906Zm-15.7-1.618A1.35,1.35,0,0,0,32.1,45.636v3.4h-1l.338-.928a1.35,1.35,0,0,0-.8-1.729l-1.376-.5a1.13,1.13,0,0,0,.235-.3l2.242-4.279H47.243v2.994Zm12.029,1.618v3.129H43.856V45.906Zm-3.237,0v3.129H33.715V45.906ZM28.482,32.886l4.25,3.005-2.2,4.207v0L28.482,44l-4.25-8.11Zm-5.008,1.559-1.5-2.857V29.853A10.926,10.926,0,0,0,27.07,31.9Zm6.42-2.543a10.927,10.927,0,0,0,5.094-2.049v1.735l-1.5,2.857ZM27.257,45.149,16.688,41.294h8.549Zm2.561,2.657-.43,1.179L15.27,43.835l.215-.59.215-.59Zm17.425-10.87v2.74H32.576l3.606-6.881ZM39.467,21.008v-3.5a2.713,2.713,0,0,1-.168,5.411,11,11,0,0,0,.168-1.916Zm-.584,3.536h.324a4.309,4.309,0,0,0,1.513-.273v4.966a1.89,1.89,0,0,1-1.888,1.888H36.606V28.393A11,11,0,0,0,38.882,24.544ZM19.116,17.586a1.35,1.35,0,0,1,1.349-1.349h4.912a5.723,5.723,0,0,0,5-2.942l.138-.248a1.349,1.349,0,0,1,1.179-.694H36.5A1.35,1.35,0,0,1,37.848,13.7v7.306a9.366,9.366,0,0,1-18.732,0V17.586Zm-4.071,2.627a2.717,2.717,0,0,1,2.455-2.7c0,.024,0,.049,0,.073v3.422a11,11,0,0,0,.168,1.916A2.716,2.716,0,0,1,15.045,20.213Zm1.2,9.024V24.271a4.309,4.309,0,0,0,1.513.273h.324a11,11,0,0,0,2.276,3.849v2.732H18.133A1.89,1.89,0,0,1,16.245,29.237Zm-2.512,7.386a2.391,2.391,0,0,0,1.511-1.756l5.538-2.073,3.606,6.881H14.555l-.971-.354a1.806,1.806,0,0,0-.718-1.621l.1-.268a1.329,1.329,0,0,1,.768-.808Zm.7,4.769-.947,2.6a.034.034,0,0,1-.018.02.033.033,0,0,1-.027,0l-1.332-.486.971-2.663,1.332.486A.035.035,0,0,1,14.438,41.393ZM7.424,32.382a.776.776,0,0,1,1-.463l4.748,1.732a.776.776,0,0,1,.224,1.331l-6-2.188a.771.771,0,0,1,.033-.411Zm4.411,3.755a3.092,3.092,0,0,0-.391.741l-.072.2L7.587,35.693l.072-.2a3.1,3.1,0,0,0,.178-.819Zm-7.849,5.67L5.76,36.943a.178.178,0,0,1,.094-.1.178.178,0,0,1,.139-.006l5.864,2.139a.182.182,0,0,1,.109.233L10.191,44.07a.182.182,0,0,1-.233.109L4.094,42.04a.182.182,0,0,1-.108-.233ZM8.365,45.32l-.072.2a3.092,3.092,0,0,0-.178.818l-4-1.458a3.093,3.093,0,0,0,.391-.741l.072-.2,1.02.372ZM2.347,46.961a.776.776,0,0,1,.214-.93l6,2.188a.774.774,0,0,1-.033.411.761.761,0,0,1-.337.4H7.367L2.785,47.363a.77.77,0,0,1-.438-.4ZM53.62,53.62h-52V50.653H13.7a.809.809,0,0,0,0-1.618H10.1a2.388,2.388,0,0,0-.216-1.85,1.329,1.329,0,0,1-.068-1.113h0l.1-.268c.036,0,.072,0,.108,0a1.808,1.808,0,0,0,1.486-.783l1.385.505a1.645,1.645,0,0,0,1.594-.259L24.8,49.035H17.478a.809.809,0,1,0,0,1.618H53.62Z" transform="translate(0 0)"/>
        </g>
      </g>
    </g>
  </g>
</svg>
