<svg xmlns="http://www.w3.org/2000/svg" xmlns:xlink="http://www.w3.org/1999/xlink" width="108" height="108" viewBox="0 0 108 108">
  <defs>
    <filter id="Path_978624" x="0" y="0" width="108" height="108" filterUnits="userSpaceOnUse">
      <feOffset dy="3" input="SourceAlpha"/>
      <feGaussianBlur stdDeviation="3" result="blur"/>
      <feFlood flood-opacity="0.161"/>
      <feComposite operator="in" in2="blur"/>
      <feComposite in="SourceGraphic"/>
    </filter>
  </defs>
  <g id="Group_1157577" data-name="Group 1157577" transform="translate(-326 -1666.123)">
    <g id="Group_1145467" data-name="Group 1145467" transform="translate(125 1346.123)">
      <g transform="matrix(1, 0, 0, 1, 201, 320)" filter="url(#Path_978624)">
        <g id="Path_978624-2" data-name="Path 978624" transform="translate(9 6)" fill="#cfe3dc">
          <path d="M 45 88.5 C 39.12687683105469 88.5 33.43022537231445 87.35007476806641 28.06830024719238 85.08217620849609 C 22.88852500915527 82.89131164550781 18.23629951477051 79.75458526611328 14.2408504486084 75.75914764404297 C 10.24541282653809 71.76370239257812 7.108687400817871 67.11147308349609 4.917825222015381 61.93170166015625 C 2.649924993515015 56.56977462768555 1.5 50.87312316894531 1.5 45 C 1.5 39.12687683105469 2.649924993515015 33.43022537231445 4.917825222015381 28.06830024719238 C 7.108687400817871 22.88852500915527 10.24541282653809 18.23629951477051 14.2408504486084 14.2408504486084 C 18.23629951477051 10.24541282653809 22.88852500915527 7.108687400817871 28.06830024719238 4.917825222015381 C 33.43022537231445 2.649924993515015 39.12687683105469 1.5 45 1.5 C 50.87312316894531 1.5 56.56977462768555 2.649924993515015 61.93170166015625 4.917825222015381 C 67.11147308349609 7.108687400817871 71.76370239257812 10.24541282653809 75.75914764404297 14.2408504486084 C 79.75458526611328 18.23629951477051 82.89131164550781 22.88852500915527 85.08217620849609 28.06830024719238 C 87.35007476806641 33.43022537231445 88.5 39.12687683105469 88.5 45 C 88.5 50.87312316894531 87.35007476806641 56.56977462768555 85.08217620849609 61.93170166015625 C 82.89131164550781 67.11147308349609 79.75458526611328 71.76370239257812 75.75914764404297 75.75914764404297 C 71.76370239257812 79.75458526611328 67.11147308349609 82.89131164550781 61.93170166015625 85.08217620849609 C 56.56977462768555 87.35007476806641 50.87312316894531 88.5 45 88.5 Z" stroke="none"/>
          <path d="M 45 3 C 39.32871246337891 3 33.82865524291992 4.110054016113281 28.65262985229492 6.299339294433594 C 23.65165710449219 8.414573669433594 19.15968322753906 11.44334411621094 15.301513671875 15.301513671875 C 11.44334411621094 19.15968322753906 8.414573669433594 23.65165710449219 6.299339294433594 28.65262985229492 C 4.110054016113281 33.82865524291992 3 39.32871246337891 3 45 C 3 50.67128753662109 4.110054016113281 56.17134475708008 6.299339294433594 61.34737396240234 C 8.414573669433594 66.34834289550781 11.44334411621094 70.84031677246094 15.301513671875 74.698486328125 C 19.15968322753906 78.55665588378906 23.65165710449219 81.58542633056641 28.65262985229492 83.70066070556641 C 33.82865524291992 85.88994598388672 39.32871246337891 87 45 87 C 50.67128753662109 87 56.17134475708008 85.88994598388672 61.34737396240234 83.70066070556641 C 66.34834289550781 81.58542633056641 70.84031677246094 78.55665588378906 74.698486328125 74.698486328125 C 78.55665588378906 70.84031677246094 81.58542633056641 66.34834289550781 83.70066070556641 61.34737396240234 C 85.88994598388672 56.17134475708008 87 50.67128753662109 87 45 C 87 39.32871246337891 85.88994598388672 33.82865524291992 83.70066070556641 28.65262985229492 C 81.58542633056641 23.65165710449219 78.55665588378906 19.15968322753906 74.698486328125 15.301513671875 C 70.84031677246094 11.44334411621094 66.34834289550781 8.414573669433594 61.34737396240234 6.299339294433594 C 56.17134475708008 4.110054016113281 50.67128753662109 3 45 3 M 45 0 C 69.85281372070312 0 90 20.14718627929688 90 45 C 90 69.85281372070312 69.85281372070312 90 45 90 C 20.14718627929688 90 0 69.85281372070312 0 45 C 0 20.14718627929688 20.14718627929688 0 45 0 Z" stroke="none" fill="#88bba9"/>
        </g>
      </g>
      <g id="Group_1145584" data-name="Group 1145584" transform="translate(218.058 346.472)">
        <g id="Group_1145585" data-name="Group 1145585" transform="translate(12.328)">
          <path id="Path_979780" data-name="Path 979780" d="M59.79,0V10.929a5.271,5.271,0,0,0,2.473,1.631,5.56,5.56,0,1,1,9.3,0l.956-.378c1.678-1.225,3.112-2.76,4.682-4.121V0H91.442V14.242H79.226l-5.938,5.14a3.053,3.053,0,0,0-.838,1.437v13.2h1.681a2.449,2.449,0,0,1,2.027-3.166c1.13-.123,2.455.1,3.606,0,.422-2.179.7-4.872,2.873-6.03.032-.138-.02-.162-.1-.248-.268-.3-.784-.609-1.093-.984a4.75,4.75,0,1,1,7.5-.217c-.122.165-.882.838-.774.956a5.249,5.249,0,0,1,2.971,3.212c.464,1.409.414,5.247.3,6.832a6.321,6.321,0,0,1-1.586,3.605c1.758.043,1.731,1.993,1.583,3.315-.062.554-.662,1.434-1.237,1.434H88.277v4.747H89.86v1.582h-45.9V47.474h1.583V42.726H43.617c-.575,0-1.175-.88-1.237-1.434-.148-1.322-.175-3.272,1.583-3.315a6.32,6.32,0,0,1-1.586-3.605c-.117-1.585-.167-5.422.3-6.832a5.248,5.248,0,0,1,2.971-3.212c.107-.117-.653-.79-.774-.956a4.759,4.759,0,1,1,6.315,1.3c2.092,1.448,2.471,3.832,2.871,6.176,1.151.1,2.477-.118,3.606,0a2.46,2.46,0,0,1,2.027,3.166h1.682v-13.2a3.055,3.055,0,0,0-.838-1.437L54.6,14.242H42.381V0ZM58.207,1.582H43.963V12.66h8.8C51.2,10.852,47.786,9.551,48.933,6.6a3.137,3.137,0,0,1,5.22-.817l4.054,3.71Zm31.653,0H78.781V6.528c.386-.094.638-.536.942-.789,3.532-2.934,7.37,1.344,4.2,4.4-.892.861-2.027,1.59-2.87,2.521h8.8ZM66.395,5.566c-5.266.611-4.077,8.97,1.431,7.761,4.715-1.035,3.614-8.346-1.431-7.761m4.473,22.127V20.621c0-.992,1.154-2.182,1.827-2.821,3.352-3.186,7.2-6.019,10.536-9.245,1-1.364-.684-2.929-2.167-1.87C78.22,8.715,74.9,13.4,71.582,14.313c-.937.258-1.913.263-2.848.519l.549,6.776-2.407,2.418L64.54,21.608l.549-6.776c-.962-.261-1.964-.265-2.925-.541-3.089-.889-6.685-5.527-9.351-7.563-1.478-1.129-3.23.4-2.222,1.827,3.342,3.22,7.184,6.059,10.536,9.245.738.7,1.827,1.817,1.827,2.92v6.973Zm-3.659-12.66h-.595l-.495,5.884.756.835.828-.835Zm-19.016,2.4c-3.933.571-3.272,6.8.952,6.293,4.047-.481,3.373-6.921-.952-6.293m36.4,0c-3.933.571-3.272,6.8.953,6.293,4.046-.481,3.373-6.921-.953-6.293m-40.63,11.4c-.19,1.6.141,3.553,0,5.192H49.3l-1.291-5.191c.057-.376,1.116-.361,1.436-.548l1.435,5.4a.889.889,0,0,0,.739.348c1.9.175,4.088-.122,6.017-.026a.8.8,0,0,0-.175-1.564c-1.134-.132-3.552.324-4.4-.348-.8-.637-.894-3.623-1.606-4.823a4.078,4.078,0,0,0-7.5,1.563m45.9,5.192V28.83c0-2.365-3-3.928-5.146-3.365-3.215.842-2.6,3.744-3.51,5.985-.65,1.6-3.427.823-4.848.987A.8.8,0,0,0,76.181,34c1.93-.1,4.118.2,6.017.026a.889.889,0,0,0,.74-.348l1.435-5.4c.321.187,1.379.172,1.436.548l-1.291,5.191ZM66.12,29.275H62.955v4.747H66.12Zm4.748,0H67.7v4.747h3.165Zm-26.509,6.33c1.311,3.417,5.144,2.026,7.855,2.382A2.525,2.525,0,0,1,54.251,40.1c.208,1.926-.308,4.587.023,6.406a1.188,1.188,0,0,0,2.341-.085c-.159-2.352.257-5.072-.019-7.381-.18-1.506-1.8-3.44-3.385-3.44Zm32.839,0H56.624c.219.382.544.68.772,1.058.185.308.513,1.269.76,1.317l17.416,0a.318.318,0,0,0,.292-.1c.124-.15.389-.929.563-1.217.228-.378.553-.676.772-1.058m12.265,0H80.611a4.6,4.6,0,0,0-2.426,1.333c-1.842,2.131-.648,6.805-.978,9.488a1.188,1.188,0,0,0,2.342.085c.331-1.818-.185-4.48.023-6.406a2.525,2.525,0,0,1,2.037-2.117c2.72-.357,6.533,1.032,7.855-2.382m-36.8,5.539c.071-.4.015-1.582-.544-1.582h-8.16v1.582Zm11.87-1.582H58.207v7.17c0,.138-.264.519-.2.742h6.528Zm3.165,0H66.12v7.912H67.7Zm7.913,0h-6.33v7.912h6.528c.066-.223-.2-.6-.2-.742Zm14.244,0H81.7c-.559,0-.615,1.185-.544,1.582h8.7ZM48.711,42.726H47.128v4.747h1.583Zm3.957,0H50.294v4.747h2.572c.066-.223-.2-.6-.2-.742Zm30.861,0H81.155v4.006c0,.138-.264.519-.2.742h2.572Zm3.165,0H85.112v4.747h1.583Z" transform="translate(-42.297)" fill="#010101"/>
          <path id="Path_979781" data-name="Path 979781" d="M103.226,53.332H95.313V46.359c0-1.1-1.089-2.218-1.827-2.92-3.352-3.186-7.195-6.025-10.536-9.246-1.007-1.422.745-2.956,2.223-1.827,2.665,2.036,6.262,6.674,9.351,7.563.961.277,1.963.28,2.925.541L96.9,47.248l2.335,2.418,2.407-2.418-.549-6.776c.935-.257,1.911-.261,2.848-.52,3.32-.914,6.639-5.6,9.483-7.628,1.483-1.058,3.168.506,2.167,1.87-3.337,3.227-7.184,6.06-10.536,9.246-.673.64-1.827,1.829-1.827,2.821Z" transform="translate(-74.655 -25.639)" fill="#fc816d"/>
          <path id="Path_979782" data-name="Path 979782" d="M64.949,7.986V15.9l-4.054-3.71a3.138,3.138,0,0,0-5.22.817c-1.146,2.95,2.27,4.251,3.834,6.059h-8.8V7.986Z" transform="translate(-49.039 -6.404)" fill="#e4e8eb"/>
          <path id="Path_979783" data-name="Path 979783" d="M237.5,7.986V19.063h-8.8c.843-.931,1.978-1.66,2.87-2.521,3.167-3.056-.67-7.334-4.2-4.4-.3.253-.557.695-.942.789V7.986Zm-1.583,1.582h-1.583v1.582h1.583Zm0,3.165h-1.583v1.582h1.583Zm0,3.165h-3.165v1.582h3.165Z" transform="translate(-189.938 -6.404)" fill="#e4e8eb"/>
          <path id="Path_979784" data-name="Path 979784" d="M50.461,131.365a4.078,4.078,0,0,1,7.5-1.563c.712,1.2.8,4.186,1.606,4.823.848.671,3.266.216,4.4.348a.8.8,0,0,1,.175,1.563c-1.93-.1-4.118.2-6.017.026a.89.89,0,0,1-.739-.349l-1.435-5.4c-.321.187-1.379.172-1.436.548l1.291,5.191H50.461c.141-1.64-.19-3.591,0-5.192" transform="translate(-48.795 -102.534)" fill="#f9d56f"/>
          <path id="Path_979785" data-name="Path 979785" d="M224.632,136.61H219.29l1.291-5.191c-.057-.376-1.116-.361-1.436-.548l-1.435,5.4a.89.89,0,0,1-.739.349c-1.9.175-4.088-.122-6.017-.026a.8.8,0,0,1,.175-1.563c1.421-.165,4.2.612,4.848-.988.911-2.241.295-5.143,3.51-5.985,2.147-.563,5.146,1,5.146,3.365Z" transform="translate(-177.069 -102.587)" fill="#fad56f"/>
          <path id="Path_979786" data-name="Path 979786" d="M150.219,27.956c5.045-.585,6.146,6.725,1.431,7.761-5.508,1.209-6.7-7.15-1.431-7.761" transform="translate(-126.121 -22.39)" fill="#eeceb2"/>
          <path id="Path_979787" data-name="Path 979787" d="M52.7,179.691h8.853c1.584,0,3.205,1.934,3.385,3.44.275,2.309-.14,5.029.019,7.381a1.188,1.188,0,0,1-2.341.084c-.331-1.818.185-4.48-.023-6.406a2.525,2.525,0,0,0-2.037-2.117c-2.711-.356-6.544,1.035-7.855-2.382" transform="translate(-50.64 -144.086)" fill="#828e9a"/>
          <path id="Path_979788" data-name="Path 979788" d="M230.41,179.691c-1.322,3.414-5.135,2.025-7.855,2.382a2.525,2.525,0,0,0-2.037,2.117c-.208,1.926.308,4.587-.023,6.406a1.188,1.188,0,0,1-2.341-.084c.33-2.683-.864-7.357.978-9.488a4.6,4.6,0,0,1,2.426-1.333Z" transform="translate(-183.243 -144.086)" fill="#828e9a"/>
          <path id="Path_979789" data-name="Path 979789" d="M135.176,179.691c-.219.382-.544.68-.772,1.058-.174.289-.439,1.067-.563,1.217a.317.317,0,0,1-.292.1l-17.416,0c-.247-.048-.575-1.009-.76-1.317-.228-.378-.553-.676-.772-1.058Z" transform="translate(-100.275 -144.086)" fill="#cd9d75"/>
          <path id="Path_979790" data-name="Path 979790" d="M61.479,87.8c4.325-.628,5,5.812.952,6.293-4.224.5-4.885-5.722-.952-6.293" transform="translate(-55.583 -70.372)" fill="#edcdb2"/>
          <path id="Path_979791" data-name="Path 979791" d="M245.183,87.8c4.325-.628,5,5.812.953,6.293-4.224.5-4.885-5.722-.953-6.293" transform="translate(-202.887 -70.372)" fill="#edcdb2"/>
          <rect id="Rectangle_405842" data-name="Rectangle 405842" width="3.165" height="4.747" transform="translate(20.658 29.275)" fill="#828e9a"/>
          <rect id="Rectangle_405843" data-name="Rectangle 405843" width="3.165" height="4.747" transform="translate(25.406 29.275)" fill="#828e9a"/>
          <path id="Path_979792" data-name="Path 979792" d="M59.409,201.239h-8.7v-1.582h8.16c.559,0,.615,1.185.544,1.582" transform="translate(-49.039 -160.096)" fill="#cd9d75"/>
          <path id="Path_979793" data-name="Path 979793" d="M247.01,199.657v1.582h-8.7c-.071-.4-.015-1.582.544-1.582Z" transform="translate(-199.447 -160.096)" fill="#cd9d75"/>
          <rect id="Rectangle_405844" data-name="Rectangle 405844" width="1.583" height="7.912" transform="translate(23.823 39.561)" fill="#b17847"/>
          <rect id="Rectangle_405845" data-name="Rectangle 405845" width="1.583" height="4.747" transform="translate(4.831 42.726)" fill="#b17847"/>
          <rect id="Rectangle_405846" data-name="Rectangle 405846" width="1.583" height="4.747" transform="translate(42.814 42.726)" fill="#b17847"/>
          <path id="Path_979794" data-name="Path 979794" d="M163.611,75.867l.495,5.884-.828.835-.756-.835.495-5.884Z" transform="translate(-138.7 -60.834)" fill="#dee2e5"/>
          <rect id="Rectangle_405847" data-name="Rectangle 405847" width="3.165" height="1.582" transform="translate(42.814 9.495)"/>
          <rect id="Rectangle_405848" data-name="Rectangle 405848" width="1.583" height="1.582" transform="translate(44.397 3.165)"/>
          <rect id="Rectangle_405849" data-name="Rectangle 405849" width="1.583" height="1.582" transform="translate(44.397 6.33)"/>
        </g>
      </g>
    </g>
  </g>
</svg>
